<svg xmlns="http://www.w3.org/2000/svg" width="714.938" height="367" viewBox="0 0 714.938 367">
  <g id="Grupo_1126286" data-name="Grupo 1126286" transform="translate(-390.062 -1364)">
    <path id="Trazado_990452" data-name="Trazado 990452" d="M7.778,13.643A1.353,1.353,0,0,0,7.251,12.5a6.917,6.917,0,0,0-1.9-.844,13.458,13.458,0,0,1-2.171-.875A3.547,3.547,0,0,1,1,7.6a3.09,3.09,0,0,1,.584-1.85,3.812,3.812,0,0,1,1.679-1.27,6.318,6.318,0,0,1,2.457-.457,5.751,5.751,0,0,1,2.443.5,3.891,3.891,0,0,1,1.666,1.4,3.668,3.668,0,0,1,.593,2.057H7.787a1.726,1.726,0,0,0-.554-1.367,2.276,2.276,0,0,0-1.556-.488,2.432,2.432,0,0,0-1.5.409,1.289,1.289,0,0,0-.536,1.077,1.235,1.235,0,0,0,.628,1.046,7.1,7.1,0,0,0,1.85.791A7.994,7.994,0,0,1,9.4,11.129a3.343,3.343,0,0,1,1.028,2.5,3.08,3.08,0,0,1-1.257,2.606,5.5,5.5,0,0,1-3.384.945,6.534,6.534,0,0,1-2.689-.541,4.256,4.256,0,0,1-1.85-1.481,3.793,3.793,0,0,1-.637-2.18H3.252q0,2.118,2.531,2.118a2.462,2.462,0,0,0,1.468-.382A1.244,1.244,0,0,0,7.778,13.643Zm8.64,3.533a4.668,4.668,0,0,1-3.406-1.283A4.561,4.561,0,0,1,11.7,12.474v-.246a5.745,5.745,0,0,1,.554-2.562,4.064,4.064,0,0,1,1.569-1.74,4.4,4.4,0,0,1,2.316-.611,3.947,3.947,0,0,1,3.072,1.23,5,5,0,0,1,1.121,3.489v1.037H14.273a2.36,2.36,0,0,0,.743,1.494,2.245,2.245,0,0,0,1.569.563,2.742,2.742,0,0,0,2.294-1.063l1.248,1.4a3.813,3.813,0,0,1-1.547,1.261A5.075,5.075,0,0,1,16.418,17.176Zm-.29-7.813a1.587,1.587,0,0,0-1.226.512,2.651,2.651,0,0,0-.6,1.466h3.533v-.2a1.891,1.891,0,0,0-.457-1.311A1.638,1.638,0,0,0,16.128,9.362Zm7.98-1.872.079,1.1a3.32,3.32,0,0,1,2.733-1.274,2.759,2.759,0,0,1,2.25.888,4.142,4.142,0,0,1,.756,2.654V17h-2.54V10.9a1.654,1.654,0,0,0-.352-1.176,1.572,1.572,0,0,0-1.169-.366,1.747,1.747,0,0,0-1.608.916V17h-2.54V7.49Zm5.045-3.876a2.46,2.46,0,0,1-.58,1.666,1.8,1.8,0,0,1-1.415.672,2.146,2.146,0,0,1-.593-.075,3.981,3.981,0,0,1-.716-.321,3.864,3.864,0,0,0-.659-.3A1.611,1.611,0,0,0,24.75,5.2a.7.7,0,0,0-.523.22.854.854,0,0,0-.215.624l-1.477-.088a2.5,2.5,0,0,1,.576-1.661,1.776,1.776,0,0,1,1.411-.686,1.816,1.816,0,0,1,.5.066,5.468,5.468,0,0,1,.76.321,4.941,4.941,0,0,0,.729.308,1.665,1.665,0,0,0,.422.053.741.741,0,0,0,.532-.215.819.819,0,0,0,.224-.62ZM37.362,17a2.821,2.821,0,0,1-.255-.853,3.073,3.073,0,0,1-2.4,1.028,3.376,3.376,0,0,1-2.316-.809,2.6,2.6,0,0,1-.918-2.039,2.687,2.687,0,0,1,1.121-2.32,5.529,5.529,0,0,1,3.239-.817H37v-.545a1.567,1.567,0,0,0-.338-1.055A1.331,1.331,0,0,0,35.6,9.2a1.513,1.513,0,0,0-1.006.308,1.045,1.045,0,0,0-.365.844h-2.54a2.551,2.551,0,0,1,.51-1.529,3.37,3.37,0,0,1,1.441-1.1,5.253,5.253,0,0,1,2.092-.4,4.15,4.15,0,0,1,2.791.883,3.09,3.09,0,0,1,1.033,2.483V14.8a4.546,4.546,0,0,0,.378,2.048V17Zm-2.1-1.767a2.188,2.188,0,0,0,1.037-.25,1.645,1.645,0,0,0,.7-.672V12.676h-.949q-1.907,0-2.03,1.318l-.009.149a1.017,1.017,0,0,0,.334.782A1.3,1.3,0,0,0,35.262,15.233ZM44.183,17H41.634V3.5h2.549Zm12.085,0a2.821,2.821,0,0,1-.255-.853,3.073,3.073,0,0,1-2.4,1.028,3.376,3.376,0,0,1-2.316-.809,2.6,2.6,0,0,1-.918-2.039,2.687,2.687,0,0,1,1.121-2.32,5.529,5.529,0,0,1,3.239-.817h1.169v-.545a1.567,1.567,0,0,0-.338-1.055A1.331,1.331,0,0,0,54.5,9.2a1.513,1.513,0,0,0-1.006.308,1.045,1.045,0,0,0-.365.844H50.59a2.551,2.551,0,0,1,.51-1.529,3.37,3.37,0,0,1,1.441-1.1,5.253,5.253,0,0,1,2.092-.4,4.15,4.15,0,0,1,2.791.883,3.09,3.09,0,0,1,1.033,2.483V14.8a4.546,4.546,0,0,0,.378,2.048V17Zm-2.1-1.767a2.188,2.188,0,0,0,1.037-.25,1.645,1.645,0,0,0,.7-.672V12.676h-.949q-1.907,0-2.03,1.318l-.009.149a1.017,1.017,0,0,0,.334.782A1.3,1.3,0,0,0,54.167,15.233ZM62.745,7.49l.079,1.1a3.32,3.32,0,0,1,2.733-1.274,2.759,2.759,0,0,1,2.25.888,4.142,4.142,0,0,1,.756,2.654V17h-2.54V10.9a1.654,1.654,0,0,0-.352-1.176A1.572,1.572,0,0,0,64.5,9.362a1.747,1.747,0,0,0-1.608.916V17h-2.54V7.49ZM76,17a2.821,2.821,0,0,1-.255-.853,3.073,3.073,0,0,1-2.4,1.028,3.376,3.376,0,0,1-2.316-.809,2.6,2.6,0,0,1-.918-2.039,2.687,2.687,0,0,1,1.121-2.32,5.529,5.529,0,0,1,3.239-.817h1.169v-.545A1.567,1.567,0,0,0,75.3,9.591a1.331,1.331,0,0,0-1.068-.4,1.513,1.513,0,0,0-1.006.308,1.045,1.045,0,0,0-.365.844h-2.54a2.551,2.551,0,0,1,.51-1.529,3.37,3.37,0,0,1,1.441-1.1,5.253,5.253,0,0,1,2.092-.4,4.15,4.15,0,0,1,2.791.883,3.09,3.09,0,0,1,1.033,2.483V14.8a4.546,4.546,0,0,0,.378,2.048V17Zm-2.1-1.767a2.188,2.188,0,0,0,1.037-.25,1.645,1.645,0,0,0,.7-.672V12.676h-.949q-1.907,0-2.03,1.318l-.009.149a1.017,1.017,0,0,0,.334.782A1.3,1.3,0,0,0,73.9,15.233ZM82.819,17H80.271V3.5h2.549Zm1.7-4.843a5.64,5.64,0,0,1,.545-2.522,3.989,3.989,0,0,1,1.569-1.714,4.577,4.577,0,0,1,2.377-.606,4.33,4.33,0,0,1,3.142,1.178,4.727,4.727,0,0,1,1.358,3.2l.018.65A4.97,4.97,0,0,1,92.3,15.853a4.735,4.735,0,0,1-6.561,0,5.058,5.058,0,0,1-1.226-3.586Zm2.54.18a3.555,3.555,0,0,0,.51,2.073,1.831,1.831,0,0,0,2.9.009,3.89,3.89,0,0,0,.519-2.267,3.519,3.519,0,0,0-.519-2.06,1.686,1.686,0,0,0-1.459-.731,1.658,1.658,0,0,0-1.441.726A3.955,3.955,0,0,0,87.056,12.338ZM89.508,3.5h2.769L89.842,6.225H87.776Zm5.212,8.675A5.573,5.573,0,0,1,95.761,8.65a3.375,3.375,0,0,1,2.808-1.336A2.96,2.96,0,0,1,101,8.387l.105-.9h2.3v9.193a4.064,4.064,0,0,1-.567,2.171,3.641,3.641,0,0,1-1.6,1.406,5.608,5.608,0,0,1-2.408.483,5.215,5.215,0,0,1-2.039-.417,3.619,3.619,0,0,1-1.5-1.077L96.425,17.7a2.975,2.975,0,0,0,2.3,1.063,2.178,2.178,0,0,0,1.573-.541,2.027,2.027,0,0,0,.563-1.534v-.51a2.938,2.938,0,0,1-2.312.993,3.366,3.366,0,0,1-2.773-1.34A5.572,5.572,0,0,1,94.72,12.28Zm2.54.181a3.489,3.489,0,0,0,.519,2.035,1.648,1.648,0,0,0,1.424.737,1.762,1.762,0,0,0,1.661-.874V10.236a1.758,1.758,0,0,0-1.644-.874,1.659,1.659,0,0,0-1.437.751A3.933,3.933,0,0,0,97.26,12.356ZM108.044,17H105.5V7.49h2.549Zm-2.7-11.971a1.251,1.251,0,0,1,.382-.94,1.648,1.648,0,0,1,2.079,0,1.244,1.244,0,0,1,.387.94,1.247,1.247,0,0,1-.391.949,1.629,1.629,0,0,1-2.065,0A1.247,1.247,0,0,1,105.346,5.029Zm8.745,10.1a1.666,1.666,0,0,0,1.143-.387,1.355,1.355,0,0,0,.457-1.028h2.382a3.258,3.258,0,0,1-.527,1.771,3.48,3.48,0,0,1-1.419,1.248,4.442,4.442,0,0,1-1.991.444,4.129,4.129,0,0,1-3.217-1.3A5.13,5.13,0,0,1,109.74,12.3v-.167a5.071,5.071,0,0,1,1.169-3.507,4.08,4.08,0,0,1,3.208-1.31,4,4,0,0,1,2.861,1.015,3.594,3.594,0,0,1,1.094,2.7H115.69a1.745,1.745,0,0,0-.457-1.206,1.7,1.7,0,0,0-2.5.183,3.749,3.749,0,0,0-.453,2.1v.264a3.8,3.8,0,0,0,.448,2.113A1.549,1.549,0,0,0,114.091,15.128ZM125.033,17a2.821,2.821,0,0,1-.255-.853,3.073,3.073,0,0,1-2.4,1.028,3.376,3.376,0,0,1-2.316-.809,2.6,2.6,0,0,1-.918-2.039,2.687,2.687,0,0,1,1.121-2.32,5.529,5.529,0,0,1,3.239-.817h1.169v-.545a1.567,1.567,0,0,0-.338-1.055,1.331,1.331,0,0,0-1.068-.4,1.513,1.513,0,0,0-1.006.308,1.045,1.045,0,0,0-.365.844h-2.54a2.551,2.551,0,0,1,.51-1.529,3.37,3.37,0,0,1,1.441-1.1,5.253,5.253,0,0,1,2.092-.4,4.15,4.15,0,0,1,2.791.883,3.09,3.09,0,0,1,1.033,2.483V14.8a4.546,4.546,0,0,0,.378,2.048V17Zm-2.1-1.767a2.188,2.188,0,0,0,1.037-.25,1.645,1.645,0,0,0,.7-.672V12.676h-.949q-1.907,0-2.03,1.318l-.009.149a1.017,1.017,0,0,0,.334.782A1.3,1.3,0,0,0,122.933,15.233Z" transform="translate(684.279 1386)" fill="#d082fa"/>
    <path id="Trazado_990453" data-name="Trazado 990453" d="M5.871,13.827,8.771,4.2h2.936L7.251,17H4.5L.062,4.2H2.988Zm11.47-2.03a13.488,13.488,0,0,1,.536-3.832,10.112,10.112,0,0,1,1.582-3.221A5.907,5.907,0,0,1,21.727,2.8l.492,1.371a6.118,6.118,0,0,0-2,2.936,13.592,13.592,0,0,0-.721,4.641v.272a13.852,13.852,0,0,0,.712,4.658,6.237,6.237,0,0,0,2.013,2.979L21.727,21A5.91,5.91,0,0,1,19.5,19.1a9.943,9.943,0,0,1-1.578-3.133,13.408,13.408,0,0,1-.58-3.709Zm9.246-6.645V7.49h1.626V9.354H26.587V14.1a1.133,1.133,0,0,0,.2.756,1.015,1.015,0,0,0,.773.229,4.051,4.051,0,0,0,.747-.062v1.925a5.229,5.229,0,0,1-1.538.229,2.425,2.425,0,0,1-2.725-2.7V9.354H22.658V7.49h1.389V5.152ZM34,12a12.8,12.8,0,0,1-.571,3.823,10.378,10.378,0,0,1-1.644,3.243A5.921,5.921,0,0,1,29.5,21L29,19.654a6.18,6.18,0,0,0,1.969-2.9,13.431,13.431,0,0,0,.747-4.509v-.466A13.735,13.735,0,0,0,31,7.147a6.442,6.442,0,0,0-2-3.006L29.5,2.8A5.923,5.923,0,0,1,31.75,4.678a10.244,10.244,0,0,1,1.644,3.173A12.708,12.708,0,0,1,34,11.6Z" transform="translate(390 1364)" fill="#67987c"/>
    <path id="Trazado_990454" data-name="Trazado 990454" d="M1.09,11.8a13.488,13.488,0,0,1,.536-3.832A10.112,10.112,0,0,1,3.208,4.744,5.907,5.907,0,0,1,5.476,2.8l.492,1.371a6.118,6.118,0,0,0-2,2.936,13.592,13.592,0,0,0-.721,4.641v.272a13.852,13.852,0,0,0,.712,4.658,6.237,6.237,0,0,0,2.013,2.979L5.476,21A5.91,5.91,0,0,1,3.248,19.1,9.943,9.943,0,0,1,1.67,15.972a13.408,13.408,0,0,1-.58-3.709Zm9.246-6.645V7.49h1.626V9.354H10.336V14.1a1.133,1.133,0,0,0,.2.756,1.015,1.015,0,0,0,.773.229,4.051,4.051,0,0,0,.747-.062v1.925a5.229,5.229,0,0,1-1.538.229,2.425,2.425,0,0,1-2.725-2.7V9.354H6.407V7.49H7.8V5.152ZM17.754,12a12.8,12.8,0,0,1-.571,3.823,10.378,10.378,0,0,1-1.644,3.243A5.921,5.921,0,0,1,13.245,21l-.492-1.345a6.18,6.18,0,0,0,1.969-2.9,13.431,13.431,0,0,0,.747-4.509v-.466a13.735,13.735,0,0,0-.716-4.632,6.442,6.442,0,0,0-2-3.006L13.245,2.8A5.923,5.923,0,0,1,15.5,4.678a10.244,10.244,0,0,1,1.644,3.173,12.708,12.708,0,0,1,.611,3.753Z" transform="translate(1062 1591)" fill="#67987c"/>
    <g id="Grupo_1125731" data-name="Grupo 1125731" transform="translate(442.051 1364)">
      <line id="Línea_586" data-name="Línea 586" y2="342" transform="translate(11 10)" fill="none" stroke="#67407c" stroke-width="2"/>
      <line id="Línea_587" data-name="Línea 587" x1="632" transform="translate(11 206)" fill="none" stroke="#67407c" stroke-width="2"/>
      <path id="Polígono_5" data-name="Polígono 5" d="M11.5,0,23,20H0Z" fill="#67407c"/>
      <path id="Polígono_7" data-name="Polígono 7" d="M11.5,0,23,20H0Z" transform="translate(662.949 194.5) rotate(90)" fill="#67407c"/>
      <path id="Polígono_6" data-name="Polígono 6" d="M11.5,0,23,20H0Z" transform="translate(23 367) rotate(180)" fill="#67407c"/>
      <path id="Trazado_986716" data-name="Trazado 986716" d="M-8159.052-10059.5s59.925-142.875,132.785-120.5,88.156,198.25,158.657,210,65.29-153.75,123.347-163,63.242,110.25,108.882,126,63.308-59,73.678-63,19.7,21,19.7,21" transform="translate(8170.001 10254)" fill="none" stroke="#95dbb3" stroke-width="3"/>
    </g>
  </g>
</svg>
