<svg id="Grupo_1125882" data-name="Grupo 1125882" xmlns="http://www.w3.org/2000/svg" width="76.607" height="76.607" viewBox="0 0 76.607 76.607">
  <rect id="Rectángulo_415814" data-name="Rectángulo 415814" width="59.091" height="59.091" transform="translate(8.759 8.759)" fill="#57a4ff"/>
  <g id="Grupo_1125853" data-name="Grupo 1125853" transform="translate(30.285 21.197)">
    <rect id="Rectángulo_415815" data-name="Rectángulo 415815" width="22.02" height="22.02" transform="translate(0 6.096)" fill="#78b9eb"/>
    <rect id="Rectángulo_415816" data-name="Rectángulo 415816" width="5.012" height="5.012" transform="translate(30.611)" fill="#78b9eb"/>
    <rect id="Rectángulo_415817" data-name="Rectángulo 415817" width="5.012" height="5.012" transform="translate(30.611 8.428)" fill="#78b9eb"/>
  </g>
  <rect id="Rectángulo_415818" data-name="Rectángulo 415818" width="22.02" height="22.02" transform="translate(27.293 27.293)" fill="#ffb655"/>
  <rect id="SVGCleanerId_0" width="7.637" height="4.09" transform="translate(67.848 12.693)" fill="#ffe477"/>
  <rect id="SVGCleanerId_1" width="7.637" height="4.09" transform="translate(67.848 22.119)" fill="#ffe477"/>
  <rect id="SVGCleanerId_2" width="7.637" height="4.09" transform="translate(67.848 31.545)" fill="#ffe477"/>
  <rect id="SVGCleanerId_3" width="7.637" height="4.09" transform="translate(67.848 40.971)" fill="#ffe477"/>
  <rect id="SVGCleanerId_4" width="7.637" height="4.09" transform="translate(67.848 50.397)" fill="#ffe477"/>
  <rect id="SVGCleanerId_5" width="7.637" height="4.09" transform="translate(67.848 59.824)" fill="#ffe477"/>
  <g id="Grupo_1125854" data-name="Grupo 1125854" transform="translate(1.122 12.693)">
    <rect id="Rectángulo_415819" data-name="Rectángulo 415819" width="7.637" height="4.09" fill="#ffe477"/>
    <rect id="Rectángulo_415820" data-name="Rectángulo 415820" width="7.637" height="4.09" transform="translate(0 9.426)" fill="#ffe477"/>
    <rect id="Rectángulo_415821" data-name="Rectángulo 415821" width="7.637" height="4.09" transform="translate(0 18.852)" fill="#ffe477"/>
    <rect id="Rectángulo_415822" data-name="Rectángulo 415822" width="7.637" height="4.09" transform="translate(0 28.279)" fill="#ffe477"/>
    <rect id="Rectángulo_415823" data-name="Rectángulo 415823" width="7.637" height="4.09" transform="translate(0 37.705)" fill="#ffe477"/>
    <rect id="Rectángulo_415824" data-name="Rectángulo 415824" width="7.637" height="4.09" transform="translate(0 47.131)" fill="#ffe477"/>
  </g>
  <rect id="SVGCleanerId_6" width="4.09" height="7.637" transform="translate(59.824 67.848)" fill="#ffd422"/>
  <rect id="SVGCleanerId_7" width="4.09" height="7.637" transform="translate(50.397 67.848)" fill="#ffd422"/>
  <rect id="SVGCleanerId_8" width="4.09" height="7.637" transform="translate(40.971 67.848)" fill="#ffd422"/>
  <rect id="SVGCleanerId_9" width="4.09" height="7.637" transform="translate(31.545 67.848)" fill="#ffd422"/>
  <rect id="SVGCleanerId_10" width="4.09" height="7.637" transform="translate(22.119 67.848)" fill="#ffd422"/>
  <rect id="SVGCleanerId_11" width="4.09" height="7.637" transform="translate(12.693 67.848)" fill="#ffd422"/>
  <rect id="SVGCleanerId_12" width="4.09" height="7.637" transform="translate(59.824 1.122)" fill="#ffd422"/>
  <rect id="SVGCleanerId_13" width="4.09" height="7.637" transform="translate(50.397 1.122)" fill="#ffd422"/>
  <rect id="SVGCleanerId_14" width="4.09" height="7.637" transform="translate(40.971 1.122)" fill="#ffd422"/>
  <rect id="SVGCleanerId_15" width="4.09" height="7.637" transform="translate(31.545 1.122)" fill="#ffd422"/>
  <rect id="SVGCleanerId_16" width="4.09" height="7.637" transform="translate(22.119 1.122)" fill="#ffd422"/>
  <rect id="SVGCleanerId_17" width="4.09" height="7.637" transform="translate(12.693 1.122)" fill="#ffd422"/>
  <g id="Grupo_1125855" data-name="Grupo 1125855" transform="translate(57.904 21.197)">
    <rect id="Rectángulo_415825" data-name="Rectángulo 415825" width="5.012" height="5.012" fill="#ff3f62"/>
    <rect id="Rectángulo_415826" data-name="Rectángulo 415826" width="5.012" height="5.012" transform="translate(0 8.428)" fill="#ff3f62"/>
  </g>
  <g id="Grupo_1125856" data-name="Grupo 1125856" transform="translate(67.848 12.693)">
    <rect id="SVGCleanerId_0_1_" width="7.637" height="4.09" fill="#ffe477"/>
  </g>
  <g id="Grupo_1125857" data-name="Grupo 1125857" transform="translate(67.848 22.119)">
    <rect id="SVGCleanerId_1_1_" width="7.637" height="4.09" fill="#ffe477"/>
  </g>
  <g id="Grupo_1125858" data-name="Grupo 1125858" transform="translate(67.848 31.545)">
    <rect id="SVGCleanerId_2_1_" width="7.637" height="4.09" fill="#ffe477"/>
  </g>
  <g id="Grupo_1125859" data-name="Grupo 1125859" transform="translate(67.848 40.971)">
    <rect id="SVGCleanerId_3_1_" width="7.637" height="4.09" fill="#ffe477"/>
  </g>
  <g id="Grupo_1125860" data-name="Grupo 1125860" transform="translate(67.848 50.397)">
    <rect id="SVGCleanerId_4_1_" width="7.637" height="4.09" fill="#ffe477"/>
  </g>
  <g id="Grupo_1125861" data-name="Grupo 1125861" transform="translate(67.848 59.824)">
    <rect id="SVGCleanerId_5_1_" width="7.637" height="4.09" fill="#ffe477"/>
  </g>
  <g id="Grupo_1125862" data-name="Grupo 1125862" transform="translate(59.824 67.848)">
    <rect id="SVGCleanerId_6_1_" width="4.09" height="7.637" fill="#ffd422"/>
  </g>
  <g id="Grupo_1125863" data-name="Grupo 1125863" transform="translate(50.397 67.848)">
    <rect id="SVGCleanerId_7_1_" width="4.09" height="7.637" fill="#ffd422"/>
  </g>
  <g id="Grupo_1125864" data-name="Grupo 1125864" transform="translate(40.971 67.848)">
    <rect id="SVGCleanerId_8_1_" width="4.09" height="7.637" fill="#ffd422"/>
  </g>
  <g id="Grupo_1125865" data-name="Grupo 1125865" transform="translate(31.545 67.848)">
    <rect id="SVGCleanerId_9_1_" width="4.09" height="7.637" fill="#ffd422"/>
  </g>
  <g id="Grupo_1125866" data-name="Grupo 1125866" transform="translate(22.119 67.848)">
    <rect id="SVGCleanerId_10_1_" width="4.09" height="7.637" fill="#ffd422"/>
  </g>
  <g id="Grupo_1125867" data-name="Grupo 1125867" transform="translate(12.693 67.848)">
    <rect id="SVGCleanerId_11_1_" width="4.09" height="7.637" fill="#ffd422"/>
  </g>
  <g id="Grupo_1125868" data-name="Grupo 1125868" transform="translate(59.824 1.122)">
    <rect id="SVGCleanerId_12_1_" width="4.09" height="7.637" fill="#ffd422"/>
  </g>
  <g id="Grupo_1125869" data-name="Grupo 1125869" transform="translate(50.397 1.122)">
    <rect id="SVGCleanerId_13_1_" width="4.09" height="7.637" fill="#ffd422"/>
  </g>
  <g id="Grupo_1125870" data-name="Grupo 1125870" transform="translate(40.971 1.122)">
    <rect id="SVGCleanerId_14_1_" width="4.09" height="7.637" fill="#ffd422"/>
  </g>
  <g id="Grupo_1125871" data-name="Grupo 1125871" transform="translate(31.545 1.122)">
    <rect id="SVGCleanerId_15_1_" width="4.09" height="7.637" fill="#ffd422"/>
  </g>
  <g id="Grupo_1125872" data-name="Grupo 1125872" transform="translate(22.119 1.122)">
    <rect id="SVGCleanerId_16_1_" width="4.09" height="7.637" fill="#ffd422"/>
  </g>
  <g id="Grupo_1125873" data-name="Grupo 1125873" transform="translate(12.693 1.122)">
    <rect id="SVGCleanerId_17_1_" width="4.09" height="7.637" fill="#ffd422"/>
  </g>
  <rect id="Rectángulo_415827" data-name="Rectángulo 415827" width="8.977" height="59.091" transform="translate(8.759 8.759)" fill="#006df0"/>
  <rect id="Rectángulo_415828" data-name="Rectángulo 415828" width="2.992" height="22.02" transform="translate(27.293 27.293)" fill="#ff9811"/>
  <g id="Grupo_1125874" data-name="Grupo 1125874" transform="translate(1.122 12.693)">
    <rect id="Rectángulo_415829" data-name="Rectángulo 415829" width="2.992" height="4.09" transform="translate(0 18.852)" fill="#ffd422"/>
    <rect id="Rectángulo_415830" data-name="Rectángulo 415830" width="2.992" height="4.09" transform="translate(0 9.426)" fill="#ffd422"/>
    <rect id="Rectángulo_415831" data-name="Rectángulo 415831" width="2.992" height="4.09" fill="#ffd422"/>
    <rect id="Rectángulo_415832" data-name="Rectángulo 415832" width="2.992" height="4.09" transform="translate(0 47.131)" fill="#ffd422"/>
    <rect id="Rectángulo_415833" data-name="Rectángulo 415833" width="2.992" height="4.09" transform="translate(0 28.279)" fill="#ffd422"/>
    <rect id="Rectángulo_415834" data-name="Rectángulo 415834" width="2.992" height="4.09" transform="translate(0 37.705)" fill="#ffd422"/>
    <rect id="Rectángulo_415835" data-name="Rectángulo 415835" width="2.992" height="4.09" transform="translate(66.723 18.852)" fill="#ffd422"/>
    <rect id="Rectángulo_415836" data-name="Rectángulo 415836" width="2.992" height="4.09" transform="translate(66.723 9.426)" fill="#ffd422"/>
    <rect id="Rectángulo_415837" data-name="Rectángulo 415837" width="2.992" height="4.09" transform="translate(66.723)" fill="#ffd422"/>
    <rect id="Rectángulo_415838" data-name="Rectángulo 415838" width="2.992" height="4.09" transform="translate(66.723 47.131)" fill="#ffd422"/>
    <rect id="Rectángulo_415839" data-name="Rectángulo 415839" width="2.992" height="4.09" transform="translate(66.723 28.279)" fill="#ffd422"/>
    <rect id="Rectángulo_415840" data-name="Rectángulo 415840" width="2.992" height="4.09" transform="translate(66.723 37.705)" fill="#ffd422"/>
  </g>
  <g id="Grupo_1125875" data-name="Grupo 1125875" transform="translate(57.904 21.197)">
    <rect id="Rectángulo_415841" data-name="Rectángulo 415841" width="2.992" height="5.012" fill="#c70024"/>
    <rect id="Rectángulo_415842" data-name="Rectángulo 415842" width="2.992" height="5.012" transform="translate(0 8.428)" fill="#c70024"/>
  </g>
  <g id="Grupo_1125876" data-name="Grupo 1125876">
    <rect id="Rectángulo_415843" data-name="Rectángulo 415843" width="2.244" height="2.244" transform="translate(60.735 60.747)" fill="#1d1d1f"/>
    <rect id="Rectángulo_415844" data-name="Rectángulo 415844" width="2.244" height="2.244" transform="translate(56.994 60.747)" fill="#1d1d1f"/>
    <rect id="Rectángulo_415845" data-name="Rectángulo 415845" width="2.244" height="2.244" transform="translate(49.513 60.747)" fill="#1d1d1f"/>
    <rect id="Rectángulo_415846" data-name="Rectángulo 415846" width="2.244" height="2.244" transform="translate(53.254 60.747)" fill="#1d1d1f"/>
    <rect id="Rectángulo_415847" data-name="Rectángulo 415847" width="2.244" height="2.244" transform="translate(60.735 56.882)" fill="#1d1d1f"/>
    <rect id="Rectángulo_415848" data-name="Rectángulo 415848" width="2.244" height="2.244" transform="translate(56.994 56.882)" fill="#1d1d1f"/>
    <rect id="Rectángulo_415849" data-name="Rectángulo 415849" width="2.244" height="2.244" transform="translate(49.513 56.882)" fill="#1d1d1f"/>
    <rect id="Rectángulo_415850" data-name="Rectángulo 415850" width="2.244" height="2.244" transform="translate(53.254 56.882)" fill="#1d1d1f"/>
    <rect id="Rectángulo_415851" data-name="Rectángulo 415851" width="2.756" height="2.756" transform="translate(34.17 30.037)" fill="#1d1d1f"/>
    <rect id="Rectángulo_415852" data-name="Rectángulo 415852" width="1.378" height="2.756" transform="translate(38.303 30.037)" fill="#1d1d1f"/>
    <rect id="Rectángulo_415853" data-name="Rectángulo 415853" width="2.756" height="2.756" transform="translate(30.037 30.037)" fill="#1d1d1f"/>
    <path id="Trazado_987045" data-name="Trazado 987045" d="M76.607,17.9V11.571H68.97V7.637H65.036V0H58.7V7.637H55.61V0H49.276V7.637H46.184V0H39.85V7.637H36.757V0H30.423V7.644H27.331V0H21V7.641H17.9V0H11.571V7.638H7.637v3.934H0V17.9H7.637V21H0v6.334H7.637v3.092H0v6.334H7.637V39.85H0v6.334H7.637v3.092H0V55.61H7.637V58.7H0v6.334H7.637v3.927h3.934v7.644H17.9V68.964H21v7.643h6.334V68.965h3.092v7.642h6.334V68.966H39.85v7.64h6.334v-7.64h3.092v7.639H55.61V68.969H58.7v7.638h6.334V68.97H68.97V65.036h7.637V58.7H68.97v-.386l-2.244-.007v8.418H9.88V9.879H66.726V56.071l2.244.007V55.61h7.637V49.276H68.97V46.184h7.637V39.85H68.97V36.757h7.637V30.423H68.97V27.331h7.637V21H68.97V17.9Zm-7.636-4.09h5.392v1.845H68.971ZM60.946,2.244h1.845V7.636H60.946Zm-9.426,0h1.845V7.636H51.52Zm-9.426,0h1.845V7.636H42.094Zm-18.852,0h1.845V7.636H23.241V2.244Zm-9.426,0H15.66V7.636H13.815ZM7.636,15.661H2.244V13.815H7.636Zm0,9.426H2.244V23.241H7.636Zm0,9.426H2.244V32.668H7.636Zm0,18.852H2.244V51.52H7.636Zm0,9.426H2.244V60.946H7.636Zm8.024,11.571H13.815V68.971H15.66v5.392Zm9.426,0H23.242V68.971h1.845v5.392Zm9.426,0H32.668V68.971h1.845v5.392Zm9.426,0H42.094V68.971h1.845Zm9.426,0H51.52V68.971h1.845Zm9.426,0H60.946V68.971h1.845Zm6.179-13.416h5.392v1.845H68.971ZM7.636,43.939H2.244V42.094H7.636ZM32.668,2.244h1.845V7.636H32.668V2.244Zm36.3,49.276h5.392v1.845H68.971Zm0-9.426h5.392v1.845H68.971Zm0-9.426h5.392v1.845H68.971Zm0-9.426h5.392v1.845H68.971Z" fill="#1d1d1f"/>
    <path id="Trazado_987046" data-name="Trazado 987046" d="M186.59,164.214V161.97H183.9v-2.332H181.57v-2.68l-2.244-.007v2.688h-2.095v-2.68l-2.244-.007v2.688h-2.095v-2.68l-2.244-.007v2.688h-2.095v-2.68l-2.244-.007v2.688h-2.095v-2.68l-2.244-.007v2.688h-2.332v2.332h-2.68l-.007,2.237,2.688.005v2.1h-2.68l-.007,2.237,2.688.005v2.1h-2.68l-.007,2.237,2.688.005v2.1h-2.68l-.007,2.237,2.688.005v2.1h-2.68l-.007,2.237,2.688.005V183.9h2.332v2.68l2.244.007V183.9h2.095v2.68l2.244.007V183.9h2.095v2.68l2.244.007V183.9h2.095v2.68l2.244.007V183.9h2.095v2.68l2.244.007V183.9H183.9v-2.337l2.688.005v-2.244H183.9v-2.1l2.688.005v-2.244H183.9v-2.1l2.688.005v-2.244H183.9v-2.1l2.688.005v-2.244H183.9v-2.1Zm-4.932,17.444H161.882V161.882h19.776v19.776Z" transform="translate(-133.467 -133.467)" fill="#1d1d1f"/>
  </g>
  <g id="Grupo_1125877" data-name="Grupo 1125877" transform="translate(43.94 31.433)">
    <rect id="Rectángulo_415854" data-name="Rectángulo 415854" width="2.244" height="6.284" transform="translate(0 7.481)" fill="#fff"/>
    <rect id="Rectángulo_415855" data-name="Rectángulo 415855" width="2.244" height="2.244" fill="#fff"/>
    <rect id="Rectángulo_415856" data-name="Rectángulo 415856" width="2.244" height="2.244" transform="translate(0 3.741)" fill="#fff"/>
  </g>
  <path id="Trazado_987047" data-name="Trazado 987047" d="M204.28,296.817l5.078.008V294.58h-5.071Z" transform="translate(-173.715 -250.504)" fill="#1d1d1f"/>
  <g id="Grupo_1125878" data-name="Grupo 1125878" transform="translate(35.437 13.616)">
    <rect id="Rectángulo_415857" data-name="Rectángulo 415857" width="2.244" height="2.244" transform="translate(3.741)" fill="#fff"/>
    <rect id="Rectángulo_415858" data-name="Rectángulo 415858" width="2.244" height="2.244" fill="#fff"/>
    <rect id="Rectángulo_415859" data-name="Rectángulo 415859" width="20.274" height="2.244" transform="translate(7.481)" fill="#fff"/>
  </g>
  <g id="Grupo_1125879" data-name="Grupo 1125879" transform="translate(11.638 13.616)">
    <path id="Trazado_987048" data-name="Trazado 987048" d="M88.144,163.8H83.5V154H77.787l-.007,2.244h3.474v9.793l6.89.007Z" transform="translate(-77.78 -144.574)" fill="#1d1d1f"/>
    <path id="Trazado_987049" data-name="Trazado 987049" d="M88.144,105.895l-1.13-.007V91H77.787l-.007,2.244h6.99v14.88l3.374.007Z" transform="translate(-77.78 -91)" fill="#1d1d1f"/>
    <path id="Trazado_987050" data-name="Trazado 987050" d="M79.134,248.5v4.713H77.787l-.007,2.244h3.6v-4.713h6.758l.007-2.237Z" transform="translate(-77.78 -224.934)" fill="#1d1d1f"/>
    <path id="Trazado_987051" data-name="Trazado 987051" d="M88.144,277.507l-5.992-.007v9.8H77.787l-.007,2.237,6.616.008v-9.8h3.741Z" transform="translate(-77.78 -249.595)" fill="#1d1d1f"/>
    <path id="Trazado_987052" data-name="Trazado 987052" d="M77.833,321.387v2.244h9.576V308.744h.773V306.5H85.165v14.887Z" transform="translate(-77.825 -274.256)" fill="#1d1d1f"/>
  </g>
  <g id="Grupo_1125880" data-name="Grupo 1125880" transform="translate(27.78 60.747)">
    <rect id="Rectángulo_415860" data-name="Rectángulo 415860" width="8.479" height="2.244" fill="#fff"/>
    <rect id="Rectángulo_415861" data-name="Rectángulo 415861" width="2.244" height="2.244" transform="translate(13.714)" fill="#fff"/>
    <rect id="Rectángulo_415862" data-name="Rectángulo 415862" width="2.244" height="2.244" transform="translate(9.974)" fill="#fff"/>
  </g>
  <g id="Grupo_1125881" data-name="Grupo 1125881" transform="translate(56.782 20.074)">
    <path id="Trazado_987053" data-name="Trazado 987053" d="M386.757,134.167H379.5v7.257h7.257Zm-2.244,5.012h-2.768v-2.768h2.768Z" transform="translate(-379.5 -134.167)" fill="#1d1d1f"/>
    <path id="Trazado_987054" data-name="Trazado 987054" d="M386.757,190.5H379.5v7.257h7.257Zm-2.244,5.012h-2.768v-2.768h2.768Z" transform="translate(-379.5 -182.071)" fill="#1d1d1f"/>
    <path id="Trazado_987055" data-name="Trazado 987055" d="M408.244,278.037,406,278.029v9.434l2.244.007Z" transform="translate(-402.035 -256.504)" fill="#1d1d1f"/>
  </g>
</svg>
