<svg xmlns="http://www.w3.org/2000/svg" width="85" height="85" viewBox="0 0 85 85">
  <g id="Grupo_1125834" data-name="Grupo 1125834" transform="translate(-295.986 -1400.493)">
    <rect id="Rectángulo_415770" data-name="Rectángulo 415770" width="85" height="85" transform="translate(295.986 1400.493)" fill="none"/>
    <g id="Grupo_1125833" data-name="Grupo 1125833" transform="translate(307.238 1407.064)">
      <g id="Grupo_1125832" data-name="Grupo 1125832" transform="translate(0 0)">
        <circle id="Elipse_12122" data-name="Elipse 12122" cx="18.333" cy="18.333" r="18.333" transform="translate(24.867 7.862)" fill="#fef0ae"/>
        <circle id="Elipse_12123" data-name="Elipse 12123" cx="18.333" cy="18.333" r="18.333" transform="translate(24.867 7.862)" fill="none" stroke="#000" stroke-linecap="round" stroke-linejoin="round" stroke-miterlimit="10" stroke-width="1"/>
        <g id="Grupo_1125828" data-name="Grupo 1125828" transform="translate(0 0)">
          <path id="Trazado_986958" data-name="Trazado 986958" d="M139.057,13.674v-4.3A1.84,1.84,0,0,0,137.25,7.5H126.771a1.84,1.84,0,0,0-1.807,1.871v4.3h14.093Z" transform="translate(-113.039 -7.5)" fill="#cbe5e8"/>
          <path id="Trazado_986959" data-name="Trazado 986959" d="M132.814,7.5h-6.043a1.84,1.84,0,0,0-1.807,1.871v4.3h6.043v-4.3A1.839,1.839,0,0,1,132.814,7.5Z" transform="translate(-113.039 -7.5)" fill="#a8d3d8"/>
          <path id="Trazado_986960" data-name="Trazado 986960" d="M139.057,13.674v-4.3A1.84,1.84,0,0,0,137.25,7.5H126.771a1.84,1.84,0,0,0-1.807,1.871v4.3h14.093Z" transform="translate(-113.039 -7.5)" fill="none" stroke="#000" stroke-linecap="round" stroke-linejoin="round" stroke-miterlimit="10" stroke-width="1"/>
          <path id="Trazado_986961" data-name="Trazado 986961" d="M42.031,111.016V52.729a3.6,3.6,0,0,1,3.595-3.595H76.378a3.6,3.6,0,0,1,3.595,3.595v58.287a3.6,3.6,0,0,1-3.595,3.595H45.626A3.6,3.6,0,0,1,42.031,111.016Z" transform="translate(-42.031 -43.147)" fill="#7ca1b1"/>
          <path id="Trazado_986962" data-name="Trazado 986962" d="M53.026,111.016V52.729a3.6,3.6,0,0,1,3.595-3.595h-11a3.6,3.6,0,0,0-3.595,3.595v58.287a3.6,3.6,0,0,0,3.595,3.595h11A3.6,3.6,0,0,1,53.026,111.016Z" transform="translate(-42.031 -43.147)" fill="#678d98"/>
          <path id="Trazado_986963" data-name="Trazado 986963" d="M42.031,111.016V52.729a3.6,3.6,0,0,1,3.595-3.595H76.378a3.6,3.6,0,0,1,3.595,3.595v58.287a3.6,3.6,0,0,1-3.595,3.595H45.626A3.6,3.6,0,0,1,42.031,111.016Z" transform="translate(-42.031 -43.147)" fill="none" stroke="#000" stroke-linecap="round" stroke-linejoin="round" stroke-miterlimit="10" stroke-width="1"/>
          <path id="Trazado_986964" data-name="Trazado 986964" d="M101.45,81.66h-27.1a.92.92,0,0,0-.9.935v36.48h28.908V82.6A.92.92,0,0,0,101.45,81.66Z" transform="translate(-68.928 -70.997)" fill="#4f66d0"/>
          <path id="Trazado_986965" data-name="Trazado 986965" d="M74.348,81.66a.92.92,0,0,0-.9.935v36.48h6.478V81.66Z" transform="translate(-68.928 -70.997)" fill="#314dc9"/>
          <path id="Trazado_986966" data-name="Trazado 986966" d="M91.211,81.66H74.348a.92.92,0,0,0-.9.935v36.48h28.908V82.6a.92.92,0,0,0-.9-.935H96.243" transform="translate(-68.928 -70.997)" fill="none" stroke="#000" stroke-linecap="round" stroke-linejoin="round" stroke-miterlimit="10" stroke-width="1"/>
          <rect id="Rectángulo_415812" data-name="Rectángulo 415812" width="28.908" height="9.354" transform="translate(4.517 48.079)" fill="#fe646f"/>
          <rect id="Rectángulo_415813" data-name="Rectángulo 415813" width="6.478" height="9.354" transform="translate(4.517 48.079)" fill="#fd4755"/>
          <path id="Trazado_986967" data-name="Trazado 986967" d="M102.353,341.869H73.445v9.354" transform="translate(-68.928 -293.79)" fill="none" stroke="#000" stroke-linecap="round" stroke-linejoin="round" stroke-miterlimit="10" stroke-width="1"/>
          <path id="Trazado_986968" data-name="Trazado 986968" d="M73.445,406.921v8.491a.863.863,0,0,0,.863.863h27.183a.863.863,0,0,0,.863-.863v-8.491Z" transform="translate(-68.928 -349.489)" fill="#fb2b3a"/>
          <path id="Trazado_986969" data-name="Trazado 986969" d="M73.445,406.921v8.491a.863.863,0,0,0,.863.863h5.616v-9.354Z" transform="translate(-68.928 -349.489)" fill="#e41f2d"/>
          <path id="Trazado_986970" data-name="Trazado 986970" d="M81.577,406.921H73.445v8.491a.863.863,0,0,0,.863.863h27.183a.863.863,0,0,0,.863-.863v-8.491H86.61" transform="translate(-68.928 -349.489)" fill="none" stroke="#000" stroke-linecap="round" stroke-linejoin="round" stroke-miterlimit="10" stroke-width="1"/>
        </g>
        <g id="Grupo_1125831" data-name="Grupo 1125831" transform="translate(29.18 12.175)">
          <g id="Grupo_1125830" data-name="Grupo 1125830">
            <path id="Trazado_986971" data-name="Trazado 986971" d="M267.319,247.115l10.387,12.924a.431.431,0,0,0,.672,0l10.387-12.924a.431.431,0,0,0-.336-.7h-5V219.605a.431.431,0,0,0-.431-.431h-9.922a.431.431,0,0,0-.431.431v26.808h-5A.431.431,0,0,0,267.319,247.115Z" transform="translate(-264.023 -200.913)" fill="#fe646f"/>
            <path id="Trazado_986972" data-name="Trazado 986972" d="M267.319,247.115l10.387,12.924a.431.431,0,0,0,.672,0l10.387-12.924a.431.431,0,0,0-.336-.7h-5V219.605a.431.431,0,0,0-.431-.431h-9.922a.431.431,0,0,0-.431.431v26.808h-5A.431.431,0,0,0,267.319,247.115Z" transform="translate(-264.023 -200.913)" fill="#fe646f"/>
            <path id="Trazado_986973" data-name="Trazado 986973" d="M276.357,297.727V280.67a13.928,13.928,0,0,1-3.706-.974v18.537h-5a.431.431,0,0,0-.336.7l10.387,12.924a.431.431,0,0,0,.672,0l4.465-5.555-6.169-7.676A1.437,1.437,0,0,1,276.357,297.727Z" transform="translate(-264.023 -252.733)" fill="#fd4755"/>
            <path id="Trazado_986974" data-name="Trazado 986974" d="M283.435,237.842V219.605a.431.431,0,0,0-.431-.431h-9.921a.431.431,0,0,0-.431.431v26.808h-5a.431.431,0,0,0-.336.7l10.387,12.924a.431.431,0,0,0,.672,0l10.387-12.924a.431.431,0,0,0-.336-.7h-5v-3.54" transform="translate(-264.023 -200.913)" fill="none" stroke="#000" stroke-linecap="round" stroke-linejoin="round" stroke-miterlimit="10" stroke-width="1"/>
            <g id="Grupo_1125829" data-name="Grupo 1125829">
              <circle id="Elipse_12124" data-name="Elipse 12124" cx="14.019" cy="14.019" r="14.019" transform="translate(0 0)" fill="#fee45a"/>
              <path id="Trazado_986975" data-name="Trazado 986975" d="M251.874,106.193A14.025,14.025,0,0,1,262.441,92.6a14.019,14.019,0,1,0,0,27.181A14.025,14.025,0,0,1,251.874,106.193Z" transform="translate(-244.968 -92.174)" fill="#fed402"/>
              <circle id="Elipse_12125" data-name="Elipse 12125" cx="14.019" cy="14.019" r="14.019" transform="translate(0 0)" fill="none" stroke="#000" stroke-linecap="round" stroke-linejoin="round" stroke-miterlimit="10" stroke-width="1"/>
              <path id="Trazado_986976" data-name="Trazado 986976" d="M324.386,155.478l3.834-6.9h-5.752l3.595-6.9" transform="translate(-311.325 -134.556)" fill="none" stroke="#000" stroke-linecap="round" stroke-linejoin="round" stroke-miterlimit="10" stroke-width="1"/>
            </g>
          </g>
        </g>
      </g>
      <line id="Línea_617" data-name="Línea 617" y1="9.354" transform="translate(33.425 48.079)" fill="none" stroke="#000" stroke-linecap="round" stroke-linejoin="round" stroke-miterlimit="10" stroke-width="1"/>
    </g>
  </g>
</svg>
