<svg xmlns="http://www.w3.org/2000/svg" width="85" height="85" viewBox="0 0 85 85">
  <g id="Grupo_1125837" data-name="Grupo 1125837" transform="translate(-606 -1403.507)">
    <rect id="Rectángulo_415770" data-name="Rectángulo 415770" width="85" height="85" transform="translate(606 1403.507)" fill="none"/>
    <g id="Grupo_1125836" data-name="Grupo 1125836" transform="translate(612.247 1417.81)">
      <g id="Artboard_01" data-name="Artboard 01" transform="translate(1.151 1.151)">
        <path id="Trazado_986977" data-name="Trazado 986977" d="M68.449,55.186V12.6a4.6,4.6,0,0,0-4.6-4.6H8.6A4.6,4.6,0,0,0,4,12.6V55.186Z" transform="translate(-1.698 -8)" fill="#80828b"/>
        <path id="Trazado_986978" data-name="Trazado 986978" d="M65.3,57.056H7.754A5.754,5.754,0,0,1,2,51.3V49H25.017v3.453H48.035V49H71.052v2.3A5.754,5.754,0,0,1,65.3,57.056Z" transform="translate(-2 -1.814)" fill="#aaadb9"/>
        <path id="Trazado_986979" data-name="Trazado 986979" d="M56,49h2.3v3.453H56Z" transform="translate(6.147 -1.814)" fill="#86ee88"/>
        <path id="Trazado_986980" data-name="Trazado 986980" d="M52,49h2.3v3.453H52Z" transform="translate(5.544 -1.814)" fill="#86ee88"/>
        <path id="Trazado_986981" data-name="Trazado 986981" d="M22,49H45.017v3.453H22Z" transform="translate(1.017 -1.814)" fill="#ccced5"/>
        <g id="Grupo_1125835" data-name="Grupo 1125835" transform="translate(6.905)">
          <path id="Trazado_986982" data-name="Trazado 986982" d="M61.884,8H17V35A15.587,15.587,0,0,0,32.585,50.582h33.9V12.6A4.6,4.6,0,0,0,61.884,8Z" transform="translate(-6.642 -8)" fill="#fff" opacity="0.1"/>
          <path id="Trazado_986983" data-name="Trazado 986983" d="M47.13,52.453H24.112V49H8v1.164a4.591,4.591,0,0,0,4.591,4.591H68.97A5.7,5.7,0,0,0,70.147,51.3V49H47.13Z" transform="translate(-8 -1.814)" fill="#fff" opacity="0.2"/>
          <path id="Trazado_986984" data-name="Trazado 986984" d="M60.6,8H25.5a2.877,2.877,0,0,0,2.877,2.877H60.6A1.726,1.726,0,0,1,62.328,12.6V37.923A2.877,2.877,0,0,0,65.205,40.8V12.6A4.6,4.6,0,0,0,60.6,8Z" transform="translate(-5.36 -8)" fill="#fff" opacity="0.1"/>
        </g>
        <path id="Trazado_986985" data-name="Trazado 986985" d="M8,12H63.242V49.979H8Z" transform="translate(-1.095 -7.397)" fill="#76d8ff"/>
        <path id="Trazado_986986" data-name="Trazado 986986" d="M13,20H56.733V44.168H13Z" transform="translate(-0.34 -6.19)" fill="#e2e7f7"/>
        <path id="Trazado_986987" data-name="Trazado 986987" d="M13,16H56.733v4.6H13Z" transform="translate(-0.34 -6.793)" fill="#5490f5"/>
        <path id="Trazado_986988" data-name="Trazado 986988" d="M35.326,23.67,45.964,37.5A1.716,1.716,0,0,1,44.6,40.263H22.717A1.718,1.718,0,0,1,21.356,37.5L31.993,23.67A1.718,1.718,0,0,1,33.355,23h.61a1.718,1.718,0,0,1,1.362.67Z" transform="translate(0.867 -5.737)" fill="#ffd55d"/>
        <path id="Trazado_986989" data-name="Trazado 986989" d="M31,26h2.3v8.056H31Z" transform="translate(2.375 -5.284)" fill="#fff"/>
        <path id="Trazado_986990" data-name="Trazado 986990" d="M31,34h2.3v2.3H31Z" transform="translate(2.375 -4.077)" fill="#fff"/>
      </g>
      <g id="BG" transform="translate(0 0)">
        <path id="Trazado_986991" data-name="Trazado 986991" d="M71.2,54.186H70.052V12.754A5.761,5.761,0,0,0,64.3,7H9.056A5.761,5.761,0,0,0,3.3,12.754V54.186H2.151A1.151,1.151,0,0,0,1,55.337v2.3a6.912,6.912,0,0,0,6.905,6.905H65.449a6.912,6.912,0,0,0,6.905-6.905v-2.3A1.151,1.151,0,0,0,71.2,54.186ZM5.6,12.754A3.453,3.453,0,0,1,9.056,9.3H64.3a3.453,3.453,0,0,1,3.453,3.453V54.186H5.6ZM26.319,56.488H47.035v1.151H26.319Zm43.733,1.151a4.6,4.6,0,0,1-4.6,4.6H7.905a4.6,4.6,0,0,1-4.6-4.6V56.488H24.017v2.3a1.151,1.151,0,0,0,1.151,1.151H48.186a1.151,1.151,0,0,0,1.151-1.151v-2.3H59.694v2.3H62v-2.3h2.3v2.3h2.3v-2.3h3.453Z" transform="translate(-1 -7)"/>
        <path id="Trazado_986992" data-name="Trazado 986992" d="M64.544,50.13V12.151A1.151,1.151,0,0,0,63.393,11H8.151A1.151,1.151,0,0,0,7,12.151V50.13a1.151,1.151,0,0,0,1.151,1.151H63.393A1.151,1.151,0,0,0,64.544,50.13Zm-2.3-1.151H9.3V13.3h52.94Z" transform="translate(-0.095 -6.397)"/>
        <path id="Trazado_986993" data-name="Trazado 986993" d="M13.151,46.074H56.884a1.151,1.151,0,0,0,1.151-1.151V16.151A1.151,1.151,0,0,0,56.884,15H13.151A1.151,1.151,0,0,0,12,16.151V44.923A1.151,1.151,0,0,0,13.151,46.074Zm1.151-2.3V21.905H55.733V43.772ZM55.733,17.3v2.3H14.3V17.3Z" transform="translate(0.66 -5.793)"/>
        <path id="Trazado_986994" data-name="Trazado 986994" d="M36.39,23.12A2.89,2.89,0,0,0,34.115,22h-.61a2.89,2.89,0,0,0-2.274,1.12L20.6,36.948a2.868,2.868,0,0,0,2.273,4.617H44.753a2.868,2.868,0,0,0,2.273-4.617Zm8.363,16.143H22.868a.566.566,0,0,1-.449-.911L33.056,24.523a.575.575,0,0,1,.45-.221h.61a.575.575,0,0,1,.45.221L45.2,38.352a.566.566,0,0,1-.449.911Z" transform="translate(1.867 -4.737)"/>
        <path id="Trazado_986995" data-name="Trazado 986995" d="M31,26h2.3v8.056H31Z" transform="translate(3.526 -4.133)"/>
        <path id="Trazado_986996" data-name="Trazado 986996" d="M31,34h2.3v2.3H31Z" transform="translate(3.526 -2.926)"/>
      </g>
    </g>
  </g>
</svg>
