<svg xmlns="http://www.w3.org/2000/svg" width="83" height="83" viewBox="0 0 83 83">
  <g id="Grupo_1125848" data-name="Grupo 1125848" transform="translate(-922 -1407.507)">
    <rect id="Rectángulo_415770" data-name="Rectángulo 415770" width="83" height="83" transform="translate(922 1407.507)" fill="none"/>
    <g id="Grupo_1125847" data-name="Grupo 1125847" transform="translate(930.358 1416.987)">
      <g id="Grupo_1125846" data-name="Grupo 1125846" transform="translate(1.081 1.015)">
        <g id="Grupo_1125838" data-name="Grupo 1125838" transform="translate(38.856 17.24)">
          <path id="Trazado_986997" data-name="Trazado 986997" d="M330.617,164.744v26.27h-7.979v-26.27h-7.982l11.971-16.028L338.6,164.744Z" transform="translate(-314.657 -148.716)" fill="#00d696" fill-rule="evenodd"/>
        </g>
        <g id="Grupo_1125839" data-name="Grupo 1125839" transform="translate(38.856 17.24)">
          <path id="Trazado_986998" data-name="Trazado 986998" d="M326.628,191.014h-3.989v-26.27h-7.982l11.971-16.028Z" transform="translate(-314.657 -148.716)" fill="#00c78b" fill-rule="evenodd"/>
        </g>
        <g id="Grupo_1125840" data-name="Grupo 1125840" transform="translate(0 17.24)">
          <path id="Trazado_986999" data-name="Trazado 986999" d="M24.961,164.744v26.27H16.982v-26.27H9l11.971-16.028,11.971,16.028Z" transform="translate(-9 -148.716)" fill="#00d696" fill-rule="evenodd"/>
        </g>
        <g id="Grupo_1125841" data-name="Grupo 1125841" transform="translate(0 17.24)">
          <path id="Trazado_987000" data-name="Trazado 987000" d="M20.971,191.014H16.982v-26.27H9l11.971-16.028Z" transform="translate(-9 -148.716)" fill="#00c78b" fill-rule="evenodd"/>
        </g>
        <g id="Grupo_1125842" data-name="Grupo 1125842" transform="translate(19.428 0)">
          <path id="Trazado_987001" data-name="Trazado 987001" d="M177.789,29.121V56.6h-7.978V29.121h-7.982L173.8,13.1l11.971,16.025Z" transform="translate(-161.829 -13.096)" fill="#00d696" fill-rule="evenodd"/>
        </g>
        <g id="Grupo_1125843" data-name="Grupo 1125843" transform="translate(19.428 0)">
          <path id="Trazado_987002" data-name="Trazado 987002" d="M173.8,56.6h-3.989V29.121h-7.982L173.8,13.1Z" transform="translate(-161.829 -13.096)" fill="#00c78b" fill-rule="evenodd"/>
        </g>
        <g id="Grupo_1125844" data-name="Grupo 1125844" transform="translate(7.982 36.121)">
          <path id="Trazado_987003" data-name="Trazado 987003" d="M100.633,303.733a17.418,17.418,0,0,1,2.7,1.123l5.634-3.557,5.6,5.6-3.557,5.634a17.431,17.431,0,0,1,1.122,2.7l6.491,1.466v3.961H71.79V316.7l6.491-1.466a17.418,17.418,0,0,1,1.122-2.7L75.851,306.9l5.6-5.6,5.63,3.557a17.436,17.436,0,0,1,2.7-1.123l1.469-6.491h7.918Z" transform="translate(-71.79 -297.242)" fill="#ff5ba8" fill-rule="evenodd"/>
        </g>
        <g id="Grupo_1125845" data-name="Grupo 1125845" transform="translate(18.187 46.326)">
          <path id="Trazado_987004" data-name="Trazado 987004" d="M161.865,377.973a13.207,13.207,0,0,1,16.629,12.758H152.071A13.21,13.21,0,0,1,161.865,377.973Z" transform="translate(-152.071 -377.519)" fill="#4a4d71" fill-rule="evenodd"/>
        </g>
        <path id="Trazado_987005" data-name="Trazado 987005" d="M236.8,460.452a2.8,2.8,0,1,0,2.8,2.8A2.8,2.8,0,0,0,236.8,460.452Z" transform="translate(-205.397 -403.583)" fill="#ff5ba8"/>
      </g>
      <path id="Trazado_987006" data-name="Trazado 987006" d="M8.53,40.358H1.388a.888.888,0,0,1-.712-1.42L12.724,22.812a.889.889,0,0,1,.712-.357h0a.888.888,0,0,1,.712.357L26.191,38.938a.888.888,0,0,1-.712,1.42H18.337V43.8a.888.888,0,0,1-1.777,0V39.47a.888.888,0,0,1,.888-.888h6.258L13.435,24.828,3.16,38.581H9.418a.888.888,0,0,1,.888.888V58.253a.888.888,0,1,1-1.777,0V40.358Zm12.4-17.348h7.142V38.959a.888.888,0,1,0,1.777,0V22.121a.888.888,0,0,0-.888-.888H22.706L32.981,7.483l10.272,13.75H36.994a.888.888,0,0,0-.888.888V38.959a.888.888,0,1,0,1.777,0V23.01h7.142a.888.888,0,0,0,.712-1.42L33.693,5.468a.888.888,0,0,0-1.423,0L20.222,21.59a.888.888,0,0,0,.711,1.42ZM65.282,38.938,53.238,22.813a.889.889,0,0,0-.711-.357h0a.888.888,0,0,0-.712.357L39.768,38.938a.888.888,0,0,0,.712,1.42h7.142V43.8a.888.888,0,1,0,1.777,0V39.47a.888.888,0,0,0-.888-.888H42.252L52.527,24.828,62.8,38.581H56.54a.888.888,0,0,0-.888.888V58.253a.888.888,0,1,0,1.777,0V40.358h7.142a.888.888,0,0,0,.712-1.42ZM56.736,61.051l-6.044-1.368a18.853,18.853,0,0,0-.794-1.911l3.308-5.242a.888.888,0,0,0-.123-1.1l-5.632-5.635a.888.888,0,0,0-1.1-.123l-5.241,3.311a18.645,18.645,0,0,0-1.911-.794l-1.368-6.044a.888.888,0,0,0-.866-.692H29a.889.889,0,0,0-.866.692l-1.368,6.044a18.665,18.665,0,0,0-1.911.794L19.61,45.67a.888.888,0,0,0-1.1.123l-5.632,5.632a.889.889,0,0,0-.123,1.1l3.308,5.245a18.851,18.851,0,0,0-.791,1.911L9.222,61.051a.888.888,0,0,0-.692.866V65.9a.888.888,0,0,0,1.777,0V62.627l5.842-1.321a.888.888,0,0,0,.65-.6,17.03,17.03,0,0,1,1.07-2.584.888.888,0,0,0-.039-.88l-3.2-5.067,4.628-4.628,5.064,3.2a.889.889,0,0,0,.882.038,16.879,16.879,0,0,1,2.582-1.073.888.888,0,0,0,.6-.65l1.321-5.839h6.547l1.321,5.839a.888.888,0,0,0,.6.65,16.881,16.881,0,0,1,2.582,1.073.889.889,0,0,0,.882-.038l5.064-3.2,4.628,4.631-3.2,5.064a.888.888,0,0,0-.039.88,17.043,17.043,0,0,1,1.073,2.584.888.888,0,0,0,.65.6l5.839,1.321V65.9a.888.888,0,1,0,1.777,0V61.917a.889.889,0,0,0-.693-.866ZM40.068,53.62A14.18,14.18,0,0,0,18.8,65.9a.888.888,0,0,0,.888.888h4.56a.888.888,0,1,0,0-1.777H20.609a12.337,12.337,0,0,1,1.216-4.527l1.1.632a.888.888,0,1,0,.887-1.539l-1.093-.63a12.436,12.436,0,0,1,3.312-3.313l.632,1.094a.888.888,0,1,0,1.538-.889l-.632-1.094a12.369,12.369,0,0,1,2.2-.822,12.523,12.523,0,0,1,2.323-.395V54.8a.888.888,0,1,0,1.777,0V53.524a12.3,12.3,0,0,1,4.525,1.217l-.633,1.1a.888.888,0,1,0,1.538.889l.632-1.094a12.306,12.306,0,0,1,3.319,3.31l-1.1.634a.888.888,0,1,0,.889,1.538l1.1-.633a12.545,12.545,0,0,1,.822,2.209,12.4,12.4,0,0,1,.392,2.318H41.713a.888.888,0,1,0,0,1.777h4.56a.888.888,0,0,0,.888-.891,14.271,14.271,0,0,0-.487-3.665,14.084,14.084,0,0,0-6.606-8.611Zm.267,8.029a.888.888,0,0,1-.324,1.214l-4.1,2.373a3,3,0,1,1-.89-1.538l4.105-2.373a.888.888,0,0,1,1.213.325ZM34.2,65.9a1.223,1.223,0,1,0-1.223,1.223A1.224,1.224,0,0,0,34.2,65.9Z" transform="translate(-0.5 -5.111)"/>
    </g>
  </g>
</svg>
