<svg xmlns="http://www.w3.org/2000/svg" width="85" height="85" viewBox="0 0 85 85">
  <g id="Grupo_1125850" data-name="Grupo 1125850" transform="translate(-1236 -1410.507)">
    <rect id="Rectángulo_415770" data-name="Rectángulo 415770" width="85" height="85" transform="translate(1236 1410.507)" fill="none"/>
    <g id="Grupo_1125849" data-name="Grupo 1125849" transform="translate(1244.549 1419.056)">
      <circle id="Elipse_12126" data-name="Elipse 12126" cx="15.14" cy="15.14" r="15.14" transform="translate(18.811 18.811)" fill="#5ad0ff"/>
      <path id="Trazado_987007" data-name="Trazado 987007" d="M30.046,9.4a15.467,15.467,0,0,1,2.294,7.8A15.275,15.275,0,0,1,17.2,32.34a14.821,14.821,0,0,1-7.8-2.294,15.133,15.133,0,0,0,12.846,7.341,15.275,15.275,0,0,0,15.14-15.14A14.844,14.844,0,0,0,30.046,9.4Z" transform="translate(11.705 11.705)" fill="#36bedd"/>
      <path id="Trazado_987008" data-name="Trazado 987008" d="M24.446,7.7A16.746,16.746,0,1,0,41.192,24.446,16.84,16.84,0,0,0,24.446,7.7Zm11.47,10.093H31.328a31.431,31.431,0,0,0-1.606-5.506A11.222,11.222,0,0,1,35.916,17.793Zm1.835,6.653a13.539,13.539,0,0,1-.459,3.212H31.787c0-1.147.229-2.065.229-3.212a14.107,14.107,0,0,0-.229-3.212h5.506A7.291,7.291,0,0,1,37.751,24.446ZM24.446,37.751c-.918,0-2.523-2.294-3.441-6.653h6.882c-.918,4.359-2.523,6.653-3.441,6.653Zm-3.9-10.093c0-.918-.229-2.065-.229-3.212a14.107,14.107,0,0,1,.229-3.212h8.029c0,.918.229,2.065.229,3.212a14.107,14.107,0,0,1-.229,3.212Zm-9.405-3.212a13.539,13.539,0,0,1,.459-3.212h5.506c0,1.147-.229,2.065-.229,3.212a14.107,14.107,0,0,0,.229,3.212H11.37A14.107,14.107,0,0,1,11.141,24.446ZM24.446,11.141c.918,0,2.523,2.294,3.441,6.653H21.005c.918-4.359,2.523-6.653,3.441-6.653Zm-5.276.918a19.345,19.345,0,0,0-1.606,5.506H12.976a13.245,13.245,0,0,1,6.194-5.506ZM12.976,31.1h4.588A31.431,31.431,0,0,0,19.17,36.6,11.222,11.222,0,0,1,12.976,31.1Zm16.746,5.735a19.345,19.345,0,0,0,1.606-5.506h4.588A13.245,13.245,0,0,1,29.722,36.833Z" transform="translate(9.505 9.505)"/>
      <path id="Trazado_987009" data-name="Trazado 987009" d="M20.358,14.423V6.853l2.523,2.523,2.523-2.523L18.753.2,12.1,6.853l2.523,2.523,2.523-2.523v7.57Z" transform="translate(15.198 -0.2)"/>
      <path id="Trazado_987010" data-name="Trazado 987010" d="M17.147,23.6v7.57l-2.523-2.523L12.1,31.17l6.653,6.653,6.653-6.653-2.523-2.523L20.358,31.17V23.6Z" transform="translate(15.198 30.079)"/>
      <path id="Trazado_987011" data-name="Trazado 987011" d="M28.647,14.623l2.523,2.523H23.6v3.441h7.57l-2.523,2.294,2.523,2.523,6.653-6.653L31.17,12.1Z" transform="translate(30.079 15.198)"/>
      <path id="Trazado_987012" data-name="Trazado 987012" d="M9.376,22.882,6.853,20.588h7.57V17.147H6.853l2.523-2.523L6.853,12.1.2,18.753l6.653,6.653Z" transform="translate(-0.2 15.198)"/>
      <path id="Trazado_987013" data-name="Trazado 987013" d="M32.07,13.576V4.4H22.894V7.841h3.441L20.6,13.576l2.294,2.294,5.735-5.735v3.441Z" transform="translate(26.197 5.235)"/>
      <path id="Trazado_987014" data-name="Trazado 987014" d="M13.576,20.6,7.841,26.335V22.894H4.4V32.07h9.176V28.629H10.135l5.735-5.735Z" transform="translate(5.235 26.197)"/>
      <path id="Trazado_987015" data-name="Trazado 987015" d="M22.894,32.07H32.07V22.894H28.629v3.441L22.894,20.6,20.6,22.894l5.735,5.735H22.894Z" transform="translate(26.197 26.197)"/>
      <path id="Trazado_987016" data-name="Trazado 987016" d="M4.4,13.576H7.841V10.135l5.735,5.735,2.294-2.294L10.135,7.841h3.441V4.4H4.4Z" transform="translate(5.235 5.235)"/>
    </g>
  </g>
</svg>
