<svg xmlns="http://www.w3.org/2000/svg" width="85" height="85" viewBox="0 0 85 85">
  <g id="Grupo_1125788" data-name="Grupo 1125788" transform="translate(-1040.051 -2035)">
    <rect id="Rectángulo_415770" data-name="Rectángulo 415770" width="85" height="85" transform="translate(1040.051 2035)" fill="none"/>
    <g id="Grupo_1125787" data-name="Grupo 1125787" transform="translate(1054.051 2043)">
      <path id="Trazado_986798" data-name="Trazado 986798" d="M153.31,191.813v4.722h-10.6v-4.722a.528.528,0,0,1,.529-.528h9.542A.528.528,0,0,1,153.31,191.813Zm0,0" transform="translate(-123.376 -165.369)" fill="#8e8d8d"/>
      <path id="Trazado_986799" data-name="Trazado 986799" d="M148.633,191.285H143.24a.528.528,0,0,0-.529.528v4.722H148.1v-4.722A.528.528,0,0,1,148.633,191.285Zm0,0" transform="translate(-123.376 -165.369)" fill="#7f7d7d"/>
      <path id="Trazado_986800" data-name="Trazado 986800" d="M145.468,220.467v5.217H131.953v-5.217a.439.439,0,0,1,.439-.439h12.636a.439.439,0,0,1,.439.439Zm0,0" transform="translate(-114.075 -190.218)" fill="#8e8d8d"/>
      <path id="Trazado_986801" data-name="Trazado 986801" d="M137.786,220.027h-5.393a.439.439,0,0,0-.439.439v5.217h5.393v-5.217A.439.439,0,0,1,137.786,220.027Zm0,0" transform="translate(-114.076 -190.217)" fill="#7f7d7d"/>
      <path id="Trazado_986802" data-name="Trazado 986802" d="M301,196.519H286.059V149.245a.992.992,0,0,1,.992-.992H300a.992.992,0,0,1,.992.992v47.273Zm0,0" transform="translate(-247.303 -128.168)" fill="#92e174"/>
      <path id="Trazado_986803" data-name="Trazado 986803" d="M293.246,148.254h-6.2a.992.992,0,0,0-.992.992v47.273h6.2V149.246A.992.992,0,0,1,293.246,148.254Zm0,0" transform="translate(-247.302 -128.168)" fill="#6dd841"/>
      <path id="Trazado_986804" data-name="Trazado 986804" d="M286.059,210.152H301v8.311H286.059Zm0,0" transform="translate(-247.303 -181.68)" fill="#7ace57"/>
      <path id="Trazado_986805" data-name="Trazado 986805" d="M286.059,210.152h6.2v8.311h-6.2Zm0,0" transform="translate(-247.303 -181.68)" fill="#6fc148"/>
      <path id="Trazado_986806" data-name="Trazado 986806" d="M286.059,333.078H301v8.31H286.059Zm0,0" transform="translate(-247.303 -287.951)" fill="#7ace57"/>
      <path id="Trazado_986807" data-name="Trazado 986807" d="M286.059,333.078h6.2v8.31h-6.2Zm0,0" transform="translate(-247.303 -287.951)" fill="#6fc148"/>
      <path id="Trazado_986808" data-name="Trazado 986808" d="M137.018,283.413H120.363V249.257a.491.491,0,0,1,.491-.491h15.673a.491.491,0,0,1,.491.491Zm0,0" transform="translate(-104.056 -215.062)" fill="#f64446"/>
      <path id="Trazado_986809" data-name="Trazado 986809" d="M126.248,248.766h-5.393a.491.491,0,0,0-.491.491v34.156h5.393V249.257A.491.491,0,0,1,126.248,248.766Zm0,0" transform="translate(-104.056 -215.062)" fill="#e01e31"/>
      <path id="Trazado_986810" data-name="Trazado 986810" d="M225.84,398.261h-14V382.588a.975.975,0,0,1,.975-.975h12.054a.975.975,0,0,1,.975.975Zm0,0" transform="translate(-183.136 -329.91)" fill="#1a94fa"/>
      <path id="Trazado_986811" data-name="Trazado 986811" d="M45.138,361.6v18.021H28.484V361.6a1.549,1.549,0,0,1,1.55-1.55H43.588A1.55,1.55,0,0,1,45.138,361.6Zm0,0" transform="translate(-24.625 -311.269)" fill="#fed974"/>
      <path id="Trazado_986812" data-name="Trazado 986812" d="M41.027,360.051H30.034a1.55,1.55,0,0,0-1.55,1.55v18.02h6.3V365.41a.98.98,0,0,1,1.526-.812h0l.907.609.907-.609a28.792,28.792,0,0,0,3.369-2.725,18.769,18.769,0,0,0,1.7-1.824Zm0,0" transform="translate(-24.626 -311.27)" fill="#fcc53a"/>
      <path id="Trazado_986813" data-name="Trazado 986813" d="M292.152,7.5a7.785,7.785,0,0,1,7.785,7.785c0,4.3-7.785,11.285-7.785,11.285s-7.785-6.986-7.785-11.285A7.785,7.785,0,0,1,292.152,7.5Zm0,0" transform="translate(-245.84 -6.487)" fill="#f64446"/>
      <path id="Trazado_986814" data-name="Trazado 986814" d="M290.792,15.288a7.784,7.784,0,0,1,4.572-7.09,7.783,7.783,0,0,0-11,7.09c0,4.3,7.785,11.285,7.785,11.285s1.517-1.362,3.212-3.253C293.22,20.928,290.792,17.69,290.792,15.288Zm0,0" transform="translate(-245.84 -6.487)" fill="#e01e31"/>
      <path id="Trazado_986815" data-name="Trazado 986815" d="M322.6,42.027a3.574,3.574,0,1,1-3.574-3.574A3.574,3.574,0,0,1,322.6,42.027Zm0,0" transform="translate(-272.711 -33.243)" fill="#fff"/>
      <path id="Trazado_986816" data-name="Trazado 986816" d="M133.972,68.3a7.5,7.5,0,0,1,7.5,7.5c0,4.142-7.5,9.122-7.5,9.122s-7.5-4.981-7.5-9.122A7.5,7.5,0,0,1,133.972,68.3Zm0,0" transform="translate(-109.337 -59.051)" fill="#92e174"/>
      <path id="Trazado_986817" data-name="Trazado 986817" d="M131.772,75.8a7.5,7.5,0,0,1,4.85-7.016,7.5,7.5,0,0,0-10.15,7.016c0,4.142,7.5,9.122,7.5,9.122a31.524,31.524,0,0,0,2.65-2.027C134.464,81.066,131.772,78.284,131.772,75.8Zm0,0" transform="translate(-109.338 -59.05)" fill="#6dd841"/>
      <path id="Trazado_986818" data-name="Trazado 986818" d="M162.979,100.046a3.5,3.5,0,1,1-3.5-3.5A3.5,3.5,0,0,1,162.979,100.046Zm0,0" transform="translate(-134.841 -83.463)" fill="#fff"/>
      <path id="Trazado_986819" data-name="Trazado 986819" d="M217.793,381.613h-4.982a.975.975,0,0,0-.975.975v15.674h4.982v-11.83a.8.8,0,0,1,1.247-.665h0l.571.383a.6.6,0,0,0,.673,0l.571-.383a28.755,28.755,0,0,0,3.369-2.726,19.755,19.755,0,0,0,1.371-1.429Zm0,0" transform="translate(-183.136 -329.911)" fill="#0081d8"/>
      <path id="Trazado_986820" data-name="Trazado 986820" d="M224.228,298.688A6.313,6.313,0,0,1,230.541,305c0,3.487-6.313,7.726-6.313,7.726s-6.314-4.24-6.314-7.726A6.313,6.313,0,0,1,224.228,298.688Zm0,0" transform="translate(-188.39 -258.221)" fill="#fed974"/>
      <path id="Trazado_986821" data-name="Trazado 986821" d="M223.557,305a6.311,6.311,0,0,1,3.491-5.646A6.313,6.313,0,0,0,217.91,305c0,3.487,6.314,7.726,6.314,7.726a27.36,27.36,0,0,0,2.823-2.246c-1.681-1.532-3.491-3.614-3.491-5.48Zm0,0" transform="translate(-188.387 -258.22)" fill="#fcc53a"/>
      <path id="Trazado_986822" data-name="Trazado 986822" d="M52.669,280.035a6.314,6.314,0,0,1,6.314,6.314c0,3.487-6.314,7.725-6.314,7.725s-6.314-4.238-6.314-7.725A6.314,6.314,0,0,1,52.669,280.035Zm0,0" transform="translate(-40.075 -242.095)" fill="#1a94fa"/>
      <path id="Trazado_986823" data-name="Trazado 986823" d="M51.639,286.292a6.313,6.313,0,0,1,3.609-5.706,6.313,6.313,0,0,0-8.892,5.763c0,3.487,6.314,7.725,6.314,7.725a27.322,27.322,0,0,0,2.674-2.11c-1.739-1.547-3.7-3.726-3.7-5.672Zm0,0" transform="translate(-40.075 -242.095)" fill="#0081d8"/>
      <path id="Trazado_986824" data-name="Trazado 986824" d="M247.965,325.348a2.594,2.594,0,1,1-2.594,2.593A2.594,2.594,0,0,1,247.965,325.348Zm0,0" transform="translate(-212.127 -281.269)" fill="#fff"/>
      <path id="Trazado_986825" data-name="Trazado 986825" d="M76.254,305.512a2.619,2.619,0,1,1-2.618,2.618A2.618,2.618,0,0,1,76.254,305.512Zm0,0" transform="translate(-63.66 -264.12)" fill="#fff"/>
      <path id="Trazado_986826" data-name="Trazado 986826" d="M73.655,462.835v3.027H67.6v-3.027a3.027,3.027,0,1,1,6.053,0Zm0,0" transform="translate(-58.442 -397.512)" fill="#3dcff3"/>
      <path id="Trazado_986827" data-name="Trazado 986827" d="M71.64,459.982a3.028,3.028,0,0,0-4.038,2.854v3.027h2.022v-3.027a3.028,3.028,0,0,1,2.016-2.854Zm0,0" transform="translate(-58.443 -397.512)" fill="#00bdd1"/>
      <path id="Trazado_986828" data-name="Trazado 986828" d="M56.894,499.022H1.017a1.017,1.017,0,0,1,0-2.034H56.894a1.017,1.017,0,0,1,0,2.034Zm0,0" transform="translate(0 -429.654)" fill="#acacac"/>
      <path id="Trazado_986829" data-name="Trazado 986829" d="M307.941,35.54a4.591,4.591,0,1,0,4.591-4.591A4.6,4.6,0,0,0,307.941,35.54Zm7.148,0a2.557,2.557,0,1,1-2.557-2.557A2.56,2.56,0,0,1,315.089,35.54Zm0,0" transform="translate(-266.22 -26.756)"/>
      <path id="Trazado_986830" data-name="Trazado 986830" d="M157.509,93.562a4.52,4.52,0,1,0-4.52,4.52A4.525,4.525,0,0,0,157.509,93.562Zm-7.005,0a2.486,2.486,0,1,1,2.486,2.486A2.489,2.489,0,0,1,150.5,93.562Zm0,0" transform="translate(-128.354 -76.979)"/>
      <path id="Trazado_986831" data-name="Trazado 986831" d="M241.475,325.062a3.611,3.611,0,1,0-3.611-3.61A3.615,3.615,0,0,0,241.475,325.062Zm0-5.188a1.577,1.577,0,1,1-1.577,1.578A1.579,1.579,0,0,1,241.475,319.874Zm0,0" transform="translate(-205.637 -274.778)"/>
      <path id="Trazado_986832" data-name="Trazado 986832" d="M69.764,298.008a3.635,3.635,0,1,0,3.635,3.635A3.639,3.639,0,0,0,69.764,298.008Zm0,5.237a1.6,1.6,0,1,1,1.6-1.6A1.6,1.6,0,0,1,69.764,303.245Zm0,0" transform="translate(-57.169 -257.633)"/>
      <path id="Trazado_986833" data-name="Trazado 986833" d="M45.749,403.045h1.781a.284.284,0,0,0,.284-.284v-1.407a.284.284,0,0,0-.284-.284H45.749a.283.283,0,0,0-.284.284v1.407A.284.284,0,0,0,45.749,403.045Zm0,0" transform="translate(-39.305 -346.732)"/>
      <path id="Trazado_986834" data-name="Trazado 986834" d="M238.689,410.977h-1.781a.284.284,0,0,0-.284.284v1.407a.284.284,0,0,0,.284.284h1.781a.284.284,0,0,0,.284-.284v-1.407A.284.284,0,0,0,238.689,410.977Zm0,0" transform="translate(-204.566 -355.296)"/>
      <path id="Trazado_986835" data-name="Trazado 986835" d="M277.924,410.977h-1.781a.284.284,0,0,0-.284.284v1.407a.284.284,0,0,0,.284.284h1.781a.283.283,0,0,0,.284-.284v-1.407A.283.283,0,0,0,277.924,410.977Zm0,0" transform="translate(-238.485 -355.296)"/>
      <path id="Trazado_986836" data-name="Trazado 986836" d="M238.689,442.109h-1.781a.284.284,0,0,0-.284.284V443.8a.284.284,0,0,0,.284.284h1.781a.284.284,0,0,0,.284-.284v-1.407A.284.284,0,0,0,238.689,442.109Zm0,0" transform="translate(-204.566 -382.21)"/>
      <path id="Trazado_986837" data-name="Trazado 986837" d="M277.924,442.109h-1.781a.284.284,0,0,0-.284.284V443.8a.284.284,0,0,0,.284.284h1.781a.283.283,0,0,0,.284-.284v-1.407A.283.283,0,0,0,277.924,442.109Zm0,0" transform="translate(-238.485 -382.21)"/>
      <path id="Trazado_986838" data-name="Trazado 986838" d="M238.689,473.246h-1.781a.284.284,0,0,0-.284.284v1.407a.283.283,0,0,0,.284.284h1.781a.284.284,0,0,0,.284-.284V473.53A.284.284,0,0,0,238.689,473.246Zm0,0" transform="translate(-204.566 -409.129)"/>
      <path id="Trazado_986839" data-name="Trazado 986839" d="M277.924,473.246h-1.781a.284.284,0,0,0-.284.284v1.407a.283.283,0,0,0,.284.284h1.781a.283.283,0,0,0,.284-.284V473.53A.283.283,0,0,0,277.924,473.246Zm0,0" transform="translate(-238.485 -409.129)"/>
      <path id="Trazado_986840" data-name="Trazado 986840" d="M119.4,403.045h1.781a.283.283,0,0,0,.284-.284v-1.407a.284.284,0,0,0-.284-.284H119.4a.284.284,0,0,0-.284.284v1.407A.284.284,0,0,0,119.4,403.045Zm0,0" transform="translate(-102.979 -346.732)"/>
      <path id="Trazado_986841" data-name="Trazado 986841" d="M147.746,277.976v-1.407a.284.284,0,0,0-.284-.284h-1.781a.284.284,0,0,0-.284.284v1.407a.284.284,0,0,0,.284.284h1.781A.284.284,0,0,0,147.746,277.976Zm0,0" transform="translate(-125.699 -238.853)"/>
      <path id="Trazado_986842" data-name="Trazado 986842" d="M201.209,278.259h1.781a.284.284,0,0,0,.284-.284v-1.407a.284.284,0,0,0-.284-.284h-1.781a.283.283,0,0,0-.283.284v1.407A.283.283,0,0,0,201.209,278.259Zm0,0" transform="translate(-173.704 -238.853)"/>
      <path id="Trazado_986843" data-name="Trazado 986843" d="M82.576,403.045h1.781a.284.284,0,0,0,.284-.284v-1.407a.284.284,0,0,0-.284-.284H82.576a.283.283,0,0,0-.283.284v1.407A.283.283,0,0,0,82.576,403.045Zm0,0" transform="translate(-71.144 -346.732)"/>
      <path id="Trazado_986844" data-name="Trazado 986844" d="M45.465,430.171a.283.283,0,0,0,.284.283h1.781a.284.284,0,0,0,.284-.283v-1.407a.284.284,0,0,0-.284-.284H45.748a.283.283,0,0,0-.284.284Zm0,0" transform="translate(-39.305 -370.428)"/>
      <path id="Trazado_986845" data-name="Trazado 986845" d="M119.117,430.171a.283.283,0,0,0,.284.283h1.781a.283.283,0,0,0,.284-.283v-1.407a.284.284,0,0,0-.284-.284H119.4a.284.284,0,0,0-.284.284Zm0,0" transform="translate(-102.979 -370.428)"/>
      <path id="Trazado_986846" data-name="Trazado 986846" d="M82.289,430.171a.283.283,0,0,0,.284.283h1.781a.283.283,0,0,0,.283-.283v-1.407a.284.284,0,0,0-.283-.284H82.573a.284.284,0,0,0-.284.284Zm0,0" transform="translate(-71.14 -370.428)"/>
      <path id="Trazado_986847" data-name="Trazado 986847" d="M175.337,298.164a1.017,1.017,0,0,0,1.017-1.017V292.2a1.017,1.017,0,0,0-2.034,0v4.95A1.017,1.017,0,0,0,175.337,298.164Zm0,0" transform="translate(-150.703 -251.73)"/>
      <path id="Trazado_986848" data-name="Trazado 986848" d="M56.894,67.334H54.711V21.5a2.435,2.435,0,0,0-2.432-2.432H48.825c1.872-1.911,4.651-5.054,5.771-7.877a1.017,1.017,0,1,0-1.89-.75c-1.217,3.067-4.869,6.784-6.393,8.25-.723-.694-1.924-1.895-3.118-3.3-2.353-2.762-3.649-5.1-3.649-6.595a6.768,6.768,0,0,1,13.3-1.784A1.017,1.017,0,1,0,54.8,6.483,8.8,8.8,0,0,0,37.511,8.8c0,3.359,3.854,7.8,6.278,10.268H40.172A2.434,2.434,0,0,0,37.74,21.5V39.7a7.331,7.331,0,0,0-3.761-.012V34.128a1.443,1.443,0,0,0-1.441-1.441h-.13V30.249a1.458,1.458,0,0,0-1.456-1.456h0V26.444A1.547,1.547,0,0,0,29.406,24.9H27.615c.466-.385.965-.819,1.466-1.291,2.7-2.539,4.07-4.846,4.07-6.855a8.516,8.516,0,1,0-17.032,0c0,2.01,1.369,4.316,4.07,6.855.5.472,1,.9,1.466,1.291H19.864a1.547,1.547,0,0,0-1.545,1.545v2.349h0a1.458,1.458,0,0,0-1.456,1.456v2.437h-.13a1.443,1.443,0,0,0-1.441,1.441V37.44A7.326,7.326,0,0,0,5.265,44.253a6.324,6.324,0,0,0,1.345,3.51h-1.2a2.57,2.57,0,0,0-2.567,2.567V60.7a1.017,1.017,0,1,0,2.033,0V50.331a.534.534,0,0,1,.533-.533H8.352a26.678,26.678,0,0,0,3.677,3.026,1.017,1.017,0,0,0,1.134,0A26.72,26.72,0,0,0,16.838,49.8h2.126a.534.534,0,0,1,.533.533v17H16.231v-2.01a4.044,4.044,0,1,0-8.088,0v2.01H4.875V64.767a1.017,1.017,0,1,0-2.033,0v2.567H1.017a1.017,1.017,0,0,0,0,2.034H56.894a1.017,1.017,0,0,0,0-2.034ZM18.152,16.753a6.483,6.483,0,1,1,12.965,0c0,2.694-4.258,6.3-6.483,7.887C22.409,23.051,18.152,19.452,18.152,16.753ZM43.647,52.366a2.246,2.246,0,0,0-2.116-1.678,6.757,6.757,0,0,0,1.637-3.908c0-.23-.012-.456-.033-.681h9.542v6.266Zm9.03-16.61h-12.9V29.489h12.9ZM40.172,21.1H52.278a.4.4,0,0,1,.4.4v5.954h-12.9V21.5A.4.4,0,0,1,40.172,21.1Zm-.4,16.7h12.9v6.256H42.641A7.369,7.369,0,0,0,39.773,40.6Zm1.361,8.981c0,1.219-1.168,2.788-2.592,4.194l-.018.017a24.234,24.234,0,0,1-2.687,2.273,24.208,24.208,0,0,1-2.689-2.274l-.015-.015c-1.425-1.406-2.593-2.975-2.593-4.2a5.3,5.3,0,1,1,10.593,0ZM20.352,26.933h8.566v1.86H20.352Zm-1.457,3.894h11.48v1.861H18.895Zm-6.3,19.912a23.618,23.618,0,0,1-3.072-2.66L9.5,48.055c-1.241-1.3-2.2-2.692-2.2-3.8a5.3,5.3,0,1,1,10.593,0c0,1.969-3.045,4.849-5.3,6.484Zm6.369-2.974H18.58a6.323,6.323,0,0,0,1.345-3.51,7.315,7.315,0,0,0-2.6-5.594V34.72H31.945v5.853a7.331,7.331,0,0,0-3.437,6.207,6.753,6.753,0,0,0,1.635,3.9h-.216a2.247,2.247,0,0,0-2.244,2.244v14.4H25.652V48.2a1.017,1.017,0,0,0-2.034,0V67.334H21.53v-17a2.57,2.57,0,0,0-2.567-2.567Zm-8.787,19.57v-2.01a2.01,2.01,0,1,1,4.02,0v2.01Zm19.541,0V52.93a.211.211,0,0,1,.211-.211H32a26.961,26.961,0,0,0,3.27,2.631,1.017,1.017,0,0,0,1.134,0,26.859,26.859,0,0,0,3.27-2.631h1.8a.211.211,0,0,1,.211.211v14.4Zm14,0V54.4h8.956V67.334Zm0,0"/>
    </g>
  </g>
</svg>
