<svg xmlns="http://www.w3.org/2000/svg" width="86.505" height="85.547" viewBox="0 0 86.505 85.547">
  <g id="Layer_x0020_1" transform="translate(0 -24)">
    <path id="Trazado_987056" data-name="Trazado 987056" d="M59.905,101.226v-4.65H54.757a1.022,1.022,0,0,1-1.018-1.018V90.67H44.26v6.066c4.769,1.177,3.971,8.321-1.018,8.321-4.969,0-5.767-7.144-1-8.321V90.67H32.766v4.889a1.022,1.022,0,0,1-1.018,1.018H26.6v4.65c4.749,1.177,3.971,8.321-1.018,8.321s-5.767-7.144-1.018-8.321V95.559a1.022,1.022,0,0,1,1.018-1.018h5.148V90.67h-8.3A3.543,3.543,0,0,1,18.9,87.118v-9H15.006v5.168a1,1,0,0,1-1.018,1H8.321C7.144,89.053,0,88.255,0,83.286,0,78.4,7.124,77.44,8.321,82.269h4.65V77.12A1.022,1.022,0,0,1,13.988,76.1H18.9V66.624H12.831c-1.177,4.769-8.341,3.991-8.341-1,0-4.969,7.144-5.767,8.321-1.038H18.9V55.13H13.988a1.022,1.022,0,0,1-1.018-1.018V48.964H8.321C7.144,53.713,0,52.935,0,47.946c0-4.969,7.144-5.767,8.321-1.018h5.667a1.022,1.022,0,0,1,1.018,1.018v5.168H18.9V46.449A3.543,3.543,0,0,1,22.429,42.9h8.3V39.006H25.582a1.022,1.022,0,0,1-1.018-1.018V32.321C19.736,31.124,20.693,24,25.582,24c4.989,0,5.767,7.144,1.018,8.321v4.65h5.148a1.022,1.022,0,0,1,1.018,1.018V42.9h9.479V36.831c-4.769-1.177-3.971-8.321,1-8.321,4.989,0,5.787,7.144,1.018,8.321V42.9h9.479V37.988a1.022,1.022,0,0,1,1.018-1.018h5.148v-4.65C55.156,31.144,55.934,24,60.923,24c4.889,0,5.847,7.124,1.018,8.321v5.667a1.022,1.022,0,0,1-1.018,1.018H55.774V42.9h8.3a3.543,3.543,0,0,1,3.532,3.552v6.665H71.5V47.946a1.022,1.022,0,0,1,1.018-1.018h5.667c1.177-4.749,8.321-3.951,8.321,1.018,0,4.989-7.144,5.767-8.321,1.018h-4.65v5.148a1.022,1.022,0,0,1-1.018,1.018H67.608v9.459h6.086c1.177-4.729,8.321-3.931,8.321,1.038s-7.184,5.767-8.341,1H67.608V76.1h4.909a1.022,1.022,0,0,1,1.018,1.018v5.148h4.65c1.2-4.829,8.321-3.871,8.321,1.018,0,4.969-7.164,5.767-8.321,1H72.517a1,1,0,0,1-1.018-1V78.118H67.608v9a3.543,3.543,0,0,1-3.532,3.552h-8.3v3.871h5.148a1.022,1.022,0,0,1,1.018,1.018v5.667c4.749,1.177,3.971,8.321-1.018,8.321S55.156,102.4,59.905,101.226ZM53.3,80.114H50.566v4.65a1.018,1.018,0,0,1-2.035,0v-4.65H44.26v4.65a1.008,1.008,0,0,1-2.015,0v-4.65h-4.29v4.65a1.008,1.008,0,0,1-2.015,0v-4.65H33.205a3.53,3.53,0,0,1-3.552-3.532V74.087H25a1.019,1.019,0,0,1,0-2.035h4.65v-4.27H25a1.008,1.008,0,0,1,0-2.015h4.65v-4.29H25a1.008,1.008,0,0,1,0-2.015h4.65V56.966a3.543,3.543,0,0,1,3.552-3.532h2.734v-4.65a1.008,1.008,0,0,1,2.015,0v4.65h4.29v-4.65a1.008,1.008,0,0,1,2.015,0v4.65h4.27v-4.65a1.018,1.018,0,0,1,2.035,0v4.65H53.3a3.543,3.543,0,0,1,3.552,3.532V59.46H61.5a1.008,1.008,0,0,1,0,2.015h-4.65v4.29H61.5a1.008,1.008,0,0,1,0,2.015h-4.65v4.27H61.5a1.019,1.019,0,0,1,0,2.035h-4.65v2.494A3.543,3.543,0,0,1,53.3,80.114ZM33.205,55.449a1.5,1.5,0,0,0-1.517,1.517V76.582A1.5,1.5,0,0,0,33.205,78.1H53.3a1.5,1.5,0,0,0,1.517-1.517V56.966A1.5,1.5,0,0,0,53.3,55.449Zm14.328,18.5H38.992a3.032,3.032,0,0,1-3.033-3.033V62.633A3.032,3.032,0,0,1,38.992,59.6h8.541a3.045,3.045,0,0,1,3.033,3.033v8.281A3.045,3.045,0,0,1,47.533,73.947ZM38.972,61.615a1.022,1.022,0,0,0-1.018,1.018v8.281a1.022,1.022,0,0,0,1.018,1.018h8.541a1.022,1.022,0,0,0,1.018-1.018V62.633a1.022,1.022,0,0,0-1.018-1.018Zm-16.543-16.7a1.516,1.516,0,0,0-1.517,1.517V87.1a1.516,1.516,0,0,0,1.517,1.517H64.076A1.516,1.516,0,0,0,65.592,87.1V46.429a1.516,1.516,0,0,0-1.517-1.517ZM43.243,30.525a2.2,2.2,0,0,0,0,4.39A2.2,2.2,0,0,0,43.243,30.525Zm17.68-4.51a2.2,2.2,0,0,0,.02,4.39C63.856,30.426,63.756,26.015,60.923,26.015Zm-35.34,0c-2.933,0-2.854,4.49,0,4.39A2.2,2.2,0,0,0,25.582,26.015Zm52.2,37.4a2.2,2.2,0,0,0,0,4.39A2.2,2.2,0,0,0,77.785,63.411Zm4.49,17.68a2.2,2.2,0,0,0,0,4.39C85.228,85.481,85.108,81.091,82.275,81.091Zm0-35.36a2.205,2.205,0,0,0,0,4.41C85.168,50.141,85.148,45.731,82.275,45.731ZM8.72,63.411a2.2,2.2,0,0,0,0,4.39A2.2,2.2,0,0,0,8.72,63.411ZM4.23,45.731a2.205,2.205,0,0,0,0,4.41A2.205,2.205,0,0,0,4.23,45.731Zm0,35.36c-2.834,0-2.953,4.39,0,4.39A2.2,2.2,0,0,0,4.23,81.091ZM43.243,98.612c-2.874,0-2.874,4.41,0,4.41A2.205,2.205,0,0,0,43.243,98.612Zm-17.66,4.51a2.205,2.205,0,0,0,0,4.41C28.456,107.532,28.456,103.122,25.582,103.122Zm35.34,0c-2.874,0-2.874,4.41,0,4.41A2.205,2.205,0,0,0,60.923,103.122Z" fill-rule="evenodd"/>
    <path id="Trazado_987057" data-name="Trazado 987057" d="M1083.939,1086.547h4.65a1.008,1.008,0,0,1,0,2.016h-4.65v4.29h4.65a1.008,1.008,0,0,1,0,2.016h-4.65v4.27h4.65a1.019,1.019,0,0,1,0,2.035h-4.65v2.494a3.543,3.543,0,0,1-3.552,3.532h-2.734v4.65a1.018,1.018,0,0,1-2.036,0v-4.65h-4.27v4.65a1.008,1.008,0,0,1-2.015,0v-4.65h-4.291v4.65a1.008,1.008,0,0,1-2.015,0v-4.65h-2.734a3.53,3.53,0,0,1-3.552-3.532v-2.494h-4.65a1.019,1.019,0,0,1,0-2.035h4.65v-4.27h-4.65a1.008,1.008,0,0,1,0-2.016h4.65v-4.29h-4.65a1.008,1.008,0,0,1,0-2.016h4.65v-2.494a3.543,3.543,0,0,1,3.552-3.532h2.734v-4.65a1.008,1.008,0,0,1,2.015,0v4.65h4.291v-4.65a1.008,1.008,0,0,1,2.015,0v4.65h4.27v-4.65a1.018,1.018,0,0,1,2.036,0v4.65h2.734a3.543,3.543,0,0,1,3.552,3.532Zm-34.422,29.154h41.646a1.516,1.516,0,0,0,1.516-1.517v-40.668a1.516,1.516,0,0,0-1.516-1.517h-41.646a1.516,1.516,0,0,0-1.517,1.517v40.668A1.516,1.516,0,0,0,1049.517,1115.7Z" transform="translate(-1027.087 -1027.087)" fill="#838383" fill-rule="evenodd"/>
    <path id="Trazado_987058" data-name="Trazado 987058" d="M1611.128,1621.132v-19.616a1.5,1.5,0,0,0-1.517-1.517h-20.095a1.5,1.5,0,0,0-1.517,1.517v19.616a1.5,1.5,0,0,0,1.517,1.517h20.095A1.5,1.5,0,0,0,1611.128,1621.132Zm-4.25-13.949v8.281a3.045,3.045,0,0,1-3.033,3.033H1595.3a3.032,3.032,0,0,1-3.033-3.033v-8.281a3.032,3.032,0,0,1,3.033-3.033h8.541A3.044,3.044,0,0,1,1606.877,1607.184Z" transform="translate(-1556.311 -1544.551)" fill="#f6f1f1" fill-rule="evenodd"/>
    <path id="Trazado_987059" data-name="Trazado 987059" d="M1912.576,1918.3v-8.281a1.022,1.022,0,0,0-1.018-1.018h-8.541a1.022,1.022,0,0,0-1.018,1.018v8.281a1.022,1.022,0,0,0,1.018,1.018h8.541A1.022,1.022,0,0,0,1912.576,1918.3Z" transform="translate(-1864.045 -1847.385)" fill="#838383" fill-rule="evenodd"/>
    <g id="Grupo_1125883" data-name="Grupo 1125883" transform="translate(2.06 26.015)">
      <path id="Trazado_987060" data-name="Trazado 987060" d="M330.42,2003.39a2.2,2.2,0,0,0,0-4.39A2.2,2.2,0,0,0,330.42,2003.39Z" transform="translate(-323.76 -1961.604)" fill="#da4a54" fill-rule="evenodd"/>
      <path id="Trazado_987061" data-name="Trazado 987061" d="M105.42,1117.41a2.205,2.205,0,0,0,0-4.41A2.205,2.205,0,0,0,105.42,1117.41Z" transform="translate(-103.25 -1093.284)" fill="#da4a54" fill-rule="evenodd"/>
      <path id="Trazado_987062" data-name="Trazado 987062" d="M105.409,2885c-2.834,0-2.953,4.39,0,4.39A2.2,2.2,0,0,0,105.409,2885Z" transform="translate(-103.238 -2829.924)" fill="#da4a54" fill-rule="evenodd"/>
      <path id="Trazado_987063" data-name="Trazado 987063" d="M1175.42,3989a2.205,2.205,0,0,0,0,4.41C1178.294,3993.41,1178.294,3989,1175.42,3989Z" transform="translate(-1151.898 -3911.894)" fill="#da4a54" fill-rule="evenodd"/>
      <path id="Trazado_987064" data-name="Trazado 987064" d="M2061.155,3763c-2.873,0-2.873,4.41,0,4.41A2.205,2.205,0,0,0,2061.155,3763Z" transform="translate(-2019.972 -3690.403)" fill="#da4a54" fill-rule="evenodd"/>
      <path id="Trazado_987065" data-name="Trazado 987065" d="M2947.155,3989c-2.874,0-2.874,4.41,0,4.41A2.205,2.205,0,0,0,2947.155,3989Z" transform="translate(-2888.292 -3911.894)" fill="#da4a54" fill-rule="evenodd"/>
      <path id="Trazado_987066" data-name="Trazado 987066" d="M4017.155,2889.39c2.954,0,2.833-4.39,0-4.39A2.2,2.2,0,0,0,4017.155,2889.39Z" transform="translate(-3936.94 -2829.924)" fill="#da4a54" fill-rule="evenodd"/>
      <path id="Trazado_987067" data-name="Trazado 987067" d="M3792.155,2003.39a2.2,2.2,0,0,0,0-4.39A2.2,2.2,0,0,0,3792.155,2003.39Z" transform="translate(-3716.43 -1961.604)" fill="#da4a54" fill-rule="evenodd"/>
      <path id="Trazado_987068" data-name="Trazado 987068" d="M4016.42,1117.41c2.894,0,2.874-4.41,0-4.41A2.205,2.205,0,0,0,4016.42,1117.41Z" transform="translate(-3936.205 -1093.284)" fill="#da4a54" fill-rule="evenodd"/>
      <path id="Trazado_987069" data-name="Trazado 987069" d="M2946.93,129.39c2.914.02,2.814-4.39-.02-4.39A2.2,2.2,0,0,0,2946.93,129.39Z" transform="translate(-2888.047 -125)" fill="#da4a54" fill-rule="evenodd"/>
      <path id="Trazado_987070" data-name="Trazado 987070" d="M2061.155,355.39a2.2,2.2,0,0,0,0-4.39A2.2,2.2,0,0,0,2061.155,355.39Z" transform="translate(-2019.972 -346.49)" fill="#da4a54" fill-rule="evenodd"/>
      <path id="Trazado_987071" data-name="Trazado 987071" d="M1175.415,129.39a2.2,2.2,0,0,0,0-4.39C1172.482,125,1172.561,129.49,1175.415,129.39Z" transform="translate(-1151.893 -125)" fill="#da4a54" fill-rule="evenodd"/>
    </g>
  </g>
</svg>
