<svg xmlns="http://www.w3.org/2000/svg" width="60.253" height="60.261" viewBox="0 0 60.253 60.261">
  <g id="Colored_Line" data-name="Colored Line" transform="translate(-2.018 -2)">
    <path id="Trazado_986849" data-name="Trazado 986849" d="M37.918,23.671c-.535,0-.972-.667-.972-1.49V10.023c0-.823.437-1.49.972-1.49s.972.667.972,1.49V22.181C38.89,23,38.455,23.671,37.918,23.671Z" transform="translate(-17.954 -3.358)" fill="#d3d6d8"/>
    <path id="Trazado_986850" data-name="Trazado 986850" d="M37.4,23.643c-.817,0-1.458-.868-1.458-1.976V9.509c0-1.109.641-1.976,1.458-1.976s1.458.868,1.458,1.976V21.667C38.862,22.777,38.222,23.643,37.4,23.643Zm0-15.137c-.194,0-.486.4-.486,1V21.667c0,.6.292,1,.486,1s.486-.4.486-1V9.509C37.89,8.906,37.6,8.506,37.4,8.506Z" transform="translate(-17.44 -2.844)" fill="#13243d"/>
    <path id="Trazado_986851" data-name="Trazado 986851" d="M62.972,27.474A1.161,1.161,0,0,1,62,26.192V10.759a1.009,1.009,0,1,1,1.944,0V26.192A1.161,1.161,0,0,1,62.972,27.474Z" transform="translate(-30.832 -3.843)" fill="#d3d6d8"/>
    <path id="Trazado_986852" data-name="Trazado 986852" d="M62.458,27.446A1.638,1.638,0,0,1,61,25.678V10.245a1.485,1.485,0,1,1,2.916,0V25.678A1.638,1.638,0,0,1,62.458,27.446Zm0-18c-.23,0-.486.327-.486.8V25.678c0,.469.256.8.486.8s.486-.327.486-.8V10.245C62.944,9.776,62.688,9.449,62.458,9.449Z" transform="translate(-30.318 -3.329)" fill="#13243d"/>
    <path id="Trazado_986853" data-name="Trazado 986853" d="M88.027,23.712a.972.972,0,0,1-.972-.972V10.926a.972.972,0,1,1,1.944,0V22.74A.972.972,0,0,1,88.027,23.712Z" transform="translate(-43.711 -4.089)" fill="#d3d6d8"/>
    <path id="Trazado_986854" data-name="Trazado 986854" d="M87.513,23.684a1.458,1.458,0,0,1-1.458-1.458V10.412a1.458,1.458,0,1,1,2.916,0V22.226A1.458,1.458,0,0,1,87.513,23.684Zm0-13.758a.486.486,0,0,0-.486.486V22.226a.486.486,0,1,0,.972,0V10.412A.486.486,0,0,0,87.513,9.926Z" transform="translate(-43.197 -3.574)" fill="#13243d"/>
    <path id="Trazado_986855" data-name="Trazado 986855" d="M37.918,103.475c-.535,0-.972-.636-.972-1.42V90.474c0-.784.437-1.42.972-1.42s.972.636.972,1.42v11.581C38.89,102.839,38.455,103.475,37.918,103.475Z" transform="translate(-17.954 -44.748)" fill="#d3d6d8"/>
    <path id="Trazado_986856" data-name="Trazado 986856" d="M37.4,103.447c-.817,0-1.458-.837-1.458-1.906V89.96c0-1.069.641-1.906,1.458-1.906s1.458.837,1.458,1.906v11.581C38.862,102.61,38.222,103.447,37.4,103.447Zm0-14.421c-.2,0-.486.364-.486.934v11.581c0,.57.288.934.486.934s.486-.364.486-.934V89.96C37.89,89.388,37.6,89.026,37.4,89.026Z" transform="translate(-17.44 -44.234)" fill="#13243d"/>
    <path id="Trazado_986857" data-name="Trazado 986857" d="M62.972,99.487A1.161,1.161,0,0,1,62,98.206V82.777a1.009,1.009,0,1,1,1.944,0V98.206A1.161,1.161,0,0,1,62.972,99.487Z" transform="translate(-30.832 -40.862)" fill="#d3d6d8"/>
    <path id="Trazado_986858" data-name="Trazado 986858" d="M62.458,99.459A1.637,1.637,0,0,1,61,97.692V82.262a1.485,1.485,0,1,1,2.916,0v15.43A1.637,1.637,0,0,1,62.458,99.459Zm0-17.99c-.23,0-.486.326-.486.8v15.43c0,.469.256.8.486.8s.486-.327.486-.8V82.262C62.944,81.793,62.688,81.469,62.458,81.469Z" transform="translate(-30.318 -40.348)" fill="#13243d"/>
    <path id="Trazado_986859" data-name="Trazado 986859" d="M88.027,103.488c-.537,0-.972-.615-.972-1.374V90.909c0-.759.435-1.374.972-1.374S89,90.15,89,90.909v11.206C89,102.873,88.563,103.488,88.027,103.488Z" transform="translate(-43.711 -44.995)" fill="#d3d6d8"/>
    <path id="Trazado_986860" data-name="Trazado 986860" d="M87.513,103.46a1.677,1.677,0,0,1-1.458-1.86V90.395a1.5,1.5,0,1,1,2.916,0V101.6A1.677,1.677,0,0,1,87.513,103.46Zm0-13.953c-.225,0-.486.389-.486.888V101.6c0,.5.261.888.486.888S88,102.1,88,101.6V90.395C88,89.894,87.738,89.507,87.513,89.507Z" transform="translate(-43.197 -44.481)" fill="#13243d"/>
    <path id="Trazado_986861" data-name="Trazado 986861" d="M101.975,38.891H89.886c-.819,0-1.483-.437-1.483-.972s.664-.972,1.483-.972h12.089c.818,0,1.482.435,1.482.972S102.793,38.891,101.975,38.891Z" transform="translate(-44.404 -17.964)" fill="#d3d6d8"/>
    <path id="Trazado_986862" data-name="Trazado 986862" d="M101.461,38.863H89.371c-1.1,0-1.968-.641-1.968-1.458s.865-1.458,1.968-1.458h12.09c1.1,0,1.968.64,1.968,1.458S102.564,38.863,101.461,38.863Zm-12.09-1.944c-.6,0-1,.292-1,.486s.4.486,1,.486h12.09c.6,0,1-.292,1-.486s-.4-.486-1-.486Z" transform="translate(-43.89 -17.449)" fill="#13243d"/>
    <path id="Trazado_986863" data-name="Trazado 986863" d="M98.14,63.944h-16c-.734,0-1.329-.435-1.329-.972S81.409,62,82.143,62h16c.734,0,1.329.437,1.329.972S98.874,63.944,98.14,63.944Z" transform="translate(-40.503 -30.841)" fill="#d3d6d8"/>
    <path id="Trazado_986864" data-name="Trazado 986864" d="M97.626,63.916h-16a1.493,1.493,0,1,1,0-2.916h16a1.493,1.493,0,1,1,0,2.916Zm-16-1.944c-.482,0-.843.257-.843.486s.361.486.843.486h16c.482,0,.843-.257.843-.486s-.361-.486-.843-.486Z" transform="translate(-39.988 -30.327)" fill="#13243d"/>
    <path id="Trazado_986865" data-name="Trazado 986865" d="M102.049,89H90.428C89.641,89,89,88.563,89,88.026s.638-.972,1.425-.972h11.621c.787,0,1.425.437,1.425.972S102.836,89,102.049,89Z" transform="translate(-44.712 -43.72)" fill="#d3d6d8"/>
    <path id="Trazado_986866" data-name="Trazado 986866" d="M101.535,88.97H89.914c-1.072,0-1.911-.64-1.911-1.458s.839-1.458,1.911-1.458h11.621c1.069,0,1.911.64,1.911,1.458S102.607,88.97,101.535,88.97ZM89.914,87.026c-.573,0-.939.288-.939.486s.366.486.939.486h11.621c.573,0,.939-.288.939-.486s-.366-.486-.939-.486Z" transform="translate(-44.198 -43.206)" fill="#13243d"/>
    <path id="Trazado_986867" data-name="Trazado 986867" d="M22.216,38.891H10.28c-.808,0-1.463-.437-1.463-.972s.655-.972,1.463-.972H22.216c.809,0,1.464.435,1.464.972S23.025,38.891,22.216,38.891Z" transform="translate(-3.495 -17.964)" fill="#d3d6d8"/>
    <path id="Trazado_986868" data-name="Trazado 986868" d="M21.7,38.863H9.766c-1.093,0-1.95-.641-1.95-1.458s.856-1.458,1.95-1.458H21.7c1.093,0,1.949.64,1.949,1.458S22.8,38.863,21.7,38.863ZM9.766,36.919c-.588,0-.978.292-.978.486s.389.486.978.486H21.7c.588,0,.977-.292.977-.486s-.389-.486-.977-.486Z" transform="translate(-2.98 -17.449)" fill="#13243d"/>
    <path id="Trazado_986869" data-name="Trazado 986869" d="M26.056,63.944H9.44c-.763,0-1.381-.435-1.381-.972S8.677,62,9.44,62H26.06c.762,0,1.38.437,1.38.972S26.818,63.944,26.056,63.944Z" transform="translate(-3.105 -30.841)" fill="#d3d6d8"/>
    <path id="Trazado_986870" data-name="Trazado 986870" d="M25.542,63.916H8.926a1.5,1.5,0,1,1,0-2.916h16.62a1.5,1.5,0,1,1,0,2.916ZM8.926,61.972c-.5,0-.894.261-.894.486s.389.486.894.486h16.62c.5,0,.894-.261.894-.486s-.389-.486-.894-.486Z" transform="translate(-2.592 -30.327)" fill="#13243d"/>
    <path id="Trazado_986871" data-name="Trazado 986871" d="M22.108,89H9.482c-.855,0-1.548-.435-1.548-.972s.693-.972,1.548-.972H22.108c.855,0,1.548.437,1.548.972S22.961,89,22.108,89Z" transform="translate(-3.041 -43.72)" fill="#d3d6d8"/>
    <path id="Trazado_986872" data-name="Trazado 986872" d="M21.595,88.97H8.969c-1.141,0-2.034-.64-2.034-1.458s.893-1.458,2.034-1.458H21.595c1.14,0,2.034.64,2.034,1.458S22.733,88.97,21.595,88.97ZM8.97,87.026c-.638,0-1.062.292-1.062.486S8.332,88,8.97,88H21.595c.638,0,1.062-.292,1.062-.486s-.424-.486-1.062-.486Z" transform="translate(-2.527 -43.206)" fill="#13243d"/>
    <path id="Trazado_986873" data-name="Trazado 986873" d="M59.272,47.687a3.732,3.732,0,0,0,3.738,3.729.406.406,0,0,0,.1-.008v9.914a1.794,1.794,0,0,1-1.79,1.79H51.365v-.049a3.734,3.734,0,1,0-7.468,0v.049H34.051a1.794,1.794,0,0,1-1.79-1.79v-9.9a3.73,3.73,0,1,0,0-7.46v-9.9a1.794,1.794,0,0,1,1.79-1.79H43.9v.049a3.734,3.734,0,0,0,7.468,0v-.049H61.32a1.794,1.794,0,0,1,1.79,1.79v9.914a.406.406,0,0,0-.1-.008,3.732,3.732,0,0,0-3.741,3.727Z" transform="translate(-15.546 -15.556)" fill="#fbb969"/>
    <path id="Trazado_986874" data-name="Trazado 986874" d="M60.806,63.085H50.851a.486.486,0,0,1-.486-.486V62.55a3.248,3.248,0,1,0-6.5,0V62.6a.486.486,0,0,1-.486.486H33.537a2.279,2.279,0,0,1-2.276-2.276V50.9a.486.486,0,0,1,.486-.486,3.243,3.243,0,0,0,0-6.487.486.486,0,0,1-.486-.486v-9.9a2.279,2.279,0,0,1,2.276-2.276h9.846a.486.486,0,0,1,.486.486V31.8a3.248,3.248,0,0,0,6.5,0V31.75a.486.486,0,0,1,.486-.486h9.954a2.279,2.279,0,0,1,2.276,2.276v9.914a.486.486,0,0,1-.6.472,3.246,3.246,0,0,0,.015,6.493.469.469,0,0,1,.408.093.486.486,0,0,1,.178.385v9.914a2.279,2.279,0,0,1-2.276,2.273Zm-9.491-.972h9.491a1.306,1.306,0,0,0,1.3-1.3V51.372a4.215,4.215,0,0,1,0-8.4V33.54a1.306,1.306,0,0,0-1.3-1.3H51.315a4.22,4.22,0,0,1-8.395,0H33.537a1.306,1.306,0,0,0-1.3,1.3v9.446a4.216,4.216,0,0,1,0,8.375v9.446a1.306,1.306,0,0,0,1.3,1.3H42.92a4.22,4.22,0,0,1,8.395,0Z" transform="translate(-15.032 -15.042)" fill="#13243d"/>
    <path id="Trazado_986875" data-name="Trazado 986875" d="M58.337,63.337a7.619,7.619,0,0,0-13.17,0H40.282V58.366a7.625,7.625,0,0,0,0-13.11V40.285h4.891a7.62,7.62,0,0,0,13.17,0h4.991V45.2a7.621,7.621,0,0,0,0,13.231v4.911Z" transform="translate(-19.669 -19.679)" fill="#f7b267"/>
    <path id="Trazado_986876" data-name="Trazado 986876" d="M62.821,63.309h-5a.486.486,0,0,1-.42-.243,7.133,7.133,0,0,0-12.333,0,.486.486,0,0,1-.419.24H39.768a.486.486,0,0,1-.486-.486V57.852a.486.486,0,0,1,.237-.417,7.14,7.14,0,0,0,0-12.276.486.486,0,0,1-.237-.417V39.771a.486.486,0,0,1,.486-.486H44.66a.486.486,0,0,1,.419.243,7.133,7.133,0,0,0,12.333,0,.486.486,0,0,1,.419-.243h4.99a.486.486,0,0,1,.486.486v4.911a.486.486,0,0,1-.243.421,7.134,7.134,0,0,0,0,12.388.486.486,0,0,1,.243.422v4.911A.486.486,0,0,1,62.821,63.309ZM58.1,62.337h4.239v-4.15a8.1,8.1,0,0,1,0-13.781v-4.15H58.109a8.1,8.1,0,0,1-13.718,0H40.26v4.215a8.11,8.11,0,0,1,0,13.65v4.215h4.124a8.1,8.1,0,0,1,13.713,0Z" transform="translate(-19.155 -19.165)" fill="#13243d"/>
    <path id="Trazado_986877" data-name="Trazado 986877" d="M38.765,6.148A3.143,3.143,0,1,1,35.627,3a3.143,3.143,0,0,1,3.138,3.148Z" transform="translate(-15.658 -0.514)" fill="#e53d54"/>
    <path id="Trazado_986878" data-name="Trazado 986878" d="M35.1,9.267a3.634,3.634,0,1,1,3.624-3.634A3.634,3.634,0,0,1,35.1,9.267Zm0-6.3a2.662,2.662,0,1,0,2.652,2.662A2.662,2.662,0,0,0,35.1,2.972Z" transform="translate(-15.133 0)" fill="#13243d"/>
    <path id="Trazado_986879" data-name="Trazado 986879" d="M63.819,6.148A3.143,3.143,0,1,1,60.681,3a3.143,3.143,0,0,1,3.138,3.148Z" transform="translate(-28.536 -0.514)" fill="#e53d54"/>
    <path id="Trazado_986880" data-name="Trazado 986880" d="M60.157,9.267a3.634,3.634,0,1,1,3.624-3.634,3.634,3.634,0,0,1-3.624,3.634Zm0-6.3a2.662,2.662,0,1,0,2.652,2.662A2.662,2.662,0,0,0,60.157,2.972Z" transform="translate(-28.012)" fill="#13243d"/>
    <path id="Trazado_986881" data-name="Trazado 986881" d="M88.873,6.148A3.143,3.143,0,1,1,85.735,3a3.143,3.143,0,0,1,3.138,3.148Z" transform="translate(-41.414 -0.514)" fill="#e53d54"/>
    <path id="Trazado_986882" data-name="Trazado 986882" d="M85.21,9.267a3.634,3.634,0,1,1,3.624-3.634A3.634,3.634,0,0,1,85.21,9.267Zm0-6.3a2.662,2.662,0,1,0,2.652,2.662A2.662,2.662,0,0,0,85.21,2.972Z" transform="translate(-40.89 0)" fill="#13243d"/>
    <path id="Trazado_986883" data-name="Trazado 986883" d="M38.765,115.2a3.143,3.143,0,1,0-3.138,3.148,3.143,3.143,0,0,0,3.138-3.148Z" transform="translate(-15.658 -56.576)" fill="#e53d54"/>
    <path id="Trazado_986884" data-name="Trazado 986884" d="M35.1,118.312a3.634,3.634,0,1,1,3.624-3.634A3.634,3.634,0,0,1,35.1,118.312Zm0-6.3a2.662,2.662,0,1,0,2.652,2.662A2.662,2.662,0,0,0,35.1,112.016Z" transform="translate(-15.132 -56.051)" fill="#13243d"/>
    <path id="Trazado_986885" data-name="Trazado 986885" d="M63.819,115.2a3.143,3.143,0,1,0-3.138,3.148A3.143,3.143,0,0,0,63.819,115.2Z" transform="translate(-28.536 -56.576)" fill="#e53d54"/>
    <path id="Trazado_986886" data-name="Trazado 986886" d="M60.156,118.312a3.634,3.634,0,1,1,3.624-3.634A3.634,3.634,0,0,1,60.156,118.312Zm0-6.3a2.662,2.662,0,1,0,2.652,2.662,2.662,2.662,0,0,0-2.652-2.662Z" transform="translate(-28.011 -56.051)" fill="#13243d"/>
    <path id="Trazado_986887" data-name="Trazado 986887" d="M88.873,115.2a3.143,3.143,0,1,0-3.138,3.148,3.143,3.143,0,0,0,3.138-3.148Z" transform="translate(-41.414 -56.576)" fill="#e53d54"/>
    <path id="Trazado_986888" data-name="Trazado 986888" d="M85.209,118.312a3.634,3.634,0,1,1,3.624-3.634A3.634,3.634,0,0,1,85.209,118.312Zm0-6.3a2.662,2.662,0,1,0,2.652,2.662A2.662,2.662,0,0,0,85.209,112.016Z" transform="translate(-40.889 -56.051)" fill="#13243d"/>
    <path id="Trazado_986889" data-name="Trazado 986889" d="M115.2,38.765a3.143,3.143,0,1,1,3.148-3.138,3.143,3.143,0,0,1-3.148,3.138Z" transform="translate(-56.567 -15.667)" fill="#e53d54"/>
    <path id="Trazado_986890" data-name="Trazado 986890" d="M114.689,38.737a3.629,3.629,0,1,1,3.634-3.624A3.629,3.629,0,0,1,114.689,38.737Zm0-6.286a2.657,2.657,0,1,0,2.662,2.662A2.657,2.657,0,0,0,114.689,32.451Z" transform="translate(-56.053 -15.153)" fill="#13243d"/>
    <path id="Trazado_986891" data-name="Trazado 986891" d="M115.2,63.819a3.143,3.143,0,1,1,3.148-3.138A3.143,3.143,0,0,1,115.2,63.819Z" transform="translate(-56.567 -28.545)" fill="#e53d54"/>
    <path id="Trazado_986892" data-name="Trazado 986892" d="M114.689,63.791a3.629,3.629,0,1,1,3.634-3.624A3.629,3.629,0,0,1,114.689,63.791Zm0-6.286a2.657,2.657,0,1,0,2.662,2.662A2.657,2.657,0,0,0,114.689,57.5Z" transform="translate(-56.053 -28.031)" fill="#13243d"/>
    <path id="Trazado_986893" data-name="Trazado 986893" d="M115.2,88.873a3.143,3.143,0,1,1,3.148-3.138,3.143,3.143,0,0,1-3.148,3.138Z" transform="translate(-56.567 -41.423)" fill="#e53d54"/>
    <path id="Trazado_986894" data-name="Trazado 986894" d="M114.688,88.844a3.629,3.629,0,1,1,3.634-3.624A3.629,3.629,0,0,1,114.688,88.844Zm0-6.286a2.657,2.657,0,1,0,2.662,2.662A2.657,2.657,0,0,0,114.688,82.557Z" transform="translate(-56.052 -40.908)" fill="#13243d"/>
    <path id="Trazado_986895" data-name="Trazado 986895" d="M6.148,38.765A3.143,3.143,0,1,0,3,35.627a3.143,3.143,0,0,0,3.148,3.138Z" transform="translate(-0.505 -15.667)" fill="#e53d54"/>
    <path id="Trazado_986896" data-name="Trazado 986896" d="M5.644,38.737a3.629,3.629,0,1,1,3.633-3.624A3.629,3.629,0,0,1,5.644,38.737Zm0-6.286a2.657,2.657,0,1,0,2.661,2.662A2.657,2.657,0,0,0,5.644,32.451Z" transform="translate(-0.001 -15.153)" fill="#13243d"/>
    <path id="Trazado_986897" data-name="Trazado 986897" d="M6.148,63.819A3.143,3.143,0,1,0,3,60.681,3.143,3.143,0,0,0,6.148,63.819Z" transform="translate(-0.505 -28.545)" fill="#e53d54"/>
    <path id="Trazado_986898" data-name="Trazado 986898" d="M5.644,63.791a3.629,3.629,0,1,1,3.633-3.624A3.629,3.629,0,0,1,5.644,63.791Zm0-6.286a2.657,2.657,0,1,0,2.661,2.662A2.657,2.657,0,0,0,5.644,57.5Z" transform="translate(-0.001 -28.031)" fill="#13243d"/>
    <path id="Trazado_986899" data-name="Trazado 986899" d="M6.148,88.873A3.143,3.143,0,1,0,3,85.735a3.143,3.143,0,0,0,3.148,3.138Z" transform="translate(-0.505 -41.423)" fill="#e53d54"/>
    <path id="Trazado_986900" data-name="Trazado 986900" d="M5.643,88.844A3.629,3.629,0,1,1,9.277,85.22,3.629,3.629,0,0,1,5.643,88.844Zm0-6.286A2.657,2.657,0,1,0,8.3,85.22,2.657,2.657,0,0,0,5.643,82.557Z" transform="translate(0 -40.908)" fill="#13243d"/>
  </g>
</svg>
