<svg xmlns="http://www.w3.org/2000/svg" width="85" height="85" viewBox="0 0 85 85">
  <g id="Grupo_1125790" data-name="Grupo 1125790" transform="translate(-295 -1162.507)">
    <rect id="Rectángulo_415770" data-name="Rectángulo 415770" width="85" height="85" transform="translate(295 1162.507)" fill="none"/>
    <g id="Layer_x0020_1" transform="translate(304.7 1172.207)">
      <path id="Trazado_986901" data-name="Trazado 986901" d="M33.26,32.48a16.2,16.2,0,0,1-14.427-8.851,18.324,18.324,0,0,1-1.677-5.3,15.012,15.012,0,0,1,.39-6.083H2.262V45.191H64.3V12.243H49.012A16.246,16.246,0,0,1,33.26,32.48ZM18.287,9.982a16.22,16.22,0,0,1,29.945,0h17.2a1.132,1.132,0,0,1,1.131,1.131V52.677a1.132,1.132,0,0,1-1.131,1.131H42.657V57.9h8.461a1.132,1.132,0,0,1,1.131,1.131v6.395a1.132,1.132,0,0,1-1.131,1.131H15.441a1.132,1.132,0,0,1-1.131-1.131V59.033A1.132,1.132,0,0,1,15.441,57.9H23.9V53.808H1.131A1.132,1.132,0,0,1,0,52.677V11.113A1.132,1.132,0,0,1,1.131,9.982Zm1.989,11.386A13.988,13.988,0,0,0,45.386,23.2a13.74,13.74,0,0,0,1.872-6.94A13.981,13.981,0,1,0,19.3,16.61a13.412,13.412,0,0,0,.351,2.768Zm-3.7,42.93H49.987V60.164H16.571ZM26.163,57.9H40.4V53.808H26.163Zm-23.9-6.356H64.3V47.453H2.262ZM16.22,43.358H11.23A1.132,1.132,0,0,1,10.1,42.228V35.677a1.132,1.132,0,0,1,1.131-1.131H16.22a1.132,1.132,0,0,1,1.131,1.131v6.551A1.132,1.132,0,0,1,16.22,43.358ZM12.36,41.1H15.09V36.808H12.36Zm10.333,2.262a1.132,1.132,0,0,1-1.131-1.131V37.549c-.546.273-1.6.936-2.145-.156a1.14,1.14,0,0,1,.468-1.521l2.3-1.209a1.124,1.124,0,0,1,1.638,1.014v6.551A1.132,1.132,0,0,1,22.693,43.358Zm9.826,0H27.528A1.132,1.132,0,0,1,26.4,42.228V35.677a1.132,1.132,0,0,1,1.131-1.131h4.991a1.132,1.132,0,0,1,1.131,1.131v6.551A1.132,1.132,0,0,1,32.519,43.358ZM28.659,41.1h2.729V36.808H28.659ZM39.03,43.358A1.132,1.132,0,0,1,37.9,42.228V37.549c-.585.273-1.6.936-2.184-.156a1.14,1.14,0,0,1,.468-1.521l2.3-1.209a1.154,1.154,0,0,1,1.677,1.014v6.551A1.132,1.132,0,0,1,39.03,43.358Zm9.826,0h-5.03A1.132,1.132,0,0,1,42.7,42.228V35.677a1.132,1.132,0,0,1,1.131-1.131h5.03a1.132,1.132,0,0,1,1.131,1.131v6.551A1.132,1.132,0,0,1,48.856,43.358Zm-3.9-2.262h2.768V36.808H44.957Zm10.372,2.262A1.132,1.132,0,0,1,54.2,42.228V37.549c-.546.273-1.6.936-2.184-.156a1.12,1.12,0,0,1,.507-1.521l2.262-1.209a1.146,1.146,0,0,1,1.677,1.014v6.551A1.132,1.132,0,0,1,55.329,43.358ZM29.439,27.216a1.113,1.113,0,0,1-.585-2.067L38.485,19.3a1.131,1.131,0,0,1,1.209,1.911l-9.67,5.849A1.1,1.1,0,0,1,29.439,27.216Zm-2.028-14.7a1.138,1.138,0,0,1-.585-2.106L35.053,5.42a1.12,1.12,0,0,1,1.17,1.911L28,12.321A1.16,1.16,0,0,1,27.411,12.516ZM27.294,23.2a1.282,1.282,0,0,1-.663-.156l-4.406-3a1.1,1.1,0,0,1-.507-.936V13.8a1.128,1.128,0,0,1,1.755-.936l3.821,2.573L38.563,8.617a1.063,1.063,0,0,1,1.17,0L44.294,11.5a1.112,1.112,0,0,1,.546.975v5.3a1.149,1.149,0,0,1-1.755.975L39.108,16.22l-11.23,6.824A1.1,1.1,0,0,1,27.294,23.2ZM23.98,18.521l3.314,2.223L38.563,13.92a1.145,1.145,0,0,1,1.17.039l2.846,1.755V13.1l-3.47-2.184-11.23,6.824a1.2,1.2,0,0,1-1.248-.039L23.98,15.909Z" fill-rule="evenodd"/>
      <g id="Grupo_1125789" data-name="Grupo 1125789" transform="translate(2.262 12.243)">
        <path id="Trazado_986902" data-name="Trazado 986902" d="M104.517,322.812a16.221,16.221,0,0,1-29.945,2.573,18.324,18.324,0,0,1-1.677-5.3,15.012,15.012,0,0,1,.39-6.083H58v32.948h62.035V314H104.751A16.12,16.12,0,0,1,104.517,322.812ZM89.388,337.434v6.551a1.132,1.132,0,0,1-1.131,1.131H83.266a1.132,1.132,0,0,1-1.131-1.131v-6.551a1.132,1.132,0,0,1,1.131-1.131h4.991A1.132,1.132,0,0,1,89.388,337.434Zm-9.826,0v6.551a1.131,1.131,0,0,1-2.261,0v-4.679c-.546.273-1.6.936-2.145-.156a1.14,1.14,0,0,1,.468-1.521l2.3-1.209A1.124,1.124,0,0,1,79.562,337.434Zm-6.473,0v6.551a1.132,1.132,0,0,1-1.131,1.131H66.968a1.132,1.132,0,0,1-1.131-1.131v-6.551a1.132,1.132,0,0,1,1.131-1.131h4.991A1.132,1.132,0,0,1,73.09,337.434ZM99.565,336.3h5.03a1.132,1.132,0,0,1,1.131,1.131v6.551a1.132,1.132,0,0,1-1.131,1.131h-5.03a1.132,1.132,0,0,1-1.131-1.131v-6.551A1.132,1.132,0,0,1,99.565,336.3ZM95.9,337.434v6.551a1.131,1.131,0,0,1-2.261,0v-4.679c-.585.273-1.6.936-2.184-.156a1.14,1.14,0,0,1,.468-1.521l2.3-1.209A1.154,1.154,0,0,1,95.9,337.434Zm15.168,7.681a1.132,1.132,0,0,1-1.131-1.131v-4.679c-.546.273-1.6.936-2.184-.156a1.12,1.12,0,0,1,.507-1.521l2.262-1.209a1.146,1.146,0,0,1,1.677,1.014v6.551A1.132,1.132,0,0,1,111.067,345.115Z" transform="translate(-58 -314)" fill="#9ff" fill-rule="evenodd"/>
        <path id="Trazado_986903" data-name="Trazado 986903" d="M1155.768,944H1153v4.289h2.768Z" transform="translate(-1110.304 -919.435)" fill="#9ff" fill-rule="evenodd"/>
        <path id="Trazado_986904" data-name="Trazado 986904" d="M737.729,948.289V944H735v4.289Z" transform="translate(-708.603 -919.435)" fill="#9ff" fill-rule="evenodd"/>
        <path id="Trazado_986905" data-name="Trazado 986905" d="M319.729,948.289V944H317v4.289Z" transform="translate(-306.901 -919.435)" fill="#9ff" fill-rule="evenodd"/>
      </g>
      <path id="Trazado_986906" data-name="Trazado 986906" d="M618.314,289.826,629.583,283a1.145,1.145,0,0,1,1.17.039L633.6,284.8v-2.612L630.129,280l-11.23,6.823a1.2,1.2,0,0,1-1.248-.039L615,284.991V287.6Z" transform="translate(-591.02 -269.082)" fill="#ffa721" fill-rule="evenodd"/>
      <path id="Trazado_986907" data-name="Trazado 986907" d="M515.353,76.95l-9.67,5.849a1.1,1.1,0,0,1-.585.156,1.113,1.113,0,0,1-.585-2.067l9.631-5.849A1.131,1.131,0,0,1,515.353,76.95Zm-.585-4.991-11.23,6.824a1.1,1.1,0,0,1-.585.156,1.282,1.282,0,0,1-.663-.156l-4.406-3a1.1,1.1,0,0,1-.507-.936v-5.3a1.128,1.128,0,0,1,1.755-.936l3.821,2.573,11.269-6.824a1.062,1.062,0,0,1,1.17,0l4.562,2.885a1.112,1.112,0,0,1,.546.975v5.3a1.149,1.149,0,0,1-1.755.975Zm-18.833,5.147a13.988,13.988,0,0,0,25.111,1.833A13.741,13.741,0,0,0,522.917,72a13.981,13.981,0,1,0-27.957.351,13.409,13.409,0,0,0,.351,2.768Zm7.135-8.851a1.138,1.138,0,0,1-.585-2.106l8.227-4.991a1.12,1.12,0,0,1,1.17,1.911l-8.227,4.991A1.16,1.16,0,0,1,503.071,68.255Z" transform="translate(-475.66 -55.738)" fill="#1aa1ff" fill-rule="evenodd"/>
      <path id="Trazado_986908" data-name="Trazado 986908" d="M120.035,1217H58v4.094h62.035Z" transform="translate(-55.738 -1169.547)" fill="#333" fill-rule="evenodd"/>
      <path id="Trazado_986909" data-name="Trazado 986909" d="M685.232,1380H671v4.094h14.232Z" transform="translate(-644.837 -1326.192)" fill="#333" fill-rule="evenodd"/>
      <path id="Trazado_986910" data-name="Trazado 986910" d="M458.416,1543H425v4.133h33.416Z" transform="translate(-408.429 -1482.836)" fill="#333" fill-rule="evenodd"/>
    </g>
  </g>
</svg>
