<svg xmlns="http://www.w3.org/2000/svg" width="85" height="85" viewBox="0 0 85 85">
  <g id="Grupo_1125792" data-name="Grupo 1125792" transform="translate(-606 -1162.507)">
    <rect id="Rectángulo_415770" data-name="Rectángulo 415770" width="85" height="85" transform="translate(606 1162.507)" fill="none"/>
    <g id="Grupo_1125791" data-name="Grupo 1125791" transform="translate(615.7 1171.056)">
      <path id="Trazado_986911" data-name="Trazado 986911" d="M38.961,16.207H24V7H35.509a3.453,3.453,0,0,1,3.453,3.453Z" transform="translate(-0.983 -1.246)" fill="#ea732d"/>
      <path id="Trazado_986912" data-name="Trazado 986912" d="M31.961,12.754H17V7H27.358Z" transform="translate(-2.039 -1.246)" fill="#faac2b"/>
      <path id="Trazado_986913" data-name="Trazado 986913" d="M24.961,12.754H10V7H20.358Z" transform="translate(-3.095 -1.246)" fill="#ffc119"/>
      <path id="Trazado_986914" data-name="Trazado 986914" d="M38.375,48.431H8.453A3.453,3.453,0,0,1,5,44.979V7h8.056l3.453,4.6H38.375a3.453,3.453,0,0,1,3.453,3.453V44.979A3.453,3.453,0,0,1,38.375,48.431Z" transform="translate(-3.849 -1.246)" fill="#57646f"/>
      <path id="Trazado_986915" data-name="Trazado 986915" d="M60.961,31.207H46V22H57.509a3.453,3.453,0,0,1,3.453,3.453Z" transform="translate(2.337 1.017)" fill="#ea732d"/>
      <path id="Trazado_986916" data-name="Trazado 986916" d="M53.961,27.754H39V22H49.358Z" transform="translate(1.281 1.017)" fill="#faac2b"/>
      <path id="Trazado_986917" data-name="Trazado 986917" d="M46.961,27.754H32V22H42.358Z" transform="translate(0.224 1.017)" fill="#ffc119"/>
      <path id="Trazado_986918" data-name="Trazado 986918" d="M60.375,63.431H30.453A3.453,3.453,0,0,1,27,59.979V22h8.056l3.453,4.6H60.375a3.453,3.453,0,0,1,3.453,3.453V59.979a3.453,3.453,0,0,1-3.453,3.453Z" transform="translate(-0.53 1.017)" fill="#3890ce"/>
      <path id="Trazado_986919" data-name="Trazado 986919" d="M32,44H57.319v9.207H32Z" transform="translate(0.224 4.337)" fill="#ffc119"/>
      <path id="Trazado_986920" data-name="Trazado 986920" d="M53,33h2.3v2.3H53Z" transform="translate(3.393 2.677)"/>
      <path id="Trazado_986921" data-name="Trazado 986921" d="M21.87,29.337A1.151,1.151,0,0,0,21.056,29h-4.6v2.3H20.58l2.3,2.3H13v2.3h7.58l-2.3,2.3H15.3v2.3h3.453a1.151,1.151,0,0,0,.813-.337l4.266-4.266H45.9l4.266,4.266a1.151,1.151,0,0,0,.814.337h3.453v-2.3H51.455l-2.3-2.3h7.58V33.6H46.852l2.3-2.3h4.127V29h-4.6a1.151,1.151,0,0,0-.813.337L43.6,33.6H26.136Z" transform="translate(-2.642 2.074)"/>
      <path id="Trazado_986922" data-name="Trazado 986922" d="M9,33h2.3v2.3H9Z" transform="translate(-3.246 2.677)"/>
      <path id="Trazado_986923" data-name="Trazado 986923" d="M4,7.151V45.13a4.6,4.6,0,0,0,4.6,4.6H27.017v-2.3H8.6a2.3,2.3,0,0,1-2.3-2.3V8.3h6.33l3.107,4.143a1.151,1.151,0,0,0,.921.46H38.526a2.3,2.3,0,0,1,2.3,2.3v5.754h2.3V10.6a4.6,4.6,0,0,0-4.6-4.6H5.151A1.151,1.151,0,0,0,4,7.151ZM15.509,8.3h5.179l1.726,2.3H17.235Zm8.056,0h5.179l1.726,2.3H25.291Zm17.263,2.3v.64a4.556,4.556,0,0,0-2.3-.64H33.347L31.621,8.3h6.905A2.3,2.3,0,0,1,40.828,10.6Z" transform="translate(-4 -1.397)"/>
      <path id="Trazado_986924" data-name="Trazado 986924" d="M65.13,58.979V25.6a4.6,4.6,0,0,0-4.6-4.6H27.151A1.151,1.151,0,0,0,26,22.151V32.509h2.3V23.3h6.33l3.107,4.143a1.151,1.151,0,0,0,.921.46H60.526a2.3,2.3,0,0,1,2.3,2.3V58.979a2.3,2.3,0,0,1-2.3,2.3H30.6a2.3,2.3,0,0,1-2.3-2.3V39.414H26V58.979a4.6,4.6,0,0,0,4.6,4.6H60.526A4.6,4.6,0,0,0,65.13,58.979ZM50.744,23.3l1.726,2.3H47.291l-1.726-2.3Zm-13.235,0h5.179l1.726,2.3H39.235Zm23.017,2.3H55.347l-1.726-2.3h6.905a2.3,2.3,0,0,1,2.3,2.3v.64a4.556,4.556,0,0,0-2.3-.64Z" transform="translate(-0.681 0.867)"/>
      <path id="Trazado_986925" data-name="Trazado 986925" d="M8,10h2.3v2.3H8Z" transform="translate(-3.397 -0.793)"/>
      <path id="Trazado_986926" data-name="Trazado 986926" d="M30,25h2.3v2.3H30Z" transform="translate(-0.077 1.47)"/>
      <path id="Trazado_986927" data-name="Trazado 986927" d="M31,44.151v9.207a1.151,1.151,0,0,0,1.151,1.151H57.47a1.151,1.151,0,0,0,1.151-1.151V44.151A1.151,1.151,0,0,0,57.47,43H32.151A1.151,1.151,0,0,0,31,44.151ZM33.3,45.3H56.319v6.905H33.3Z" transform="translate(0.074 4.186)"/>
      <path id="Trazado_986928" data-name="Trazado 986928" d="M35,47h2.3v2.3H35Z" transform="translate(0.677 4.789)"/>
      <path id="Trazado_986929" data-name="Trazado 986929" d="M39,47H52.81v2.3H39Z" transform="translate(1.281 4.789)"/>
      <path id="Trazado_986930" data-name="Trazado 986930" d="M9,2H35.47V4.3H9Z" transform="translate(-3.246 -2)"/>
      <path id="Trazado_986931" data-name="Trazado 986931" d="M30,60H56.47v2.3H30Z" transform="translate(-0.077 6.751)"/>
      <path id="Trazado_986932" data-name="Trazado 986932" d="M55,60h2.3v2.3H55Z" transform="translate(3.694 6.751)"/>
    </g>
  </g>
</svg>
