<svg xmlns="http://www.w3.org/2000/svg" width="85" height="85" viewBox="0 0 85 85">
  <g id="Grupo_1125778" data-name="Grupo 1125778" transform="translate(-217.051 -971)">
    <rect id="Rectángulo_415770" data-name="Rectángulo 415770" width="85" height="85" transform="translate(217.051 971)" fill="none"/>
    <g id="Grupo_1125777" data-name="Grupo 1125777" transform="translate(223.051 976.163)">
      <g id="Grupo_1125775" data-name="Grupo 1125775" transform="translate(9.129 2.19)">
        <g id="Grupo_1125764" data-name="Grupo 1125764" transform="translate(2.787 48.774)">
          <path id="Trazado_986731" data-name="Trazado 986731" d="M47.1,44h8.826A25.556,25.556,0,0,1,10.4,44H47.1Z" transform="translate(-10.4 -44)" fill="#ccd1d9"/>
        </g>
        <g id="Grupo_1125765" data-name="Grupo 1125765" transform="translate(0 11.613)">
          <path id="Trazado_986732" data-name="Trazado 986732" d="M33.548,12a25.5,25.5,0,0,1,12.321,3.159l-1.521.209a1.743,1.743,0,0,0-1.324.883,1.523,1.523,0,0,0-.186.732,1.633,1.633,0,0,0,1.068,1.51l5.9,2.369v3.914l7.653,3.763v.012a25.572,25.572,0,0,1-1.15,20.613H10.787A25.545,25.545,0,0,1,33.548,12Z" transform="translate(-8 -12)" fill="#69d6f4"/>
        </g>
        <g id="Grupo_1125766" data-name="Grupo 1125766" transform="translate(34.838 2.323)">
          <circle id="Elipse_12116" data-name="Elipse 12116" cx="2.323" cy="2.323" r="2.323" fill="#fcd770"/>
        </g>
        <g id="Grupo_1125767" data-name="Grupo 1125767" transform="translate(25.548 2.323)">
          <circle id="Elipse_12117" data-name="Elipse 12117" cx="2.323" cy="2.323" r="2.323" fill="#fcd770"/>
        </g>
        <g id="Grupo_1125768" data-name="Grupo 1125768" transform="translate(16.258 2.323)">
          <path id="Trazado_986733" data-name="Trazado 986733" d="M24.323,4A2.323,2.323,0,1,1,22.36,7.565,2.287,2.287,0,0,1,22,6.323,2.329,2.329,0,0,1,24.323,4Z" transform="translate(-22 -4)" fill="#fcd770"/>
        </g>
        <g id="Grupo_1125769" data-name="Grupo 1125769" transform="translate(41.806 18.093)">
          <path id="Trazado_986734" data-name="Trazado 986734" d="M44.174,17.58,58.2,24.594q-.766.749-1.6,1.428a2.551,2.551,0,0,0-.209.163l-2.95,2.334-1.788-.883L44,23.874V19.961a20.33,20.33,0,0,1,.174-2.381Z" transform="translate(-44 -17.58)" fill="#ccd1d9"/>
        </g>
        <g id="Grupo_1125770" data-name="Grupo 1125770" transform="translate(41.98 3.217)">
          <path id="Trazado_986735" data-name="Trazado 986735" d="M64.867,10.263a21.9,21.9,0,0,1-3.054,11.775v.012c-.151.255-.314.511-.476.766A21.677,21.677,0,0,1,58.19,26.66h-.012L44.15,19.646a20.417,20.417,0,0,1,.906-3.855c.012-.046.035-.093.046-.139a20.625,20.625,0,0,1,5.6-8.477A20.991,20.991,0,0,1,53.9,4.77Z" transform="translate(-44.15 -4.77)" fill="#e6e9ed"/>
        </g>
        <g id="Grupo_1125771" data-name="Grupo 1125771" transform="translate(54.406 20.497)">
          <path id="Trazado_986736" data-name="Trazado 986736" d="M56.464,24.26a21.677,21.677,0,0,0,3.147-3.844c.163-.255.325-.511.476-.766L63.014,26.8a1.9,1.9,0,0,1-.046,1.533,1.726,1.726,0,0,1-1.545,1.01,1.7,1.7,0,0,1-.871-.244l-3.368-2.021L54.85,25.689q.836-.679,1.6-1.428Z" transform="translate(-54.85 -19.65)" fill="#ff826e"/>
        </g>
        <g id="Grupo_1125772" data-name="Grupo 1125772" transform="translate(34.838 14.098)">
          <path id="Trazado_986737" data-name="Trazado 986737" d="M46.094,14.14c-.012.046-.035.093-.046.139a20.148,20.148,0,0,0-1.08,6.236l-5.9-2.369A1.633,1.633,0,0,1,38,16.637a1.523,1.523,0,0,1,.186-.732,1.743,1.743,0,0,1,1.324-.883l1.521-.209Z" transform="translate(-38 -14.14)" fill="#ff826e"/>
        </g>
        <g id="Grupo_1125773" data-name="Grupo 1125773" transform="translate(51.735)">
          <path id="Trazado_986738" data-name="Trazado 986738" d="M63.513,10.71,52.55,5.217a21.007,21.007,0,0,1,5.969-2.485L61.5,2,61.9,3A21.769,21.769,0,0,1,63.513,10.71Z" transform="translate(-52.55 -2)" fill="#ff826e"/>
        </g>
        <g id="Grupo_1125774" data-name="Grupo 1125774" transform="translate(48.774 11.613)">
          <circle id="Elipse_12118" data-name="Elipse 12118" cx="3.484" cy="3.484" r="3.484" fill="#69d6f4"/>
        </g>
      </g>
      <g id="Grupo_1125776" data-name="Grupo 1125776" transform="translate(1 0.823)">
        <path id="Trazado_986739" data-name="Trazado 986739" d="M53.645,20.29A4.645,4.645,0,1,0,49,15.645,4.65,4.65,0,0,0,53.645,20.29Zm0-6.968a2.323,2.323,0,1,1-2.323,2.323A2.325,2.325,0,0,1,53.645,13.323Z" transform="translate(6.742 0.818)"/>
        <path id="Trazado_986740" data-name="Trazado 986740" d="M32.484,9.968A3.484,3.484,0,1,0,29,6.484,3.488,3.488,0,0,0,32.484,9.968Zm0-4.645a1.161,1.161,0,1,1-1.161,1.161A1.162,1.162,0,0,1,32.484,5.323Z" transform="translate(3.516 -0.472)"/>
        <path id="Trazado_986741" data-name="Trazado 986741" d="M40.484,9.968A3.484,3.484,0,1,0,37,6.484,3.488,3.488,0,0,0,40.484,9.968Zm0-4.645a1.161,1.161,0,1,1-1.161,1.161A1.162,1.162,0,0,1,40.484,5.323Z" transform="translate(4.806 -0.472)"/>
        <path id="Trazado_986742" data-name="Trazado 986742" d="M72.773,29.4l-2.715-6.64a23.212,23.212,0,0,0,1.234-20.01L70.509.823,66.551,1.8A21.918,21.918,0,0,0,51.223,15.226l-4.025.538A26.754,26.754,0,1,0,60.508,32.582l.01.006,3.111-2.45,1.231.737A31.354,31.354,0,1,1,25.392,9.416a3.471,3.471,0,1,0-1.166-2.582,3.447,3.447,0,0,0,.051.505A33.685,33.685,0,1,0,67.654,32.549l.984.59a2.854,2.854,0,0,0,1.463.405,2.818,2.818,0,0,0,.813-.12,2.933,2.933,0,0,0,1.788-1.55A3.064,3.064,0,0,0,72.773,29.4ZM27.71,5.674a1.161,1.161,0,1,1-1.161,1.161A1.162,1.162,0,0,1,27.71,5.674Zm39.4-1.622,2.008-.494.026.067a20.767,20.767,0,0,1,1.368,5.312L63.376,5.371A20.1,20.1,0,0,1,67.107,4.051ZM60.922,6.74l9.739,4.869a20.9,20.9,0,0,1-3.342,11.209A21.122,21.122,0,0,1,64.9,25.874L52.4,19.621a19.248,19.248,0,0,1,.714-2.82A19.461,19.461,0,0,1,60.922,6.74ZM45.179,18.6a.588.588,0,0,1,.448-.285l4.81-.642a21.482,21.482,0,0,0-.564,3.308l-4.409-1.766a.522.522,0,0,1-.311-.3.373.373,0,0,1,.027-.317Zm13.885,20.75A24.2,24.2,0,0,1,56.678,49.8H52.1v2.323h3.314a24.315,24.315,0,0,1-41.467,0h26.54V49.8H12.677a24.193,24.193,0,0,1-2.328-9.29h6.91V38.19H10.349a24.25,24.25,0,0,1,6.31-15.214l4.88,4.88,1.642-1.642-4.88-4.88a24.255,24.255,0,0,1,15.214-6.31v6.908h2.323V15a24.442,24.442,0,0,1,7.941,1.725,2.792,2.792,0,0,0-.65.782,2.715,2.715,0,0,0-.159,2.205A2.854,2.854,0,0,0,44.6,21.373l5.177,2.073V27.3l7.869,3.873A24.3,24.3,0,0,1,59.064,39.351Zm1.166-9.495-8.134-4V22.961c0-.293.022-.583.036-.874l10.963,5.482c-.163.136-.315.281-.482.412Zm10.376,1.017a.6.6,0,0,1-.363.326.506.506,0,0,1-.411-.053l-4.323-2.591a23.467,23.467,0,0,0,3.012-3.418l2.1,5.141A.736.736,0,0,1,70.606,30.874Z" transform="translate(-1 -0.823)"/>
        <path id="Trazado_986743" data-name="Trazado 986743" d="M0,0H10.387V2.323H0Z" transform="translate(43.066 38.019) rotate(-63.435)"/>
        <path id="Trazado_986744" data-name="Trazado 986744" d="M0,0H5.193V2.323H0Z" transform="translate(39.579 44.985) rotate(-63.435)"/>
        <path id="Trazado_986745" data-name="Trazado 986745" d="M0,0H24.415V2.321H0Z" transform="translate(40.765 51.954) rotate(-64.665)"/>
        <path id="Trazado_986746" data-name="Trazado 986746" d="M0,0H16.627V2.323H0Z" transform="translate(47.719 47.328) rotate(-65.229)"/>
        <path id="Trazado_986747" data-name="Trazado 986747" d="M0,0H5.193V2.323H0Z" transform="translate(44.22 54.275) rotate(-63.435)"/>
      </g>
    </g>
  </g>
</svg>
