<svg xmlns="http://www.w3.org/2000/svg" width="85" height="85" viewBox="0 0 85 85">
  <g id="Grupo_1125780" data-name="Grupo 1125780" transform="translate(-638.051 -971)">
    <rect id="Rectángulo_415770" data-name="Rectángulo 415770" width="85" height="85" transform="translate(638.051 971)" fill="none"/>
    <g id="Grupo_1125779" data-name="Grupo 1125779" transform="translate(593.051 972.5)">
      <path id="Trazado_986748" data-name="Trazado 986748" d="M73.072,74.166A12.072,12.072,0,0,0,83.329,55.727l-2.208-3.572V15.548a8.048,8.048,0,1,0-16.1,0V52.155l-2.213,3.58A12.072,12.072,0,0,0,73.072,74.166Z" transform="translate(0 0)" fill="#def7ff"/>
      <path id="Trazado_986749" data-name="Trazado 986749" d="M144.851,353.483l-2.815-4.553H136v8.8l4.41,7.685a8.049,8.049,0,0,0,4.44-11.927Z" transform="translate(-64.94 -295.632)" fill="#fc4e42"/>
      <path id="Trazado_986750" data-name="Trazado 986750" d="M138.012,37.5a4,4,0,0,0-2.012.54V82.759a4.023,4.023,0,0,0,6.036-3.484V41.524A4.024,4.024,0,0,0,138.012,37.5Z" transform="translate(-64.94 -25.976)" fill="#61c5ff"/>
      <path id="Trazado_986751" data-name="Trazado 986751" d="M102.469,355.607l-1.84-2.976-5.605-3.7-2.815,4.553a8.051,8.051,0,0,0,9.237,11.927,8.042,8.042,0,0,0,1.023-9.8Z" transform="translate(-25.976 -295.632)" fill="#ff6c4a"/>
      <path id="Trazado_986752" data-name="Trazado 986752" d="M125.625,84.874a4.024,4.024,0,0,1-.6-2.116V45.007a4.022,4.022,0,0,0-2.012-3.484A4.022,4.022,0,0,0,121,45.007v37.67a4.076,4.076,0,0,0,3.97,4.1,4.011,4.011,0,0,0,1.635-.323Z" transform="translate(-51.952 -29.459)" fill="#73dcff"/>
      <path id="Trazado_986753" data-name="Trazado 986753" d="M283.072,74.166a12.072,12.072,0,0,0,10.256-18.439l-2.208-3.572V15.548a8.048,8.048,0,1,0-16.1,0V52.155l-2.213,3.58a12.071,12.071,0,0,0,10.261,18.431Z" transform="translate(-181.831 0)" fill="#def7ff"/>
      <path id="Trazado_986754" data-name="Trazado 986754" d="M348.012,37.5a4,4,0,0,0-2.012.54V49.572h6.036V41.524A4.024,4.024,0,0,0,348.012,37.5Z" transform="translate(-246.771 -25.976)" fill="#61c5ff"/>
      <path id="Trazado_986755" data-name="Trazado 986755" d="M335.024,53.056V45.007a4.022,4.022,0,0,0-2.012-3.484A4.022,4.022,0,0,0,331,45.007v8.048Z" transform="translate(-233.783 -29.459)" fill="#73dcff"/>
      <path id="Trazado_986756" data-name="Trazado 986756" d="M354.851,135.779l-2.815-4.553v-29.7a4.024,4.024,0,0,0-4.024-4.024L346,101.524v38.5l4.41,7.685a8.049,8.049,0,0,0,4.44-11.927Z" transform="translate(-246.771 -77.928)" fill="#fc4e42"/>
      <path id="Trazado_986757" data-name="Trazado 986757" d="M312.469,137.9l-2.82-4.562a4.024,4.024,0,0,1-.6-2.116V97.5a4.024,4.024,0,0,0-4.024,4.024v29.7l-2.815,4.553a8.051,8.051,0,0,0,9.237,11.927,8.042,8.042,0,0,0,1.023-9.8Z" transform="translate(-207.807 -77.928)" fill="#ff6c4a"/>
      <path id="Trazado_986758" data-name="Trazado 986758" d="M65.024,26.81V52.155l-2.213,3.58a12.072,12.072,0,1,0,20.518-.009l-2.208-3.572V15.548a8.048,8.048,0,1,0-16.1,0v7.237" transform="translate(0 0)" fill="none" stroke="#000" stroke-linecap="round" stroke-linejoin="round" stroke-miterlimit="10" stroke-width="1"/>
      <path id="Trazado_986759" data-name="Trazado 986759" d="M92.21,83.827l2.815-4.553V41.524a4.024,4.024,0,1,1,8.048,0v37.75l2.815,4.553a8.048,8.048,0,1,1-13.677,0Z" transform="translate(-25.976 -25.976)" fill="none" stroke="#000" stroke-linecap="round" stroke-linejoin="round" stroke-miterlimit="10" stroke-width="1"/>
      <path id="Trazado_986760" data-name="Trazado 986760" d="M129.048,348.93a4.024,4.024,0,1,1-8.048,0" transform="translate(-51.952 -295.632)" fill="none" stroke="#000" stroke-linecap="round" stroke-linejoin="round" stroke-miterlimit="10" stroke-width="1"/>
      <path id="Trazado_986761" data-name="Trazado 986761" d="M275.024,26.81V52.155l-2.213,3.58a12.072,12.072,0,1,0,20.518-.009l-2.208-3.572V15.548a8.048,8.048,0,1,0-16.1,0v7.237" transform="translate(-181.831 0)" fill="none" stroke="#000" stroke-linecap="round" stroke-linejoin="round" stroke-miterlimit="10" stroke-width="1"/>
      <path id="Trazado_986762" data-name="Trazado 986762" d="M302.21,83.827l2.815-4.553V41.524a4.024,4.024,0,1,1,8.048,0v37.75l2.815,4.553a8.048,8.048,0,1,1-13.677,0Z" transform="translate(-207.807 -25.976)" fill="none" stroke="#000" stroke-linecap="round" stroke-linejoin="round" stroke-miterlimit="10" stroke-width="1"/>
      <path id="Trazado_986763" data-name="Trazado 986763" d="M331,101.524a4.024,4.024,0,1,1,8.048,0" transform="translate(-233.783 -77.928)" fill="none" stroke="#000" stroke-linecap="round" stroke-linejoin="round" stroke-miterlimit="10" stroke-width="1"/>
      <line id="Línea_608" data-name="Línea 608" x1="3.252" transform="translate(85.531 15.63)" fill="none" stroke="#000" stroke-linecap="round" stroke-linejoin="round" stroke-miterlimit="10" stroke-width="1"/>
      <line id="Línea_609" data-name="Línea 609" x1="2.012" transform="translate(86.151 19.572)" fill="none" stroke="#000" stroke-linecap="round" stroke-linejoin="round" stroke-miterlimit="10" stroke-width="1"/>
      <line id="Línea_610" data-name="Línea 610" x1="3.252" transform="translate(85.531 23.76)" fill="none" stroke="#000" stroke-linecap="round" stroke-linejoin="round" stroke-miterlimit="10" stroke-width="1"/>
      <line id="Línea_611" data-name="Línea 611" x1="2.012" transform="translate(86.151 27.621)" fill="none" stroke="#000" stroke-linecap="round" stroke-linejoin="round" stroke-miterlimit="10" stroke-width="1"/>
      <line id="Línea_612" data-name="Línea 612" x1="3.252" transform="translate(85.531 31.889)" fill="none" stroke="#000" stroke-linecap="round" stroke-linejoin="round" stroke-miterlimit="10" stroke-width="1"/>
      <line id="Línea_613" data-name="Línea 613" x1="2.012" transform="translate(86.151 35.669)" fill="none" stroke="#000" stroke-linecap="round" stroke-linejoin="round" stroke-miterlimit="10" stroke-width="1"/>
      <line id="Línea_614" data-name="Línea 614" x1="3.252" transform="translate(85.531 40.019)" fill="none" stroke="#000" stroke-linecap="round" stroke-linejoin="round" stroke-miterlimit="10" stroke-width="1"/>
      <line id="Línea_615" data-name="Línea 615" x1="2.012" transform="translate(86.151 43.717)" fill="none" stroke="#000" stroke-linecap="round" stroke-linejoin="round" stroke-miterlimit="10" stroke-width="1"/>
      <line id="Línea_616" data-name="Línea 616" x1="3.252" transform="translate(85.531 48.15)" fill="none" stroke="#000" stroke-linecap="round" stroke-linejoin="round" stroke-miterlimit="10" stroke-width="1"/>
    </g>
  </g>
</svg>
