<svg xmlns="http://www.w3.org/2000/svg" width="85" height="85" viewBox="0 0 85 85">
  <g id="Grupo_1125827" data-name="Grupo 1125827" transform="translate(-1236 -1158.507)">
    <rect id="Rectángulo_415770" data-name="Rectángulo 415770" width="85" height="85" transform="translate(1236 1158.507)" fill="none"/>
    <g id="Grupo_1125826" data-name="Grupo 1125826" transform="translate(1244.549 1168.207)">
      <g id="Icon">
        <g id="Grupo_1125813" data-name="Grupo 1125813" transform="translate(1.151 28.772)">
          <g id="Grupo_1125809" data-name="Grupo 1125809">
            <path id="Trazado_986945" data-name="Trazado 986945" d="M388.449,480.6a4.6,4.6,0,0,0-4.6-4.6H328.6a4.6,4.6,0,0,0-4.6,4.6v27.621a4.6,4.6,0,0,0,4.6,4.6h55.242a4.6,4.6,0,0,0,4.6-4.6Z" transform="translate(-324 -476)" fill="#2dcc70" fill-rule="evenodd"/>
          </g>
          <g id="Grupo_1125810" data-name="Grupo 1125810" transform="translate(4.604 4.604)">
            <path id="Trazado_986946" data-name="Trazado 986946" d="M383.242,486.43a2.3,2.3,0,0,0-1.536-2.169,3.657,3.657,0,0,1-1.718-1.006,4.6,4.6,0,0,1-1.076-1.694,2.227,2.227,0,0,0-2.1-1.486C366.18,480,345.062,480,334.43,480a2.3,2.3,0,0,0-2.169,1.536,3.657,3.657,0,0,1-1.006,1.718,4.6,4.6,0,0,1-1.694,1.076,2.227,2.227,0,0,0-1.486,2.1C328,490.87,328,496.751,328,501.191a2.3,2.3,0,0,0,1.536,2.169,3.657,3.657,0,0,1,1.718,1.006,4.6,4.6,0,0,1,1.076,1.694,2.227,2.227,0,0,0,2.1,1.486c10.632.075,31.75.075,42.382.075a2.3,2.3,0,0,0,2.169-1.536,3.657,3.657,0,0,1,1.006-1.718,4.6,4.6,0,0,1,1.694-1.076,2.227,2.227,0,0,0,1.486-2.1C383.242,496.751,383.242,490.87,383.242,486.43Z" transform="translate(-328 -480)" fill="#0dac50" fill-rule="evenodd"/>
          </g>
          <g id="Grupo_1125811" data-name="Grupo 1125811" transform="translate(23.017 9.207)">
            <circle id="Elipse_12119" data-name="Elipse 12119" cx="9" cy="9" r="9" transform="translate(0.282 0.321)" fill="#2dcc70"/>
          </g>
          <g id="Grupo_1125812" data-name="Grupo 1125812" transform="translate(48.337 16.112)">
            <ellipse id="Elipse_12120" data-name="Elipse 12120" cx="2.5" cy="2" rx="2.5" ry="2" transform="translate(-0.037 0.416)" fill="#2dcc70"/>
          </g>
        </g>
        <g id="Grupo_1125814" data-name="Grupo 1125814" transform="translate(12.66 44.884)">
          <ellipse id="Elipse_12121" data-name="Elipse 12121" cx="2.5" cy="2" rx="2.5" ry="2" transform="translate(-0.209 0.416)" fill="#2dcc70"/>
        </g>
        <g id="Grupo_1125815" data-name="Grupo 1125815" transform="translate(42.582 24.168) rotate(180)">
          <path id="Trazado_986947" data-name="Trazado 986947" d="M6.9,7.858V20.715a2.3,2.3,0,0,0,4.6,0V7.858l2.976,2.976a2.3,2.3,0,1,0,3.255-3.255L10.834.674a2.3,2.3,0,0,0-3.255,0L.674,7.579a2.3,2.3,0,0,0,3.255,3.255Z" transform="translate(0)" fill="#ff6c5c" fill-rule="evenodd"/>
        </g>
        <g id="Grupo_1125816" data-name="Grupo 1125816" transform="translate(19.565 24.168) rotate(180)">
          <path id="Trazado_986948" data-name="Trazado 986948" d="M6.9,7.858V20.715a2.3,2.3,0,0,0,4.6,0V7.858l2.976,2.976a2.3,2.3,0,1,0,3.255-3.255L10.834.674a2.3,2.3,0,0,0-3.255,0L.674,7.579a2.3,2.3,0,0,0,3.255,3.255Z" transform="translate(0)" fill="#ff6c5c" fill-rule="evenodd"/>
        </g>
        <g id="Grupo_1125817" data-name="Grupo 1125817" transform="translate(65.599 24.168) rotate(180)">
          <path id="Trazado_986949" data-name="Trazado 986949" d="M6.9,7.858V20.715a2.3,2.3,0,0,0,4.6,0V7.858l2.976,2.976a2.3,2.3,0,1,0,3.255-3.255L10.834.674a2.3,2.3,0,0,0-3.255,0L.674,7.579a2.3,2.3,0,0,0,3.255,3.255Z" transform="translate(0)" fill="#ff6c5c" fill-rule="evenodd"/>
        </g>
        <g id="Grupo_1125818" data-name="Grupo 1125818" transform="translate(0 27.621)">
          <path id="Trazado_986950" data-name="Trazado 986950" d="M389.751,480.754A5.755,5.755,0,0,0,384,475H328.754A5.755,5.755,0,0,0,323,480.754v27.621a5.755,5.755,0,0,0,5.754,5.754H384a5.755,5.755,0,0,0,5.754-5.754Zm-2.3,0v27.621A3.452,3.452,0,0,1,384,511.828H328.754a3.452,3.452,0,0,1-3.453-3.453V480.754a3.452,3.452,0,0,1,3.453-3.453H384A3.452,3.452,0,0,1,387.449,480.754Z" transform="translate(-323 -475)" fill-rule="evenodd"/>
        </g>
        <g id="Grupo_1125819" data-name="Grupo 1125819" transform="translate(4.603 32.224)">
          <path id="Trazado_986951" data-name="Trazado 986951" d="M384.544,486.581a3.454,3.454,0,0,0-2.3-3.255c-.038-.013-.076-.024-.114-.033a2.506,2.506,0,0,1-1.174-.7,3.451,3.451,0,0,1-.807-1.271,3.376,3.376,0,0,0-3.182-2.247C366.338,479,345.215,479,334.581,479a3.454,3.454,0,0,0-3.255,2.3c-.013.038-.024.076-.033.114a2.5,2.5,0,0,1-.7,1.174,3.451,3.451,0,0,1-1.271.807,3.377,3.377,0,0,0-2.246,3.169C327,491.013,327,496.9,327,501.342a3.453,3.453,0,0,0,2.3,3.255c.038.013.076.024.114.033a2.506,2.506,0,0,1,1.174.7,3.451,3.451,0,0,1,.807,1.271,3.376,3.376,0,0,0,3.182,2.247c10.625.075,31.748.075,42.382.075a3.454,3.454,0,0,0,3.255-2.3c.013-.038.024-.076.033-.114a2.5,2.5,0,0,1,.7-1.174,3.45,3.45,0,0,1,1.271-.807,3.377,3.377,0,0,0,2.246-3.169C384.544,496.91,384.544,491.025,384.544,486.581Zm-2.3,0c0,4.433,0,10.306-.075,14.74v.02a1.076,1.076,0,0,1-.718,1.014l-.007,0a5.75,5.75,0,0,0-2.119,1.344,4.831,4.831,0,0,0-1.292,2.194,1.153,1.153,0,0,1-1.069.725c-10.629,0-31.743,0-42.372-.075h-.009a1.076,1.076,0,0,1-1.014-.718s0,0,0-.007a5.751,5.751,0,0,0-1.344-2.119,4.831,4.831,0,0,0-2.194-1.292,1.153,1.153,0,0,1-.725-1.069c0-4.433,0-10.306.075-14.74v-.02a1.076,1.076,0,0,1,.718-1.014l.007,0a5.75,5.75,0,0,0,2.119-1.344,4.831,4.831,0,0,0,1.292-2.194,1.153,1.153,0,0,1,1.069-.725c10.629,0,31.743,0,42.372.075h.009a1.076,1.076,0,0,1,1.014.718s0,0,0,.007a5.751,5.751,0,0,0,1.344,2.119,4.831,4.831,0,0,0,2.194,1.292A1.153,1.153,0,0,1,382.242,486.582Z" transform="translate(-327 -479)" fill-rule="evenodd"/>
        </g>
        <g id="Grupo_1125820" data-name="Grupo 1125820" transform="translate(23.017 36.828)">
          <path id="Trazado_986952" data-name="Trazado 986952" d="M353.358,483a10.358,10.358,0,1,0,10.358,10.358A10.363,10.363,0,0,0,353.358,483Zm0,2.3a8.056,8.056,0,1,1-8.056,8.056A8.061,8.061,0,0,1,353.358,485.3Z" transform="translate(-343 -483)" fill-rule="evenodd"/>
        </g>
        <g id="Grupo_1125821" data-name="Grupo 1125821" transform="translate(48.337 43.733)">
          <path id="Trazado_986953" data-name="Trazado 986953" d="M368.453,489a3.453,3.453,0,1,0,3.453,3.453A3.454,3.454,0,0,0,368.453,489Zm0,2.3a1.151,1.151,0,1,1-1.151,1.151A1.151,1.151,0,0,1,368.453,491.3Z" transform="translate(-365 -489)" fill-rule="evenodd"/>
        </g>
        <g id="Grupo_1125822" data-name="Grupo 1125822" transform="translate(11.509 43.733)">
          <path id="Trazado_986954" data-name="Trazado 986954" d="M368.453,489a3.453,3.453,0,1,0,3.453,3.453A3.454,3.454,0,0,0,368.453,489Zm0,2.3a1.151,1.151,0,1,1-1.151,1.151A1.151,1.151,0,0,1,368.453,491.3Z" transform="translate(-365 -489)" fill-rule="evenodd"/>
        </g>
        <g id="Grupo_1125823" data-name="Grupo 1125823" transform="translate(43.732 25.319) rotate(180)">
          <path id="Trazado_986955" data-name="Trazado 986955" d="M6.9,11.788V21.867a3.453,3.453,0,0,0,6.905,0V11.788l1.012,1.01A3.452,3.452,0,0,0,19.7,7.917L12.8,1.012a3.451,3.451,0,0,0-4.882,0L1.011,7.917A3.452,3.452,0,0,0,5.893,12.8Zm2.3-2.779A1.151,1.151,0,0,0,7.242,8.2L4.265,11.172A1.151,1.151,0,0,1,2.638,9.544L9.543,2.639a1.15,1.15,0,0,1,1.627,0l6.905,6.905a1.151,1.151,0,1,1-1.627,1.627L13.472,8.2a1.151,1.151,0,0,0-1.965.814V21.867a1.151,1.151,0,0,1-2.3,0Z" transform="translate(0)" fill-rule="evenodd"/>
        </g>
        <g id="Grupo_1125824" data-name="Grupo 1125824" transform="translate(20.715 25.319) rotate(180)">
          <path id="Trazado_986956" data-name="Trazado 986956" d="M6.9,11.788V21.867a3.453,3.453,0,0,0,6.905,0V11.788l1.012,1.01A3.452,3.452,0,0,0,19.7,7.917L12.8,1.012a3.451,3.451,0,0,0-4.882,0L1.011,7.917A3.452,3.452,0,0,0,5.893,12.8Zm2.3-2.779A1.151,1.151,0,0,0,7.242,8.2L4.265,11.172A1.151,1.151,0,0,1,2.638,9.544L9.543,2.639a1.15,1.15,0,0,1,1.627,0l6.905,6.905a1.151,1.151,0,1,1-1.627,1.627L13.472,8.2a1.151,1.151,0,0,0-1.965.814V21.867a1.151,1.151,0,0,1-2.3,0Z" transform="translate(0)" fill-rule="evenodd"/>
        </g>
        <g id="Grupo_1125825" data-name="Grupo 1125825" transform="translate(66.75 25.319) rotate(180)">
          <path id="Trazado_986957" data-name="Trazado 986957" d="M6.9,11.788V21.867a3.453,3.453,0,0,0,6.905,0V11.788l1.012,1.01A3.452,3.452,0,0,0,19.7,7.917L12.8,1.012a3.451,3.451,0,0,0-4.882,0L1.011,7.917A3.452,3.452,0,0,0,5.893,12.8Zm2.3-2.779A1.151,1.151,0,0,0,7.242,8.2L4.265,11.172A1.151,1.151,0,0,1,2.638,9.544L9.543,2.639a1.15,1.15,0,0,1,1.627,0l6.905,6.905a1.151,1.151,0,1,1-1.627,1.627L13.472,8.2a1.151,1.151,0,0,0-1.965.814V21.867a1.151,1.151,0,0,1-2.3,0Z" transform="translate(0)" fill-rule="evenodd"/>
        </g>
      </g>
    </g>
  </g>
</svg>
