<svg xmlns="http://www.w3.org/2000/svg" width="85" height="85" viewBox="0 0 85 85">
  <g id="Grupo_1125785" data-name="Grupo 1125785" transform="translate(-200.051 -2035)">
    <rect id="Rectángulo_415770" data-name="Rectángulo 415770" width="85" height="85" transform="translate(200.051 2035)" fill="none"/>
    <g id="Grupo_1125784" data-name="Grupo 1125784" transform="translate(172.53 2038.245)">
      <path id="Trazado_986776" data-name="Trazado 986776" d="M61.5,124.646l15.571,8.99v17.98L61.5,160.606l-15.571-8.99v-17.98Z" transform="translate(-4.678 -102.878)" fill="#dea368" fill-rule="evenodd"/>
      <path id="Trazado_986777" data-name="Trazado 986777" d="M61.5,218.365l15.571-8.99v-17.98L61.5,200.385l-15.571-8.99v17.98Z" transform="translate(-4.679 -160.637)" fill="#e6b17c" fill-rule="evenodd"/>
      <path id="Trazado_986778" data-name="Trazado 986778" d="M161.541,200.385l15.571-8.99v17.98l-15.571,8.99Z" transform="translate(-104.721 -160.637)" fill="#fdd7ad" fill-rule="evenodd"/>
      <path id="Trazado_986779" data-name="Trazado 986779" d="M251.149,234.566l15.571,8.99v17.98l-15.571,8.99-15.571-8.99v-17.98Z" transform="translate(-168.787 -197.994)" fill="#dea368" fill-rule="evenodd"/>
      <path id="Trazado_986780" data-name="Trazado 986780" d="M251.15,328.286l15.571-8.99v-17.98l-15.571,8.99-15.571-8.99V319.3Z" transform="translate(-168.788 -255.753)" fill="#e6b17c" fill-rule="evenodd"/>
      <path id="Trazado_986781" data-name="Trazado 986781" d="M351.193,310.305l15.571-8.99V319.3l-15.571,8.99Z" transform="translate(-268.83 -255.753)" fill="#fdd7ad" fill-rule="evenodd"/>
      <path id="Trazado_986782" data-name="Trazado 986782" d="M276.484,274.822v-7.649l15.571-8.99,4.553,2.628-15.571,8.99v7.649l-2.276-3.215Z" transform="translate(-204.184 -218.43)" fill="#fb545c" fill-rule="evenodd"/>
      <path id="Trazado_986783" data-name="Trazado 986783" d="M276.484,274.823v-7.649l15.571-8.99,2.276,1.314-15.571,8.99v5.749Z" transform="translate(-204.184 -218.43)" fill="#f0414a" fill-rule="evenodd"/>
      <path id="Trazado_986784" data-name="Trazado 986784" d="M276.484,332.582v-7.649l4.553,2.629v7.649L278.76,332Z" transform="translate(-204.184 -276.19)" fill="#e02f38" fill-rule="evenodd"/>
      <path id="Trazado_986785" data-name="Trazado 986785" d="M293.386,334.691l2.276,1.314v7.649l-2.276-3.215Z" transform="translate(-218.809 -284.634)" fill="#f0414a" fill-rule="evenodd"/>
      <path id="Trazado_986786" data-name="Trazado 986786" d="M86.832,164.9v-7.649l15.571-8.99,4.553,2.628-15.571,8.99v7.649l-2.276-3.215Z" transform="translate(-40.075 -123.314)" fill="#5caeff" fill-rule="evenodd"/>
      <path id="Trazado_986787" data-name="Trazado 986787" d="M86.832,164.9v-7.649l15.571-8.99,2.276,1.314-15.571,8.99v5.749Z" transform="translate(-40.075 -123.314)" fill="#2a92fa" fill-rule="evenodd"/>
      <path id="Trazado_986788" data-name="Trazado 986788" d="M86.832,222.662v-7.649l4.553,2.628v7.649l-2.276-3.215Z" transform="translate(-40.075 -181.074)" fill="#0e82f5" fill-rule="evenodd"/>
      <path id="Trazado_986789" data-name="Trazado 986789" d="M103.734,224.771l2.276,1.314v7.65l-2.276-3.215Z" transform="translate(-54.7 -189.518)" fill="#2a92fa" fill-rule="evenodd"/>
      <path id="Trazado_986790" data-name="Trazado 986790" d="M176.6,10.822l15.571,8.99v17.98L176.6,46.782l-15.571-8.99V19.812Z" transform="translate(-104.276 -4.384)" fill="#dea368" fill-rule="evenodd"/>
      <path id="Trazado_986791" data-name="Trazado 986791" d="M176.6,104.541l15.571-8.99V77.571L176.6,86.561l-15.571-8.99v17.98Z" transform="translate(-104.277 -62.143)" fill="#e6b17c" fill-rule="evenodd"/>
      <path id="Trazado_986792" data-name="Trazado 986792" d="M276.641,86.561l15.571-8.99v17.98l-15.571,8.99Z" transform="translate(-204.319 -62.143)" fill="#fdd7ad" fill-rule="evenodd"/>
      <path id="Trazado_986793" data-name="Trazado 986793" d="M201.932,51.079V43.429l15.571-8.99,4.553,2.628-15.571,8.99v7.649l-2.276-3.215Z" transform="translate(-139.672 -24.821)" fill="#2dd62d" fill-rule="evenodd"/>
      <path id="Trazado_986794" data-name="Trazado 986794" d="M201.932,51.079V43.429l15.571-8.99,2.276,1.314-15.571,8.99v5.749Z" transform="translate(-139.672 -24.821)" fill="#29b933" fill-rule="evenodd"/>
      <path id="Trazado_986795" data-name="Trazado 986795" d="M201.932,108.838v-7.649l4.553,2.628v7.649l-2.276-3.215Z" transform="translate(-139.672 -82.58)" fill="#009914" fill-rule="evenodd"/>
      <path id="Trazado_986796" data-name="Trazado 986796" d="M218.834,110.947l2.276,1.314v7.649l-2.276-3.215Z" transform="translate(-154.298 -91.024)" fill="#29b933" fill-rule="evenodd"/>
      <path id="Trazado_986797" data-name="Trazado 986797" d="M83.006,71.323V54.916l14.21-8.2V63.12l-14.21,8.2ZM67.45,46.713l4.156,2.4v7.253a.674.674,0,0,0,.841.651l1.825-.47,2.005,2.834a.675.675,0,0,0,.55.284.662.662,0,0,0,.2-.032.674.674,0,0,0,.468-.641V52.515l4.158,2.4V71.323l-14.209-8.2V46.712ZM57.423,56.542,66.1,51.53V45.546a.672.672,0,0,1,.337-.583l4.518-2.609-8.69-5.017-4.846,2.8V56.542ZM41.867,31.931l4.156,2.4v7.253a.673.673,0,0,0,.842.651l1.825-.47L50.7,44.6a.674.674,0,0,0,.55.284.662.662,0,0,0,.2-.032.673.673,0,0,0,.468-.641V37.734l4.158,2.4V56.542l-14.209-8.2Zm14.209-4.181v-4.8L42.54,30.765l4.156,2.4ZM72.305,7.205l4.156,2.4-14.209,8.2-4.156-2.4Zm.674,33.982,14.209-8.2V16.576l-14.209,8.2ZM66.128,21.6v5.137l-1.051-1.484a.67.67,0,0,0-.717-.263l-1.433.369V19.754Zm.673-1.167,14.209-8.2-3.2-1.848L63.6,18.588l3.2,1.848Zm5.5,3.177,14.209-8.2-4.158-2.4-14.209,8.2,4.158,2.4Zm-14.883,9.37V16.577l4.156,2.4V26.23a.675.675,0,0,0,.842.652l1.825-.47,2.005,2.833a.675.675,0,0,0,.55.284.662.662,0,0,0,.2-.031.674.674,0,0,0,.469-.642V22.379l4.158,2.4V41.188l-14.209-8.2Zm-9.379.959,3.2,1.848L56.076,33V29.3Zm-.673,1.167v5.606l1.433-.369a.674.674,0,0,1,.718.262l1.05,1.484V36.956l-3.2-1.848Zm9.379,3.86-4.158-2.4,4.172-2.41,4.158,2.4Zm29.739.774-4.156-2.4-9.69,5.594h0l-4.517,2.609,4.156,2.4,14.209-8.2ZM73.626,48.723l3.2,1.848,14.209-8.2-3.2-1.848-14.209,8.2Zm-.673,1.166V55.5l1.433-.369a.675.675,0,0,1,.718.262l1.05,1.484V51.738Zm9.379,3.86,14.209-8.2-4.158-2.4-14.209,8.2,4.158,2.4Zm15.894-8.787-14.547-8.4L88.2,33.955a.671.671,0,0,0,.337-.583V15.409a.676.676,0,0,0-.337-.583L72.642,5.845a.674.674,0,0,0-.674,0l-15.556,8.98a.675.675,0,0,0-.337.583v5.985l-15.22,8.787a.671.671,0,0,0-.336.583V48.727a.675.675,0,0,0,.336.583l15.556,8.98a.672.672,0,0,0,.674,0L66.1,53.086V63.507a.672.672,0,0,0,.337.583L82,73.072a.672.672,0,0,0,.674,0l15.557-8.982a.68.68,0,0,0,.337-.583V45.546a.681.681,0,0,0-.337-.583Z" fill-rule="evenodd"/>
    </g>
  </g>
</svg>
