<svg xmlns="http://www.w3.org/2000/svg" xmlns:xlink="http://www.w3.org/1999/xlink" width="85" height="85" viewBox="0 0 85 85">
  <defs>
    <clipPath id="clip-path">
      <path id="path2164" d="M0-682.665H60.665V-622H0Z" transform="translate(0 682.665)"/>
    </clipPath>
  </defs>
  <g id="Grupo_1125786" data-name="Grupo 1125786" transform="translate(-620.051 -2035)">
    <rect id="Rectángulo_415770" data-name="Rectángulo 415770" width="85" height="85" transform="translate(620.051 2035)" fill="none"/>
    <g id="g2154" transform="translate(632.051 2729.665)">
      <path id="path2156" d="M71.629-442.426h-58.3v-4.739h58.3Z" transform="translate(-12.148 -214.572)" fill="#cff1fb"/>
      <path id="path2158" d="M71.629-61.927h-58.3v-4.739h58.3Z" transform="translate(-12.148 -561.258)" fill="#cff1fb"/>
      <g id="g2160" transform="translate(0 -682.665)">
        <g id="g2162" clip-path="url(#clip-path)">
          <g id="g2168" transform="translate(22.275 44.314)">
            <path id="path2170" d="M-115.006,0h-6.319a4.9,4.9,0,0,0-4.9,4.9v5.529h16.114V4.9a4.9,4.9,0,0,0-4.9-4.9" transform="translate(126.222)" fill="#ffd89e"/>
          </g>
          <g id="g2172" transform="translate(43.366 44.314)">
            <path id="path2174" d="M-115.006,0h-6.319a4.9,4.9,0,0,0-4.9,4.9v5.529h16.114V4.9a4.9,4.9,0,0,0-4.9-4.9" transform="translate(126.222)" fill="#91def5"/>
          </g>
          <g id="g2176" transform="translate(1.185 44.314)">
            <path id="path2178" d="M-115.006,0h-6.319a4.9,4.9,0,0,0-4.9,4.9v5.529h16.114V4.9a4.9,4.9,0,0,0-4.9-4.9" transform="translate(126.222)" fill="#f5737f"/>
          </g>
          <g id="g2180" transform="translate(22.275 10.501)">
            <path id="path2182" d="M-115.006,0h-6.319a4.9,4.9,0,0,0-4.9,4.9v5.529h16.114V4.9a4.9,4.9,0,0,0-4.9-4.9" transform="translate(126.222)" fill="#91def5"/>
          </g>
          <g id="g2184" transform="translate(43.366 10.501)">
            <path id="path2186" d="M-115.006,0h-6.319a4.9,4.9,0,0,0-4.9,4.9v5.529h16.114V4.9a4.9,4.9,0,0,0-4.9-4.9" transform="translate(126.222)" fill="#ffd89e"/>
          </g>
          <g id="g2188" transform="translate(1.185 10.501)">
            <path id="path2190" d="M-115.006,0h-6.319a4.9,4.9,0,0,0-4.9,4.9v5.529h16.114V4.9a4.9,4.9,0,0,0-4.9-4.9" transform="translate(126.222)" fill="#f6838d"/>
          </g>
          <g id="g2192" transform="translate(22.275 10.501)">
            <path id="path2194" d="M-115.006,0h-6.319a4.9,4.9,0,0,0-4.9,4.9v5.529h16.114V4.9A4.9,4.9,0,0,0-115.006,0Z" transform="translate(126.222)" fill="none" stroke="#000" stroke-linecap="round" stroke-linejoin="round" stroke-miterlimit="10" stroke-width="2"/>
          </g>
          <g id="g2196" transform="translate(43.366 10.501)">
            <path id="path2198" d="M-115.006,0h-6.319a4.9,4.9,0,0,0-4.9,4.9v5.529h16.114V4.9A4.9,4.9,0,0,0-115.006,0Z" transform="translate(126.222)" fill="none" stroke="#000" stroke-linecap="round" stroke-linejoin="round" stroke-miterlimit="10" stroke-width="2"/>
          </g>
          <g id="g2200" transform="translate(4.976 1.185)">
            <path id="path2202" d="M-43.734,0h0A4.266,4.266,0,0,0-48,4.266V5.05a4.266,4.266,0,0,0,4.266,4.266h0A4.266,4.266,0,0,0-39.469,5.05V4.266A4.266,4.266,0,0,0-43.734,0" transform="translate(48)" fill="#ffddcf"/>
          </g>
          <g id="g2204" transform="translate(4.976 1.185)">
            <path id="path2206" d="M-43.734,0h0A4.266,4.266,0,0,0-48,4.266V5.05a4.266,4.266,0,0,0,4.266,4.266h0A4.266,4.266,0,0,0-39.469,5.05V4.266A4.266,4.266,0,0,0-43.734,0Z" transform="translate(48)" fill="none" stroke="#000" stroke-linecap="round" stroke-linejoin="round" stroke-miterlimit="10" stroke-width="2"/>
          </g>
          <g id="g2208" transform="translate(26.103 1.185)">
            <path id="path2210" d="M-43.734,0h0A4.266,4.266,0,0,0-48,4.266V5.05a4.266,4.266,0,0,0,4.266,4.266h0A4.266,4.266,0,0,0-39.469,5.05V4.266A4.266,4.266,0,0,0-43.734,0" transform="translate(48)" fill="#ffddcf"/>
          </g>
          <g id="g2212" transform="translate(26.103 1.185)">
            <path id="path2214" d="M-43.734,0h0A4.266,4.266,0,0,0-48,4.266V5.05a4.266,4.266,0,0,0,4.266,4.266h0A4.266,4.266,0,0,0-39.469,5.05V4.266A4.266,4.266,0,0,0-43.734,0Z" transform="translate(48)" fill="none" stroke="#000" stroke-linecap="round" stroke-linejoin="round" stroke-miterlimit="10" stroke-width="2"/>
          </g>
          <g id="g2216" transform="translate(47.23 1.185)">
            <path id="path2218" d="M-43.734,0h0A4.266,4.266,0,0,0-48,4.266V5.05a4.266,4.266,0,0,0,4.266,4.266h0A4.266,4.266,0,0,0-39.469,5.05V4.266A4.266,4.266,0,0,0-43.734,0" transform="translate(48)" fill="#ffddcf"/>
          </g>
          <g id="g2220" transform="translate(47.23 1.185)">
            <path id="path2222" d="M-43.734,0h0A4.266,4.266,0,0,0-48,4.266V5.05a4.266,4.266,0,0,0,4.266,4.266h0A4.266,4.266,0,0,0-39.469,5.05V4.266A4.266,4.266,0,0,0-43.734,0Z" transform="translate(48)" fill="none" stroke="#000" stroke-linecap="round" stroke-linejoin="round" stroke-miterlimit="10" stroke-width="2"/>
          </g>
          <g id="g2224" transform="translate(1.185 10.501)">
            <path id="path2226" d="M-115.006,0h-6.319a4.9,4.9,0,0,0-4.9,4.9v5.529h16.114V4.9A4.9,4.9,0,0,0-115.006,0Z" transform="translate(126.222)" fill="none" stroke="#000" stroke-linecap="round" stroke-linejoin="round" stroke-miterlimit="10" stroke-width="2"/>
          </g>
          <g id="g2228" transform="translate(1.185 20.928)">
            <path id="path2230" d="M-244.184-48.594H-268v-4.739h58.3v4.739H-233.52" transform="translate(267.999 53.333)" fill="none" stroke="#000" stroke-linecap="round" stroke-linejoin="round" stroke-miterlimit="10" stroke-width="2"/>
          </g>
          <g id="g2232" transform="translate(22.275 44.314)">
            <path id="path2234" d="M-115.006,0h-6.319a4.9,4.9,0,0,0-4.9,4.9v5.529h16.114V4.9A4.9,4.9,0,0,0-115.006,0Z" transform="translate(126.222)" fill="none" stroke="#000" stroke-linecap="round" stroke-linejoin="round" stroke-miterlimit="10" stroke-width="2"/>
          </g>
          <g id="g2236" transform="translate(43.366 44.314)">
            <path id="path2238" d="M-115.006,0h-6.319a4.9,4.9,0,0,0-4.9,4.9v5.529h16.114V4.9A4.9,4.9,0,0,0-115.006,0Z" transform="translate(126.222)" fill="none" stroke="#000" stroke-linecap="round" stroke-linejoin="round" stroke-miterlimit="10" stroke-width="2"/>
          </g>
          <g id="g2240" transform="translate(4.976 34.998)">
            <path id="path2242" d="M-43.734,0h0A4.266,4.266,0,0,0-48,4.266V5.05a4.266,4.266,0,0,0,4.266,4.266h0A4.266,4.266,0,0,0-39.469,5.05V4.266A4.266,4.266,0,0,0-43.734,0" transform="translate(48)" fill="#ffddcf"/>
          </g>
          <g id="g2244" transform="translate(4.976 34.998)">
            <path id="path2246" d="M-43.734,0h0A4.266,4.266,0,0,0-48,4.266V5.05a4.266,4.266,0,0,0,4.266,4.266h0A4.266,4.266,0,0,0-39.469,5.05V4.266A4.266,4.266,0,0,0-43.734,0Z" transform="translate(48)" fill="none" stroke="#000" stroke-linecap="round" stroke-linejoin="round" stroke-miterlimit="10" stroke-width="2"/>
          </g>
          <g id="g2248" transform="translate(26.103 34.998)">
            <path id="path2250" d="M-43.734,0h0A4.266,4.266,0,0,0-48,4.266V5.05a4.266,4.266,0,0,0,4.266,4.266h0A4.266,4.266,0,0,0-39.469,5.05V4.266A4.266,4.266,0,0,0-43.734,0" transform="translate(48)" fill="#ffddcf"/>
          </g>
          <g id="g2252" transform="translate(26.103 34.998)">
            <path id="path2254" d="M-43.734,0h0A4.266,4.266,0,0,0-48,4.266V5.05a4.266,4.266,0,0,0,4.266,4.266h0A4.266,4.266,0,0,0-39.469,5.05V4.266A4.266,4.266,0,0,0-43.734,0Z" transform="translate(48)" fill="none" stroke="#000" stroke-linecap="round" stroke-linejoin="round" stroke-miterlimit="10" stroke-width="2"/>
          </g>
          <g id="g2256" transform="translate(47.23 34.998)">
            <path id="path2258" d="M-43.734,0h0A4.266,4.266,0,0,0-48,4.266V5.05a4.266,4.266,0,0,0,4.266,4.266h0A4.266,4.266,0,0,0-39.469,5.05V4.266A4.266,4.266,0,0,0-43.734,0" transform="translate(48)" fill="#ffddcf"/>
          </g>
          <g id="g2260" transform="translate(47.23 34.998)">
            <path id="path2262" d="M-43.734,0h0A4.266,4.266,0,0,0-48,4.266V5.05a4.266,4.266,0,0,0,4.266,4.266h0A4.266,4.266,0,0,0-39.469,5.05V4.266A4.266,4.266,0,0,0-43.734,0Z" transform="translate(48)" fill="none" stroke="#000" stroke-linecap="round" stroke-linejoin="round" stroke-miterlimit="10" stroke-width="2"/>
          </g>
          <g id="g2264" transform="translate(1.185 44.314)">
            <path id="path2266" d="M-115.006,0h-6.319a4.9,4.9,0,0,0-4.9,4.9v5.529h16.114V4.9A4.9,4.9,0,0,0-115.006,0Z" transform="translate(126.222)" fill="none" stroke="#000" stroke-linecap="round" stroke-linejoin="round" stroke-miterlimit="10" stroke-width="2"/>
          </g>
          <path id="path2268" d="M71.629-61.927h-58.3v-4.739h58.3Z" transform="translate(-12.148 121.407)" fill="none" stroke="#000" stroke-linecap="round" stroke-linejoin="round" stroke-miterlimit="10" stroke-width="2"/>
          <g id="g2270" transform="translate(30.333 25.667)">
            <path id="path2272" d="M0,0H0" fill="none" stroke="#000" stroke-linecap="round" stroke-linejoin="round" stroke-miterlimit="10" stroke-width="2"/>
          </g>
        </g>
      </g>
    </g>
  </g>
</svg>
