<svg xmlns="http://www.w3.org/2000/svg" width="85" height="85" viewBox="0 0 85 85">
  <g id="Grupo_1125727" data-name="Grupo 1125727" transform="translate(-1164.051 -4147)">
    <g id="Layer_1" transform="translate(1174.352 4164.168)">
      <g id="Grupo_1125726" data-name="Grupo 1125726">
        <g id="Grupo_1125724" data-name="Grupo 1125724" transform="translate(0.648 0.647)">
          <g id="Grupo_1125713" data-name="Grupo 1125713" transform="translate(0 1.902)">
            <path id="Trazado_986688" data-name="Trazado 986688" d="M70.09,43.3V87.216a1.3,1.3,0,0,1-1.3,1.3H8.967a1.3,1.3,0,0,1-1.3-1.3V43.3a1.3,1.3,0,0,1,1.3-1.3h3.372V62.7H26.56V42H41.987v1.73a1.3,1.3,0,0,0,1.3,1.3h7.1a1.3,1.3,0,0,0,1.3-1.3V42h3.566v1.73a1.3,1.3,0,0,0,1.3,1.3h6.974a1.3,1.3,0,0,0,1.3-1.3V42h3.981A1.3,1.3,0,0,1,70.09,43.3Z" transform="translate(-7.67 -42)" fill="#13bf6d"/>
          </g>
          <g id="Grupo_1125714" data-name="Grupo 1125714" transform="translate(6.203 37.667)">
            <path id="Trazado_986689" data-name="Trazado 986689" d="M31.584,179.89H42.737v4.634H31.584Z" transform="translate(-31.584 -179.89)" fill="#afafaf"/>
          </g>
          <g id="Grupo_1125719" data-name="Grupo 1125719" transform="translate(34.316 9.597)">
            <g id="Grupo_1125715" data-name="Grupo 1125715">
              <path id="Trazado_986690" data-name="Trazado 986690" d="M139.977,71.665H162.8V94.489H139.977Z" transform="translate(-139.977 -71.665)" fill="#efefef"/>
            </g>
            <g id="Grupo_1125718" data-name="Grupo 1125718" transform="translate(4.971 4.971)">
              <g id="Grupo_1125716" data-name="Grupo 1125716">
                <path id="Trazado_986691" data-name="Trazado 986691" d="M159.143,92.129v10.288a1.3,1.3,0,0,0,1.3,1.3h10.288a1.3,1.3,0,0,0,1.3-1.3V92.129a1.3,1.3,0,0,0-1.3-1.3H160.44A1.3,1.3,0,0,0,159.143,92.129Z" transform="translate(-159.143 -90.832)" fill="#72c1e8"/>
              </g>
              <g id="Grupo_1125717" data-name="Grupo 1125717" transform="translate(2.68 2.68)">
                <path id="Trazado_986692" data-name="Trazado 986692" d="M169.477,101.165H177v7.522h-7.522Z" transform="translate(-169.477 -101.165)" fill="#f0c020"/>
              </g>
            </g>
          </g>
          <g id="Grupo_1125720" data-name="Grupo 1125720" transform="translate(4.669 0.001)">
            <path id="Trazado_986693" data-name="Trazado 986693" d="M25.67,34.67H39.891v22.6H25.67Z" transform="translate(-25.67 -34.67)" fill="#f0c020"/>
          </g>
          <g id="Grupo_1125721" data-name="Grupo 1125721" transform="translate(47.574)">
            <path id="Trazado_986694" data-name="Trazado 986694" d="M200.659,34.665V38.3a1.3,1.3,0,0,1-1.3,1.3h-6.973a1.3,1.3,0,0,1-1.3-1.3V34.665Z" transform="translate(-191.092 -34.665)" fill="#afafaf"/>
          </g>
          <g id="Grupo_1125722" data-name="Grupo 1125722" transform="translate(34.316)">
            <path id="Trazado_986695" data-name="Trazado 986695" d="M149.668,34.665V38.3a1.3,1.3,0,0,1-1.3,1.3h-7.1a1.3,1.3,0,0,1-1.3-1.3V34.665Z" transform="translate(-139.977 -34.665)" fill="#afafaf"/>
          </g>
          <g id="Grupo_1125723" data-name="Grupo 1125723" transform="translate(22.435 36.915)">
            <circle id="Elipse_12113" data-name="Elipse 12113" cx="3.069" cy="3.069" r="3.069" fill="#afafaf"/>
          </g>
        </g>
        <g id="Grupo_1125725" data-name="Grupo 1125725" transform="translate(18.89 7.218)">
          <path id="Trazado_986696" data-name="Trazado 986696" d="M119.369,99.424H82.539a.648.648,0,1,1,0-1.3h36.182V60.648a.648.648,0,0,1,1.3,0V98.776A.648.648,0,0,1,119.369,99.424Zm-39.424,0h-1.3a.648.648,0,0,1,0-1.3h1.3a.648.648,0,1,1,0,1.3Z" transform="translate(-78 -60)" fill="#76ffba"/>
        </g>
        <path id="Trazado_986697" data-name="Trazado 986697" d="M38.547,178.759a.649.649,0,0,0,.648-.648V176.3h1.686a.649.649,0,0,0,.648-.648v-4.635a.647.647,0,0,0-.648-.648H39.2v-1.81a.648.648,0,1,0-1.3,0v1.81H35.953v-1.81a.648.648,0,1,0-1.3,0v1.81H32.711v-1.81a.648.648,0,1,0-1.3,0v1.81H29.728a.651.651,0,0,0-.648.648v4.635a.654.654,0,0,0,.648.648h1.686v1.81a.648.648,0,1,0,1.3,0V176.3h1.945v1.81a.648.648,0,1,0,1.3,0V176.3H37.9v1.81A.65.65,0,0,0,38.547,178.759Zm-8.17-7.094h9.856V175H30.377Z" transform="translate(-22.878 -132.703)"/>
        <path id="Trazado_986698" data-name="Trazado 986698" d="M175.15,98.67h-7.522a.645.645,0,0,0-.648.648v7.519a.645.645,0,0,0,.648.648h7.522a.647.647,0,0,0,.648-.648V99.318A.647.647,0,0,0,175.15,98.67Zm-.648,7.522h-6.225V99.964H174.5Z" transform="translate(-125.012 -81.422)"/>
        <path id="Trazado_986699" data-name="Trazado 986699" d="M166.73,87.12a.648.648,0,1,0,0-1.3h-1.206V84.98a1.949,1.949,0,0,0-1.945-1.945h-.843V81.828a.648.648,0,0,0-1.3,0v1.206h-2.355V81.828a.648.648,0,0,0-1.3,0v1.206H155.43V81.828a.648.648,0,1,0-1.3,0v1.206h-.843a1.949,1.949,0,0,0-1.945,1.945v.843h-1.206a.648.648,0,0,0,0,1.3h1.206v2.355h-1.206a.648.648,0,0,0,0,1.3h1.206v2.358h-1.206a.648.648,0,0,0,0,1.3h1.206v.843a1.949,1.949,0,0,0,1.945,1.945h.843V98.42a.648.648,0,1,0,1.3,0V97.214h2.358V98.42a.648.648,0,0,0,1.3,0V97.214h2.355V98.42a.648.648,0,1,0,1.3,0V97.214h.843a1.949,1.949,0,0,0,1.945-1.945v-.843h1.206a.648.648,0,0,0,0-1.3h-1.206V90.771h1.206a.648.648,0,0,0,0-1.3h-1.206V87.12Zm-2.5,8.149a.65.65,0,0,1-.648.648H153.29a.654.654,0,0,1-.648-.648V84.98a.652.652,0,0,1,.648-.648h10.289a.649.649,0,0,1,.648.648Z" transform="translate(-112.058 -68.468)"/>
        <path id="Trazado_986700" data-name="Trazado 986700" d="M161.6,69.811a.652.652,0,0,0-.648-.651H138.128a.65.65,0,0,0-.648.651V92.633a.651.651,0,0,0,.648.651h22.824a.653.653,0,0,0,.648-.651V81.742a.648.648,0,1,0-1.3-.005v10.25H138.777V70.457H160.3v6.1a.648.648,0,1,0,1.3,0Z" transform="translate(-103.163 -59.566)"/>
        <path id="Trazado_986701" data-name="Trazado 986701" d="M226.128,105.16a.648.648,0,1,0,.648.651A.651.651,0,0,0,226.128,105.16Z" transform="translate(-168.338 -86.229)"/>
        <path id="Trazado_986702" data-name="Trazado 986702" d="M138.128,178.687h22.824a.648.648,0,0,0,0-1.3H138.128a.648.648,0,1,0,0,1.3Z" transform="translate(-103.163 -139.724)"/>
        <path id="Trazado_986703" data-name="Trazado 986703" d="M138.128,192.8h22.824a.648.648,0,1,0,0-1.3H138.128a.648.648,0,1,0,0,1.3Z" transform="translate(-103.163 -150.175)"/>
        <circle id="Elipse_12114" data-name="Elipse 12114" cx="0.648" cy="0.648" r="0.648" transform="translate(14.149 12.011)"/>
        <path id="Trazado_986704" data-name="Trazado 986704" d="M102.638,70.926a.649.649,0,0,0,.648-.648v-.462a.648.648,0,0,0-1.3,0v.462A.649.649,0,0,0,102.638,70.926Z" transform="translate(-76.878 -59.573)"/>
        <path id="Trazado_986705" data-name="Trazado 986705" d="M101.99,91.83a.648.648,0,1,0,1.3,0v-.462a.648.648,0,1,0-1.3,0Z" transform="translate(-76.878 -75.534)"/>
        <path id="Trazado_986706" data-name="Trazado 986706" d="M101.99,113.388a.648.648,0,0,0,1.3,0v-.459a.648.648,0,0,0-1.3,0Z" transform="translate(-76.878 -91.502)"/>
        <path id="Trazado_986707" data-name="Trazado 986707" d="M101.99,134.94a.648.648,0,1,0,1.3,0v-.462a.648.648,0,0,0-1.3,0Z" transform="translate(-76.878 -107.463)"/>
        <path id="Trazado_986708" data-name="Trazado 986708" d="M101.99,156.5a.648.648,0,1,0,1.3,0v-.459a.648.648,0,1,0-1.3,0Z" transform="translate(-76.878 -123.431)"/>
        <path id="Trazado_986709" data-name="Trazado 986709" d="M114.138,81.986a.649.649,0,0,0,.648-.648v-.459a.648.648,0,1,0-1.3,0v.459A.649.649,0,0,0,114.138,81.986Z" transform="translate(-85.395 -67.765)"/>
        <path id="Trazado_986710" data-name="Trazado 986710" d="M113.49,102.9a.648.648,0,0,0,1.3,0v-.462a.648.648,0,0,0-1.3,0Z" transform="translate(-85.395 -83.733)"/>
        <path id="Trazado_986711" data-name="Trazado 986711" d="M113.49,124.45a.648.648,0,1,0,1.3,0v-.462a.648.648,0,0,0-1.3,0Z" transform="translate(-85.395 -99.693)"/>
        <path id="Trazado_986712" data-name="Trazado 986712" d="M113.49,146.008a.648.648,0,1,0,1.3,0v-.459a.648.648,0,1,0-1.3,0Z" transform="translate(-85.395 -115.661)"/>
        <path id="Trazado_986713" data-name="Trazado 986713" d="M91.67,178.207a3.717,3.717,0,1,0,3.717-3.717A3.722,3.722,0,0,0,91.67,178.207Zm3.717-2.42a2.421,2.421,0,1,1-2.42,2.42A2.429,2.429,0,0,1,95.387,175.787Z" transform="translate(-69.235 -137.577)"/>
        <path id="Trazado_986714" data-name="Trazado 986714" d="M38.688,149.478a.65.65,0,0,0-.648-.648H23.818a.648.648,0,1,0,0,1.3H38.04A.649.649,0,0,0,38.688,149.478Z" transform="translate(-18.501 -118.572)"/>
        <circle id="Elipse_12115" data-name="Elipse 12115" cx="0.648" cy="0.648" r="0.648" transform="translate(52.299 48.414)"/>
        <path id="Trazado_986715" data-name="Trazado 986715" d="M5.17,79.935a1.948,1.948,0,0,0,1.945,1.945H55.524a.648.648,0,0,0,0-1.3H7.115a.649.649,0,0,1-.648-.648V36.016a.649.649,0,0,1,.648-.648H9.839V55.415a.647.647,0,0,0,.648.648h1.722v1.914a.648.648,0,0,0,1.3,0V56.063h3.442v1.914a.648.648,0,0,0,1.3,0V56.063h3.444v1.914a.648.648,0,0,0,1.3,0V56.063h1.722a.647.647,0,0,0,.648-.648V35.368h14.13V36.45a1.948,1.948,0,0,0,1.945,1.945h7.1a1.949,1.949,0,0,0,1.945-1.945V35.368h2.269V36.45a1.949,1.949,0,0,0,1.945,1.945h6.974a1.949,1.949,0,0,0,1.945-1.945V35.368h3.333a.649.649,0,0,1,.648.648V79.935a.649.649,0,0,1-.648.648h-6.23a.648.648,0,0,0,0,1.3h6.23a1.948,1.948,0,0,0,1.945-1.945V36.016a1.949,1.949,0,0,0-1.945-1.945H63.608V32.818a.646.646,0,0,0-.648-.648H53.392a.646.646,0,0,0-.648.648v1.253H50.474V32.818a.647.647,0,0,0-.648-.648h-9.69a.646.646,0,0,0-.648.648v1.253H25.357V32.818a.647.647,0,0,0-.648-.648H10.487a.645.645,0,0,0-.648.648v1.253H7.115A1.949,1.949,0,0,0,5.17,36.016ZM54.04,33.464h8.271V36.45a.654.654,0,0,1-.648.648H54.689a.654.654,0,0,1-.648-.648Zm-13.256,0h8.393v2.98a.653.653,0,0,1-.648.651h-7.1a.653.653,0,0,1-.648-.651ZM19.967,42.885a.649.649,0,0,0,.648-.648V33.464H24.06v21.3H20.615V47.423a.648.648,0,0,0-1.3,0v7.345H15.874v-21.3h3.444v8.772A.649.649,0,0,0,19.967,42.885Zm-8.832-9.42h3.442v21.3H11.135Z" transform="translate(-5.17 -32.17)"/>
      </g>
    </g>
    <rect id="Rectángulo_415770" data-name="Rectángulo 415770" width="85" height="85" transform="translate(1164.051 4147)" fill="none"/>
  </g>
</svg>
